<?xml version="1.0" encoding="utf-8"?>
<!-- Generator: Adobe Illustrator 13.0.2, SVG Export Plug-In . SVG Version: 6.00 Build 14948)  -->
<!DOCTYPE svg PUBLIC "-//W3C//DTD SVG 1.1//EN" "http://www.w3.org/Graphics/SVG/1.1/DTD/svg11.dtd">
<svg version="1.1" id="BEHANCE" xmlns="http://www.w3.org/2000/svg" xmlns:xlink="http://www.w3.org/1999/xlink" x="0px" y="0px"
	 width="175px" height="175px" viewBox="0 0 175 175" enable-background="new 0 0 175 175" xml:space="preserve">
<path fill="#636467" d="M71.884,79.233c1.626-0.994,2.443-2.758,2.443-5.279c0-2.803-1.077-4.652-3.231-5.557
	c-1.856-0.623-4.227-0.936-7.104-0.936H50.907v13.264h14.614C68.132,80.726,70.253,80.224,71.884,79.233z M71.72,91.694
	c-1.431-0.652-3.432-0.994-6.013-1.02h-14.8v16.033h14.599c2.607,0,4.64-0.354,6.092-1.059c2.637-1.311,3.951-3.811,3.951-7.502
	C75.549,95.013,74.275,92.866,71.72,91.694z M162.605,2.799H12.527c-5.5,0-10,4.5-10,10v150.079c0,5.5,4.5,10,10,10h150.078
	c5.5,0,10-4.5,10-10V12.799C172.605,7.299,168.105,2.799,162.605,2.799z M101.09,59.821h25.768v7.48H101.09V59.821z M85.559,108.583
	c-1.138,1.875-2.556,3.455-4.257,4.732c-1.924,1.471-4.182,2.473-6.797,3.02c-2.61,0.547-5.44,0.812-8.497,0.812h-27.09V57.019
	h29.055c7.335,0.107,12.526,2.242,15.587,6.41c1.835,2.555,2.756,5.611,2.756,9.174c0,3.67-0.921,6.621-2.778,8.854
	c-1.039,1.252-2.569,2.393-4.591,3.424c3.069,1.119,5.386,2.887,6.946,5.305c1.56,2.422,2.347,5.357,2.347,8.812
	C88.239,102.56,87.345,105.759,85.559,108.583z M136.202,98.181h-32.387c0.179,4.463,1.728,7.592,4.65,9.385
	c1.771,1.113,3.91,1.672,6.41,1.672c2.645,0,4.799-0.68,6.455-2.039c0.899-0.734,1.697-1.756,2.388-3.061h11.877
	c-0.315,2.637-1.756,5.316-4.312,8.041c-3.985,4.318-9.563,6.48-16.728,6.48c-5.92,0-11.142-1.818-15.666-5.471
	c-4.523-3.641-6.781-9.582-6.781-17.797c0-7.707,2.039-13.613,6.121-17.727c4.085-4.102,9.381-6.162,15.902-6.162
	c3.867,0,7.354,0.693,10.455,2.084c3.102,1.389,5.668,3.582,7.685,6.578c1.823,2.643,3.008,5.707,3.547,9.191
	C136.131,91.399,136.261,94.343,136.202,98.181z M121.033,83.483c-1.856-1.596-4.152-2.391-6.896-2.391
	c-2.982,0-5.299,0.842-6.941,2.537c-1.642,1.693-2.674,3.992-3.098,6.881h20.033C123.924,87.425,122.887,85.089,121.033,83.483z"/>
</svg>
