<?xml version="1.0" encoding="utf-8"?>
<!-- Generator: Adobe Illustrator 16.0.0, SVG Export Plug-In . SVG Version: 6.00 Build 0)  -->
<!DOCTYPE svg PUBLIC "-//W3C//DTD SVG 1.1//EN" "http://www.w3.org/Graphics/SVG/1.1/DTD/svg11.dtd">
<svg version="1.1" id="Layer_1" xmlns="http://www.w3.org/2000/svg" xmlns:xlink="http://www.w3.org/1999/xlink" x="0px" y="0px"
	 width="52.365px" height="34.908px" viewBox="0 0 52.365 34.908" enable-background="new 0 0 52.365 34.908" xml:space="preserve">
<g id="SUPERVISOR__x2B__COORDINATOR_x2C__A_x2F_V___x2B__TECH_SETUP__x2F__x2F___THE_GATHERING_x2019_S_2ND_SITE">
	<g opacity="0.85">
		<g>
			<circle fill="#7F5221" cx="34.91" cy="17.455" r="17.455"/>
			<g>
				<g>
					<path fill="#F19E1F" d="M44.697,17.453c0-0.311-0.064-0.605-0.095-0.908l1.943-1.15c-0.193-1.104-0.553-2.141-1.029-3.117
						l-2.219,0.21c-0.314-0.528-0.672-1.021-1.074-1.477l0.896-2.067c-0.789-0.764-1.703-1.385-2.679-1.902l-1.637,1.441
						c-0.563-0.244-1.156-0.433-1.771-0.568l-0.479-2.139C36.011,5.7,35.474,5.61,34.909,5.61c-0.565,0-1.103,0.09-1.646,0.166
						l-0.477,2.139c-0.615,0.136-1.207,0.324-1.771,0.568l-1.637-1.441c-0.977,0.518-1.889,1.14-2.678,1.902l0.895,2.067
						c-0.402,0.456-0.76,0.947-1.074,1.477l-2.219-0.21c-0.477,0.977-0.836,2.014-1.029,3.117l1.943,1.15
						c-0.029,0.303-0.094,0.598-0.094,0.908c0,0.31,0.064,0.604,0.094,0.908l-1.943,1.149c0.193,1.104,0.553,2.142,1.029,3.117
						l2.219-0.21c0.314,0.528,0.672,1.021,1.074,1.476L26.7,25.962c0.789,0.764,1.701,1.385,2.678,1.902l1.637-1.441
						c0.564,0.244,1.156,0.434,1.771,0.568l0.477,2.14c0.545,0.075,1.082,0.165,1.646,0.165c0.563,0,1.102-0.09,1.645-0.165
						l0.479-2.14c0.614-0.137,1.207-0.324,1.771-0.568l1.637,1.441c0.976-0.519,1.89-1.139,2.679-1.902l-0.896-2.068
						c0.402-0.455,0.76-0.946,1.074-1.476l2.219,0.21c0.478-0.977,0.836-2.014,1.029-3.117l-1.943-1.149
						C44.633,18.06,44.697,17.764,44.697,17.453z M34.91,22.367c-2.713,0-4.914-2.199-4.914-4.912c0-2.715,2.201-4.914,4.914-4.914
						s4.914,2.199,4.914,4.914C39.824,20.168,37.623,22.367,34.91,22.367z"/>
				</g>
			</g>
		</g>
		<g>
			<circle fill="#FFFFFF" cx="17.455" cy="17.455" r="17.455"/>
			<path fill="#F19E1F" d="M17.82,29.963h-0.744c-1.309-0.084-2.307-0.247-3.109-0.511c-0.338-1.954-0.693-3.883-1.055-5.812
				l-0.082-0.444c0.76,0.511,1.521,1.021,2.285,1.532c2.176,1.461,4.424,2.967,6.604,4.485
				C20.479,29.652,19.199,29.899,17.82,29.963L17.82,29.963z M12.197,28.795c-2.385-1.123-4.273-2.856-5.615-5.164
				c0.955-1.497,1.936-2.964,2.916-4.436l0.74-1.107C10.906,21.642,11.557,25.213,12.197,28.795L12.197,28.795z M23.506,28.408
				c-1.537-1.006-3.244-2.156-5.213-3.511c-0.078-0.056-0.154-0.108-0.229-0.164c2.811-0.523,5.602-1.067,8.393-1.613l2.367-0.462
				C27.685,25.104,25.895,27.035,23.506,28.408L23.506,28.408z M23.039,22.131c0.611-0.903,1.223-1.812,1.834-2.725
				c1.41-2.1,2.865-4.268,4.297-6.326c0.461,1.223,0.724,2.539,0.795,4.01v0.742c-0.071,1.207-0.231,2.217-0.487,3.062
				c-1.488,0.271-2.958,0.562-4.431,0.846C24.379,21.871,23.711,22.002,23.039,22.131L23.039,22.131z M5.762,21.876
				c-0.471-1.221-0.738-2.555-0.815-4.058v-0.742c0.078-1.215,0.233-2.223,0.49-3.062c1.348-0.254,2.688-0.52,4.025-0.781
				c0.779-0.154,1.559-0.307,2.338-0.456c-0.738,1.107-1.475,2.224-2.209,3.337C8.316,18.041,7.045,19.963,5.762,21.876
				L5.762,21.876z M24.762,16.64c-0.34-1.864-0.69-3.718-1.045-5.567c-0.311-1.632-0.621-3.267-0.922-4.905
				c2.371,1.106,4.242,2.849,5.56,5.18c-0.515,0.747-1.021,1.504-1.523,2.259C26.158,14.607,25.471,15.641,24.762,16.64
				L24.762,16.64z M6.092,12.221c0.539-1.19,1.301-2.317,2.316-3.43l0.529-0.523c0.918-0.802,1.746-1.395,2.52-1.802
				c1.178,0.812,2.354,1.614,3.531,2.416l1.82,1.241c-1.307,0.253-2.611,0.512-3.916,0.771C10.625,11.343,8.359,11.791,6.092,12.221
				L6.092,12.221z M22.178,11.68c-1.008-0.688-2.024-1.375-3.039-2.061c-1.914-1.295-3.889-2.627-5.812-3.975
				c1.197-0.406,2.43-0.635,3.764-0.699h0.744C18.85,5.015,20.025,5.134,21,5.477c0.213,1.078,0.416,2.166,0.619,3.253
				C21.803,9.715,21.986,10.701,22.178,11.68L22.178,11.68z"/>
		</g>
	</g>
</g>
</svg>
