<?xml version="1.0" encoding="utf-8"?>
<!-- Generator: Adobe Illustrator 16.0.0, SVG Export Plug-In . SVG Version: 6.00 Build 0)  -->
<!DOCTYPE svg PUBLIC "-//W3C//DTD SVG 1.1//EN" "http://www.w3.org/Graphics/SVG/1.1/DTD/svg11.dtd">
<svg version="1.1" id="Layer_1" xmlns="http://www.w3.org/2000/svg" xmlns:xlink="http://www.w3.org/1999/xlink" x="0px" y="0px"
	 width="155.832px" height="17.918px" viewBox="0 0 155.832 17.918" enable-background="new 0 0 155.832 17.918"
	 xml:space="preserve">
<g id="DESIGN_LABEL">
	<g>
		<g>
			<path fill="#FFFFFF" d="M0.729,13.118V0.845h5.12V2.55H3.211v3.341h1.868v1.745H3.211v5.482H0.729z"/>
			<path fill="#FFFFFF" d="M5.867,13.118V0.845h2.7c0.613,0,1.153,0.059,1.619,0.174s0.874,0.297,1.224,0.545
				c0.351,0.248,0.616,0.582,0.798,1.002c0.182,0.42,0.272,0.924,0.272,1.51c0,0.255-0.009,0.482-0.027,0.682
				c-0.018,0.2-0.06,0.428-0.126,0.686c-0.065,0.257-0.155,0.483-0.269,0.682s-0.277,0.392-0.491,0.583
				c-0.214,0.191-0.466,0.35-0.757,0.478c0.736,2.335,1.377,4.313,1.923,5.932h-2.57L8.758,7.466H8.349v5.652H5.867z M8.349,5.952
				h0.71c0.19,0,0.354-0.063,0.49-0.191c0.137-0.127,0.235-0.289,0.297-0.483c0.062-0.195,0.104-0.375,0.13-0.539
				C10,4.575,10.013,4.42,10.013,4.275s-0.01-0.295-0.03-0.45C9.962,3.67,9.925,3.499,9.873,3.31
				C9.82,3.122,9.734,2.967,9.614,2.847c-0.121-0.121-0.269-0.181-0.44-0.181H8.349V5.952z"/>
			<path fill="#FFFFFF" d="M12.819,13.118V0.845h5.12V2.55H15.3v3.341h1.868v1.745H15.3v3.777h2.639v1.705H12.819z"/>
			<path fill="#FFFFFF" d="M18.128,13.118V0.845h5.12V2.55h-2.639v3.341h1.868v1.745h-1.868v3.777h2.639v1.705H18.128z"/>
			<path fill="#FFFFFF" d="M23.437,13.118V0.845h2.481v10.568h2.441v1.705H23.437z"/>
			<path fill="#FFFFFF" d="M27.784,13.118l2.652-12.273h2.195l2.646,12.273h-2.448l-0.504-2.625h-1.604l-0.478,2.625H27.784z
				 M30.894,8.966h1.268l-0.62-4.555L30.894,8.966z"/>
			<path fill="#FFFFFF" d="M35.37,13.118V0.838h1.786l2.693,6.423V0.838h2.06v12.28H40.19l-2.687-6.812v6.812H35.37z"/>
			<path fill="#FFFFFF" d="M42.513,9.021V4.957c0-2.9,1.188-4.35,3.561-4.35c0.5,0,0.944,0.067,1.333,0.201
				c0.389,0.134,0.715,0.319,0.979,0.556c0.264,0.237,0.48,0.527,0.651,0.873c0.17,0.346,0.293,0.721,0.368,1.125
				c0.074,0.405,0.112,0.85,0.112,1.336v1.057h-2.441V4.623c0-0.223-0.004-0.415-0.014-0.576c-0.009-0.161-0.032-0.345-0.071-0.552
				s-0.091-0.375-0.157-0.504c-0.065-0.129-0.163-0.24-0.293-0.331c-0.129-0.091-0.285-0.136-0.467-0.136
				c-0.719,0-1.077,0.604-1.077,1.813v5.298c0,1.205,0.358,1.807,1.077,1.807c0.214,0,0.394-0.062,0.539-0.184
				c0.145-0.123,0.249-0.296,0.312-0.521c0.063-0.226,0.106-0.446,0.129-0.662c0.023-0.216,0.034-0.462,0.034-0.74V8.073h2.428
				v1.036c-0.01,0.468-0.048,0.9-0.116,1.295s-0.184,0.779-0.348,1.151c-0.164,0.373-0.371,0.688-0.624,0.944
				c-0.252,0.257-0.578,0.464-0.979,0.621c-0.399,0.157-0.858,0.234-1.377,0.234c-0.532,0-1.004-0.075-1.415-0.229
				c-0.411-0.152-0.75-0.357-1.016-0.614s-0.485-0.573-0.658-0.948c-0.173-0.375-0.294-0.769-0.364-1.183
				C42.548,9.971,42.513,9.516,42.513,9.021z"/>
			<path fill="#FFFFFF" d="M49.978,13.118V0.845h5.12V2.55h-2.639v3.341h1.868v1.745h-1.868v3.777h2.639v1.705H49.978z"/>
			<path fill="#FFFFFF" d="M56.455,13.118l3.763-11.734h0.989l-3.771,11.734H56.455z"/>
			<path fill="#FFFFFF" d="M60.195,13.118l3.763-11.734h0.989l-3.771,11.734H60.195z"/>
			<path fill="#FFFFFF" d="M69.051,9.838V4.861c0-2.427,1.029-3.642,3.089-3.642c0.327,0,0.624,0.037,0.891,0.109
				c0.266,0.072,0.491,0.171,0.675,0.296c0.185,0.125,0.346,0.286,0.484,0.481s0.249,0.397,0.33,0.606
				c0.082,0.209,0.148,0.454,0.198,0.733c0.05,0.279,0.084,0.55,0.104,0.811c0.018,0.262,0.025,0.554,0.025,0.876v0.082H73.81V5.127
				c0-0.018,0-0.048,0-0.089c0-0.332-0.003-0.583-0.01-0.753S73.775,3.89,73.748,3.61c-0.027-0.28-0.077-0.493-0.149-0.642
				c-0.073-0.146-0.168-0.302-0.286-0.463c-0.119-0.162-0.277-0.277-0.478-0.348c-0.2-0.07-0.437-0.105-0.709-0.105
				c-0.382,0-0.709,0.065-0.982,0.194c-0.272,0.129-0.483,0.31-0.634,0.542c-0.151,0.232-0.258,0.482-0.324,0.75
				c-0.065,0.268-0.099,0.563-0.099,0.886v5.864c0,0.3,0.027,0.568,0.082,0.808c0.055,0.239,0.148,0.468,0.283,0.686
				c0.134,0.218,0.335,0.388,0.604,0.508c0.269,0.121,0.599,0.181,0.988,0.181c0.359,0,0.666-0.062,0.92-0.19
				c0.255-0.127,0.446-0.302,0.573-0.521s0.217-0.448,0.27-0.685c0.052-0.236,0.078-0.498,0.078-0.784V8.305h-1.438V7.521h2.475
				v5.598h-0.457l-0.307-1.146c-0.154,0.405-0.428,0.729-0.821,0.969c-0.393,0.239-0.828,0.36-1.306,0.36
				c-0.313,0-0.603-0.028-0.862-0.085c-0.262-0.057-0.487-0.13-0.679-0.221c-0.19-0.091-0.362-0.208-0.515-0.352
				c-0.152-0.144-0.277-0.285-0.375-0.426s-0.183-0.305-0.256-0.49c-0.072-0.187-0.127-0.354-0.163-0.504
				c-0.037-0.15-0.064-0.32-0.086-0.512c-0.021-0.191-0.033-0.346-0.037-0.464C69.053,10.129,69.051,9.993,69.051,9.838z"/>
			<path fill="#FFFFFF" d="M75.988,13.118V1.384h3.13c0.396,0,0.743,0.054,1.043,0.164c0.3,0.109,0.542,0.253,0.727,0.433
				s0.333,0.402,0.446,0.668s0.191,0.541,0.235,0.825c0.043,0.284,0.063,0.599,0.063,0.944c0,1.496-0.545,2.443-1.636,2.843
				l1.813,5.857h-1.104l-1.712-5.727h-1.97v5.727H75.988z M77.025,6.559h2.086c0.296,0,0.546-0.059,0.75-0.177
				c0.203-0.118,0.357-0.287,0.46-0.504c0.103-0.218,0.174-0.446,0.215-0.682c0.041-0.236,0.062-0.507,0.062-0.812
				c0-0.25-0.013-0.475-0.037-0.675s-0.07-0.396-0.137-0.586c-0.066-0.191-0.152-0.351-0.263-0.48
				c-0.108-0.129-0.252-0.233-0.431-0.31c-0.177-0.078-0.384-0.116-0.619-0.116h-2.086V6.559z"/>
			<path fill="#FFFFFF" d="M82.934,13.118h-1.043l2.318-11.734h1.35l2.318,11.734h-1.05l-0.586-3.056h-2.707L82.934,13.118z
				 M83.656,9.375h2.455l-1.234-6.914L83.656,9.375z"/>
			<path fill="#FFFFFF" d="M88.494,13.118V1.384h2.871c0.408,0,0.771,0.056,1.091,0.167c0.319,0.111,0.582,0.262,0.791,0.453
				c0.209,0.191,0.382,0.423,0.518,0.696c0.138,0.271,0.233,0.56,0.29,0.862c0.058,0.302,0.085,0.628,0.085,0.979
				c0,0.359-0.022,0.691-0.07,0.995c-0.048,0.305-0.138,0.607-0.267,0.907c-0.13,0.3-0.296,0.553-0.498,0.76
				c-0.201,0.207-0.47,0.375-0.801,0.504c-0.332,0.129-0.714,0.194-1.146,0.194h-1.826v5.216L88.494,13.118L88.494,13.118z
				 M89.531,7.07l1.949,0.007c0.582,0.005,0.998-0.196,1.248-0.604c0.25-0.407,0.375-1.044,0.375-1.912
				c0-0.809-0.135-1.402-0.402-1.78c-0.27-0.377-0.676-0.566-1.221-0.566h-1.949V7.07z"/>
			<path fill="#FFFFFF" d="M94.643,13.118V1.384h1.037v5.312h3.613V1.384h1.036v11.734h-1.036v-5.7H95.68v5.7H94.643z"/>
			<path fill="#FFFFFF" d="M101.615,13.118V1.384h1.037v11.734H101.615z"/>
			<path fill="#FFFFFF" d="M103.732,9.716V4.8c0-0.418,0.027-0.797,0.082-1.139c0.056-0.341,0.15-0.666,0.289-0.975
				c0.14-0.309,0.317-0.569,0.536-0.781c0.218-0.211,0.496-0.378,0.835-0.501c0.338-0.123,0.73-0.185,1.177-0.185
				c1.837,0,2.755,1.193,2.755,3.58v0.479h-0.989v-0.71c0-0.377-0.028-0.711-0.085-1.002s-0.151-0.553-0.283-0.788
				s-0.313-0.414-0.549-0.539c-0.232-0.125-0.518-0.188-0.849-0.188c-0.3,0-0.562,0.042-0.784,0.126
				c-0.223,0.084-0.403,0.199-0.542,0.345c-0.14,0.146-0.25,0.327-0.334,0.545c-0.084,0.218-0.142,0.446-0.175,0.685
				c-0.031,0.239-0.047,0.51-0.047,0.815v5.379c0,0.386,0.026,0.722,0.082,1.006c0.055,0.284,0.147,0.545,0.282,0.784
				c0.134,0.238,0.328,0.421,0.583,0.545c0.254,0.125,0.565,0.188,0.935,0.188c0.331,0,0.614-0.062,0.849-0.188
				c0.234-0.125,0.417-0.307,0.549-0.542c0.132-0.236,0.228-0.5,0.283-0.791c0.057-0.291,0.085-0.625,0.085-1.002V9.143h0.989v0.573
				c0,0.414-0.025,0.791-0.075,1.132c-0.05,0.342-0.14,0.667-0.271,0.979c-0.129,0.312-0.295,0.573-0.5,0.784
				s-0.469,0.379-0.791,0.504s-0.695,0.188-1.118,0.188c-0.454,0-0.854-0.062-1.196-0.188c-0.344-0.125-0.623-0.293-0.839-0.504
				s-0.392-0.474-0.525-0.784c-0.134-0.312-0.227-0.636-0.278-0.976C103.76,10.513,103.732,10.134,103.732,9.716z"/>
			<path fill="#FFFFFF" d="M112.359,13.118V1.384h2.639c0.445,0,0.841,0.061,1.188,0.181c0.346,0.12,0.631,0.284,0.854,0.491
				c0.226,0.207,0.409,0.46,0.553,0.76c0.145,0.3,0.245,0.618,0.308,0.955c0.062,0.337,0.092,0.707,0.092,1.111v4.772
				c0,2.31-0.997,3.464-2.993,3.464H112.359z M113.396,12.286h1.602c1.305,0,1.957-0.8,1.957-2.4V4.65
				c0-1.623-0.652-2.434-1.957-2.434h-1.602V12.286z"/>
			<path fill="#FFFFFF" d="M119.064,13.118V1.384h4.092v0.832h-3.055v4.445h2.183v0.784h-2.183v4.841h3.055v0.832H119.064z"/>
			<path fill="#FFFFFF" d="M123.257,10.289l0.913-0.266c0.037,0.326,0.102,0.629,0.194,0.906c0.094,0.277,0.22,0.535,0.379,0.774
				c0.159,0.237,0.369,0.426,0.631,0.562c0.261,0.137,0.558,0.204,0.89,0.204c0.531,0,0.943-0.146,1.233-0.442
				c0.291-0.295,0.437-0.715,0.437-1.254c0-0.45-0.133-0.885-0.397-1.304c-0.267-0.418-0.658-0.899-1.177-1.445l-1.834-1.93
				c-0.399-0.422-0.706-0.817-0.92-1.186c-0.215-0.368-0.32-0.754-0.32-1.159c0-0.768,0.252-1.382,0.757-1.841
				c0.504-0.459,1.152-0.689,1.942-0.689c0.769,0,1.387,0.217,1.854,0.651c0.468,0.434,0.779,1.065,0.935,1.892l0.021,0.109
				l-0.873,0.273l-0.014-0.096c-0.091-0.586-0.302-1.066-0.63-1.438c-0.33-0.373-0.762-0.56-1.293-0.56
				c-0.519,0-0.932,0.132-1.237,0.396c-0.306,0.264-0.46,0.652-0.46,1.166c0,0.309,0.083,0.613,0.249,0.914
				c0.166,0.3,0.403,0.618,0.712,0.955l1.727,1.875c0.045,0.05,0.158,0.174,0.34,0.372c0.183,0.198,0.302,0.328,0.357,0.392
				c0.059,0.063,0.162,0.186,0.314,0.368c0.151,0.182,0.257,0.319,0.312,0.412c0.057,0.093,0.139,0.225,0.242,0.396
				s0.176,0.319,0.215,0.447c0.038,0.127,0.075,0.274,0.112,0.442c0.036,0.168,0.055,0.334,0.055,0.498
				c0,0.836-0.259,1.482-0.774,1.938c-0.515,0.455-1.183,0.682-2,0.682c-0.418,0-0.799-0.08-1.14-0.242
				c-0.341-0.16-0.628-0.383-0.862-0.664c-0.233-0.282-0.425-0.601-0.572-0.955C123.426,11.086,123.32,10.702,123.257,10.289z"/>
			<path fill="#FFFFFF" d="M129.547,13.118V1.384h1.037v11.734H129.547z"/>
			<path fill="#FFFFFF" d="M131.665,9.838V4.861c0-2.427,1.029-3.642,3.089-3.642c0.327,0,0.624,0.037,0.891,0.109
				c0.266,0.072,0.49,0.171,0.675,0.296s0.346,0.286,0.483,0.481c0.139,0.195,0.249,0.397,0.33,0.606
				c0.082,0.209,0.148,0.454,0.198,0.733c0.05,0.279,0.084,0.55,0.103,0.811c0.019,0.262,0.026,0.554,0.026,0.876v0.082h-1.036
				V5.127c0-0.018,0-0.048,0-0.089c0-0.332-0.003-0.583-0.01-0.753s-0.024-0.396-0.052-0.675c-0.027-0.28-0.077-0.493-0.149-0.642
				c-0.073-0.146-0.168-0.302-0.286-0.463c-0.118-0.162-0.276-0.277-0.478-0.348c-0.2-0.07-0.438-0.105-0.709-0.105
				c-0.383,0-0.709,0.065-0.982,0.194c-0.271,0.129-0.482,0.31-0.634,0.542c-0.151,0.232-0.258,0.482-0.324,0.75
				c-0.064,0.268-0.099,0.563-0.099,0.886v5.864c0,0.3,0.027,0.568,0.082,0.808s0.147,0.468,0.283,0.686
				c0.134,0.218,0.335,0.388,0.604,0.508c0.268,0.121,0.598,0.181,0.988,0.181c0.359,0,0.666-0.062,0.92-0.19
				c0.255-0.127,0.445-0.302,0.573-0.521c0.127-0.22,0.217-0.448,0.27-0.685c0.052-0.236,0.078-0.498,0.078-0.784V8.305h-1.438
				V7.521h2.476v5.598h-0.457l-0.308-1.146c-0.153,0.405-0.428,0.729-0.82,0.969c-0.393,0.239-0.828,0.36-1.307,0.36
				c-0.312,0-0.602-0.028-0.861-0.085c-0.262-0.057-0.487-0.13-0.68-0.221c-0.189-0.091-0.361-0.208-0.515-0.352
				c-0.151-0.144-0.276-0.285-0.375-0.426c-0.098-0.141-0.183-0.305-0.256-0.49c-0.072-0.187-0.127-0.354-0.163-0.504
				c-0.037-0.15-0.064-0.32-0.086-0.512s-0.033-0.346-0.037-0.464C131.667,10.129,131.665,9.993,131.665,9.838z"/>
			<path fill="#FFFFFF" d="M138.604,13.118V1.384h0.797l3.717,9.293V1.384h0.88v11.734h-0.777l-3.723-9.095v9.095H138.604z"/>
			<path fill="#FFFFFF" d="M145.288,13.118V1.384h4.091v0.832h-3.054v4.445h2.182v0.784h-2.182v4.841h3.054v0.832H145.288z"/>
			<path fill="#FFFFFF" d="M150.011,13.118V1.384h3.13c0.396,0,0.743,0.054,1.043,0.164c0.301,0.109,0.543,0.253,0.728,0.433
				c0.184,0.18,0.333,0.402,0.446,0.668c0.112,0.266,0.191,0.541,0.234,0.825c0.043,0.284,0.064,0.599,0.064,0.944
				c0,1.496-0.545,2.443-1.637,2.843l1.813,5.857h-1.104l-1.711-5.727h-1.971v5.727H150.011z M151.048,6.559h2.086
				c0.296,0,0.546-0.059,0.75-0.177s0.358-0.287,0.46-0.504c0.104-0.218,0.174-0.446,0.215-0.682
				c0.041-0.236,0.062-0.507,0.062-0.812c0-0.25-0.014-0.475-0.037-0.675c-0.025-0.2-0.071-0.396-0.137-0.586
				c-0.066-0.191-0.153-0.351-0.264-0.48c-0.107-0.129-0.252-0.233-0.43-0.31c-0.177-0.078-0.384-0.116-0.62-0.116h-2.086V6.559z"/>
		</g>
	</g>
</g>
</svg>
