<?xml version="1.0" encoding="utf-8"?>
<!-- Generator: Adobe Illustrator 16.0.0, SVG Export Plug-In . SVG Version: 6.00 Build 0)  -->
<!DOCTYPE svg PUBLIC "-//W3C//DTD SVG 1.1//EN" "http://www.w3.org/Graphics/SVG/1.1/DTD/svg11.dtd">
<svg version="1.1" id="Layer_1" xmlns="http://www.w3.org/2000/svg" xmlns:xlink="http://www.w3.org/1999/xlink" x="0px" y="0px"
	 width="259.395px" height="17.918px" viewBox="0 0 259.395 17.918" enable-background="new 0 0 259.395 17.918"
	 xml:space="preserve">
<g id="DROP_D_LABEL">
	<g>
		<g>
			<path fill="#FFFFFF" d="M0.729,13.118V0.846h2.562c0.818,0,1.492,0.073,2.022,0.223c0.529,0.146,0.945,0.39,1.248,0.729
				C6.865,2.135,7.074,2.541,7.19,3.014C7.305,3.486,7.364,4.089,7.364,4.82v4.021c0,0.438-0.014,0.817-0.041,1.144
				c-0.027,0.325-0.079,0.644-0.153,0.954c-0.075,0.312-0.177,0.574-0.307,0.791c-0.129,0.216-0.296,0.416-0.501,0.604
				s-0.451,0.334-0.74,0.443c-0.289,0.108-0.627,0.192-1.016,0.252s-0.835,0.089-1.339,0.089H0.729z M3.306,11.38
				c0.236,0,0.424-0.004,0.56-0.011c0.137-0.007,0.272-0.023,0.409-0.051c0.136-0.028,0.235-0.065,0.3-0.112
				c0.062-0.048,0.123-0.117,0.177-0.208s0.089-0.199,0.105-0.324c0.016-0.125,0.023-0.279,0.023-0.467V3.6
				c0-0.404-0.121-0.672-0.36-0.804c-0.241-0.132-0.646-0.2-1.215-0.205L3.306,11.38L3.306,11.38z"/>
			<path fill="#FFFFFF" d="M7.968,13.118V0.846h2.7c0.613,0,1.153,0.059,1.619,0.174c0.466,0.115,0.874,0.298,1.224,0.545
				c0.351,0.248,0.616,0.582,0.798,1.003c0.182,0.42,0.272,0.924,0.272,1.51c0,0.255-0.009,0.482-0.027,0.682
				c-0.018,0.2-0.061,0.429-0.126,0.687c-0.065,0.257-0.155,0.483-0.27,0.682s-0.277,0.393-0.491,0.583
				C13.454,6.9,13.202,7.06,12.911,7.187c0.736,2.336,1.377,4.313,1.922,5.932h-2.57l-1.403-5.652H10.45v5.652L7.968,13.118
				L7.968,13.118z M10.45,5.952h0.709c0.191,0,0.354-0.063,0.491-0.19c0.137-0.128,0.234-0.289,0.297-0.483
				c0.062-0.195,0.104-0.375,0.129-0.539c0.025-0.163,0.038-0.317,0.038-0.463s-0.01-0.296-0.031-0.45
				c-0.021-0.154-0.057-0.326-0.108-0.515c-0.053-0.189-0.14-0.344-0.26-0.464c-0.12-0.12-0.267-0.181-0.439-0.181H10.45V5.952z"/>
			<path fill="#FFFFFF" d="M14.762,9.082V4.957c0-2.9,1.195-4.351,3.587-4.351c2.396,0,3.593,1.45,3.593,4.351V9.02
				c0,0.491-0.037,0.944-0.109,1.36s-0.197,0.812-0.372,1.183c-0.175,0.373-0.396,0.69-0.668,0.951
				c-0.271,0.262-0.613,0.467-1.025,0.617c-0.413,0.15-0.887,0.225-1.418,0.225c-0.527,0-0.998-0.072-1.412-0.222
				c-0.414-0.146-0.754-0.348-1.022-0.6s-0.49-0.562-0.665-0.927c-0.175-0.366-0.3-0.756-0.375-1.17
				C14.8,10.025,14.762,9.572,14.762,9.082z M19.46,9.641V4.336c0-1.209-0.371-1.813-1.11-1.813c-0.224,0-0.412,0.056-0.566,0.167
				c-0.155,0.111-0.27,0.264-0.341,0.457C17.37,3.34,17.318,3.53,17.289,3.72c-0.029,0.188-0.044,0.395-0.044,0.616v5.305
				c0,1.205,0.368,1.808,1.104,1.808C19.09,11.447,19.46,10.846,19.46,9.641z"/>
			<path fill="#FFFFFF" d="M22.546,13.118V0.846h2.966c1.068,0,1.847,0.298,2.332,0.894c0.486,0.596,0.729,1.457,0.729,2.584
				c0,0.555-0.054,1.037-0.16,1.446c-0.107,0.409-0.256,0.746-0.447,1.012c-0.19,0.267-0.436,0.479-0.735,0.642
				c-0.301,0.161-0.625,0.274-0.976,0.341c-0.35,0.065-0.754,0.102-1.213,0.105v5.25L22.546,13.118L22.546,13.118z M25.049,6.116
				c0.132,0,0.249-0.008,0.352-0.024c0.102-0.016,0.191-0.034,0.269-0.055c0.078-0.021,0.146-0.058,0.205-0.112
				c0.06-0.054,0.108-0.103,0.147-0.143c0.039-0.041,0.07-0.108,0.099-0.201c0.027-0.094,0.048-0.17,0.062-0.229
				c0.015-0.06,0.024-0.154,0.031-0.287c0.007-0.131,0.01-0.237,0.01-0.316c0-0.08,0-0.203,0-0.372c0-0.045,0-0.079,0-0.102
				c0-0.178-0.001-0.312-0.003-0.402c-0.002-0.091-0.01-0.207-0.023-0.348c-0.015-0.142-0.036-0.247-0.065-0.317
				C26.1,3.138,26.056,3.057,26,2.966s-0.126-0.157-0.208-0.197c-0.082-0.041-0.186-0.077-0.311-0.109
				c-0.125-0.032-0.27-0.048-0.434-0.048L25.049,6.116L25.049,6.116z"/>
			<path fill="#FFFFFF" d="M30.914,13.118V0.846h2.563c0.817,0,1.491,0.073,2.021,0.223c0.529,0.146,0.945,0.391,1.248,0.729
				c0.302,0.338,0.511,0.744,0.627,1.217c0.116,0.474,0.174,1.075,0.174,1.808v4.021c0,0.438-0.014,0.817-0.041,1.144
				c-0.026,0.326-0.079,0.644-0.152,0.953c-0.075,0.312-0.178,0.575-0.308,0.791c-0.129,0.217-0.296,0.418-0.501,0.604
				s-0.451,0.334-0.74,0.443c-0.288,0.108-0.627,0.192-1.016,0.252c-0.388,0.06-0.835,0.089-1.339,0.089L30.914,13.118
				L30.914,13.118z M33.491,11.38c0.236,0,0.423-0.004,0.559-0.011c0.138-0.007,0.273-0.023,0.409-0.051
				c0.136-0.028,0.236-0.065,0.3-0.112c0.063-0.048,0.123-0.117,0.178-0.208c0.054-0.091,0.089-0.199,0.104-0.324
				s0.024-0.279,0.024-0.467V3.6c0-0.404-0.121-0.672-0.361-0.804c-0.241-0.132-0.646-0.2-1.214-0.205L33.491,11.38L33.491,11.38z"
				/>
			<path fill="#FFFFFF" d="M39.475,13.118V9.062L37.17,0.846h2.339l1.146,5.394c0.141-0.591,0.353-1.489,0.634-2.696
				s0.491-2.105,0.627-2.696h2.271l-2.312,8.216v4.057h-2.398V13.118z"/>
			<path fill="#FFFFFF" d="M44.211,13.118V0.839h1.787l2.693,6.423V0.839h2.059v12.279h-1.718l-2.687-6.812v6.812H44.211z"/>
			<path fill="#FFFFFF" d="M50.842,13.118l2.652-12.272h2.195l2.646,12.272h-2.448l-0.505-2.625H53.78l-0.478,2.625H50.842z
				 M53.951,8.966h1.268l-0.619-4.555L53.951,8.966z"/>
			<path fill="#FFFFFF" d="M58.005,9.605l2.517-0.482c0,0.25,0.004,0.47,0.014,0.661c0.009,0.19,0.033,0.397,0.071,0.624
				c0.039,0.225,0.091,0.408,0.156,0.552s0.159,0.265,0.279,0.361s0.263,0.146,0.426,0.146c0.491,0,0.736-0.312,0.736-0.939
				c0-0.859-0.484-1.714-1.452-2.563l-0.771-0.655c-0.246-0.204-0.441-0.375-0.586-0.511c-0.146-0.137-0.317-0.32-0.516-0.553
				c-0.198-0.231-0.353-0.455-0.464-0.671c-0.111-0.216-0.207-0.478-0.286-0.781c-0.08-0.305-0.12-0.627-0.12-0.968
				c0-0.996,0.316-1.783,0.948-2.362c0.632-0.58,1.471-0.87,2.517-0.87c0.867,0,1.605,0.311,2.216,0.928
				c0.608,0.618,0.914,1.363,0.914,2.236l-0.008,0.089c0,0.06,0,0.127,0,0.204l-2.562,0.354c0-0.05,0.003-0.128,0.01-0.235
				c0.007-0.106,0.01-0.194,0.01-0.262c0-0.164-0.012-0.321-0.033-0.471c-0.023-0.15-0.062-0.3-0.112-0.45
				c-0.053-0.15-0.133-0.271-0.242-0.358s-0.241-0.133-0.396-0.133c-0.273,0-0.479,0.107-0.614,0.32
				c-0.136,0.214-0.205,0.467-0.205,0.757c0,0.255,0.04,0.494,0.12,0.717c0.079,0.223,0.2,0.431,0.36,0.623
				c0.161,0.193,0.311,0.354,0.446,0.481c0.137,0.127,0.318,0.282,0.545,0.467c0.229,0.184,0.39,0.318,0.484,0.404
				c0.35,0.311,0.646,0.601,0.886,0.869c0.241,0.271,0.468,0.576,0.683,0.918c0.213,0.341,0.373,0.709,0.479,1.104
				c0.106,0.395,0.16,0.822,0.16,1.281c0,0.858-0.307,1.562-0.92,2.109s-1.359,0.821-2.236,0.821c-0.567,0-1.073-0.104-1.514-0.313
				c-0.441-0.209-0.797-0.492-1.067-0.853c-0.271-0.358-0.479-0.757-0.624-1.192C58.112,10.575,58.028,10.105,58.005,9.605z"/>
			<path fill="#FFFFFF" d="M66.075,13.118V2.7h-1.8V0.846h6.048V2.7h-1.767v10.418H66.075z"/>
			<path fill="#FFFFFF" d="M72.018,13.118V9.062l-2.306-8.216h2.339l1.146,5.394c0.141-0.591,0.353-1.489,0.634-2.696
				s0.491-2.105,0.627-2.696h2.271l-2.312,8.216v4.057h-2.398V13.118z"/>
			<path fill="#FFFFFF" d="M77.923,13.118l3.765-11.734h0.988l-3.771,11.734H77.923z"/>
			<path fill="#FFFFFF" d="M81.664,13.118l3.764-11.734h0.989l-3.771,11.734H81.664z"/>
			<path fill="#FFFFFF" d="M90.737,13.118V1.384h3.129c0.396,0,0.743,0.055,1.043,0.164c0.3,0.109,0.542,0.253,0.727,0.433
				c0.186,0.18,0.333,0.402,0.446,0.668c0.114,0.267,0.192,0.541,0.235,0.825c0.043,0.284,0.064,0.6,0.064,0.944
				c0,1.496-0.546,2.443-1.637,2.844l1.814,5.856h-1.104L93.744,7.39h-1.971v5.729H90.737z M91.773,6.559h2.086
				c0.295,0,0.545-0.059,0.75-0.177s0.357-0.286,0.46-0.505c0.102-0.218,0.174-0.445,0.214-0.682
				c0.041-0.236,0.062-0.507,0.062-0.812c0-0.25-0.013-0.475-0.038-0.675c-0.024-0.2-0.069-0.396-0.136-0.586
				c-0.065-0.191-0.152-0.352-0.263-0.481c-0.109-0.129-0.252-0.232-0.429-0.31c-0.178-0.078-0.385-0.116-0.621-0.116h-2.086
				L91.773,6.559L91.773,6.559z"/>
			<path fill="#FFFFFF" d="M97.314,13.118V1.384h4.091v0.832H98.35v4.445h2.182v0.784H98.35v4.841h3.055v0.832H97.314z"/>
			<path fill="#FFFFFF" d="M101.818,9.716V4.8c0-0.418,0.026-0.798,0.082-1.139c0.055-0.341,0.15-0.666,0.29-0.975
				c0.139-0.31,0.316-0.569,0.535-0.781c0.218-0.211,0.496-0.378,0.835-0.501c0.338-0.122,0.729-0.185,1.176-0.185
				c1.836,0,2.755,1.193,2.755,3.579v0.479h-0.989V4.568c0-0.377-0.027-0.712-0.085-1.003c-0.057-0.29-0.15-0.553-0.283-0.787
				c-0.132-0.234-0.314-0.413-0.549-0.538c-0.233-0.125-0.517-0.188-0.849-0.188c-0.3,0-0.562,0.042-0.784,0.126
				s-0.403,0.198-0.542,0.344s-0.25,0.327-0.334,0.546c-0.084,0.218-0.142,0.445-0.174,0.685s-0.048,0.511-0.048,0.815v5.379
				c0,0.387,0.026,0.722,0.082,1.006c0.055,0.284,0.148,0.546,0.282,0.784c0.135,0.239,0.329,0.421,0.583,0.546
				c0.256,0.125,0.566,0.188,0.935,0.188c0.332,0,0.615-0.062,0.849-0.188c0.234-0.125,0.417-0.307,0.549-0.542
				c0.133-0.236,0.227-0.5,0.283-0.791c0.058-0.291,0.085-0.625,0.085-1.003V9.144h0.989v0.572c0,0.414-0.025,0.791-0.075,1.132
				c-0.05,0.342-0.14,0.667-0.27,0.979c-0.129,0.312-0.296,0.571-0.501,0.784c-0.205,0.211-0.469,0.38-0.791,0.505
				c-0.323,0.124-0.695,0.188-1.118,0.188c-0.455,0-0.854-0.062-1.196-0.188c-0.343-0.125-0.623-0.294-0.839-0.505
				c-0.216-0.213-0.391-0.474-0.525-0.784c-0.134-0.312-0.228-0.638-0.279-0.976C101.844,10.513,101.818,10.134,101.818,9.716z"/>
			<path fill="#FFFFFF" d="M108.156,9.716V4.8c0-0.413,0.031-0.793,0.092-1.139c0.062-0.345,0.165-0.671,0.312-0.979
				c0.146-0.307,0.329-0.564,0.552-0.776c0.223-0.211,0.507-0.378,0.852-0.501c0.347-0.122,0.741-0.185,1.188-0.185
				c0.444,0,0.841,0.062,1.187,0.185c0.345,0.123,0.629,0.29,0.853,0.501c0.223,0.212,0.406,0.471,0.552,0.776
				c0.146,0.309,0.249,0.634,0.31,0.979c0.062,0.346,0.093,0.726,0.093,1.139v4.916c0,2.392-0.998,3.587-2.993,3.587
				C109.153,13.303,108.156,12.105,108.156,9.716z M113.105,9.947V4.568c0-1.679-0.652-2.517-1.957-2.517
				c-1.306,0-1.957,0.838-1.957,2.517v5.379c0,1.683,0.651,2.522,1.957,2.522C112.453,12.47,113.105,11.63,113.105,9.947z"/>
			<path fill="#FFFFFF" d="M115.217,13.118V1.384h3.129c0.396,0,0.743,0.055,1.043,0.164c0.301,0.109,0.542,0.253,0.728,0.433
				c0.185,0.18,0.333,0.402,0.446,0.668c0.113,0.267,0.191,0.541,0.234,0.825c0.043,0.284,0.065,0.6,0.065,0.944
				c0,1.496-0.546,2.443-1.637,2.844l1.813,5.856h-1.104l-1.711-5.729h-1.972v5.729H115.217z M116.253,6.559h2.086
				c0.295,0,0.545-0.059,0.75-0.177s0.358-0.286,0.46-0.505c0.103-0.218,0.174-0.445,0.214-0.682
				c0.041-0.236,0.062-0.507,0.062-0.812c0-0.25-0.013-0.475-0.038-0.675s-0.07-0.396-0.136-0.586
				c-0.066-0.191-0.153-0.352-0.264-0.481c-0.108-0.129-0.252-0.232-0.429-0.31s-0.384-0.116-0.621-0.116h-2.086L116.253,6.559
				L116.253,6.559z"/>
			<path fill="#FFFFFF" d="M121.793,13.118V1.384h2.639c0.445,0,0.842,0.062,1.187,0.181c0.346,0.121,0.631,0.284,0.856,0.491
				c0.225,0.207,0.408,0.46,0.552,0.76c0.143,0.301,0.245,0.619,0.307,0.955c0.062,0.336,0.092,0.707,0.092,1.111v4.772
				c0,2.31-0.998,3.464-2.992,3.464H121.793z M122.83,12.286h1.604c1.304,0,1.956-0.8,1.956-2.399V4.65
				c0-1.623-0.651-2.435-1.956-2.435h-1.604V12.286z"/>
			<path fill="#FFFFFF" d="M128.493,13.118V1.384h1.036v11.734H128.493z"/>
			<path fill="#FFFFFF" d="M130.829,13.118V1.384h0.797l3.716,9.294V1.384h0.879v11.734h-0.776l-3.724-9.096v9.096H130.829z"/>
			<path fill="#FFFFFF" d="M137.297,9.839V4.861c0-2.428,1.029-3.642,3.088-3.642c0.328,0,0.624,0.036,0.891,0.108
				c0.266,0.073,0.491,0.172,0.675,0.297s0.345,0.285,0.484,0.48c0.139,0.196,0.249,0.398,0.33,0.607
				c0.082,0.209,0.147,0.453,0.198,0.732c0.05,0.28,0.084,0.551,0.103,0.812c0.018,0.262,0.026,0.554,0.026,0.876v0.082h-1.037
				V5.127c0-0.018,0-0.048,0-0.088c0-0.332-0.003-0.583-0.01-0.754c-0.007-0.17-0.023-0.396-0.051-0.675
				c-0.027-0.279-0.078-0.493-0.15-0.642c-0.072-0.147-0.168-0.303-0.287-0.464c-0.118-0.161-0.276-0.277-0.477-0.348
				c-0.2-0.07-0.437-0.105-0.709-0.105c-0.382,0-0.709,0.064-0.981,0.193c-0.272,0.13-0.483,0.311-0.634,0.543
				c-0.149,0.231-0.258,0.481-0.324,0.75c-0.065,0.268-0.099,0.563-0.099,0.886v5.864c0,0.3,0.027,0.569,0.082,0.808
				c0.055,0.239,0.149,0.467,0.283,0.687c0.134,0.218,0.335,0.387,0.604,0.508c0.269,0.12,0.599,0.181,0.989,0.181
				c0.359,0,0.666-0.062,0.92-0.19c0.254-0.127,0.445-0.302,0.573-0.521c0.127-0.221,0.217-0.448,0.269-0.686
				c0.053-0.236,0.079-0.497,0.079-0.783V8.305h-1.438V7.521h2.475v5.598h-0.457l-0.307-1.146c-0.155,0.404-0.429,0.729-0.822,0.969
				c-0.393,0.24-0.829,0.361-1.306,0.361c-0.313,0-0.602-0.029-0.862-0.086c-0.262-0.057-0.488-0.131-0.679-0.222
				c-0.191-0.091-0.362-0.208-0.516-0.351c-0.151-0.145-0.276-0.285-0.375-0.428c-0.098-0.141-0.183-0.304-0.256-0.49
				c-0.072-0.186-0.127-0.354-0.164-0.505c-0.036-0.149-0.063-0.319-0.085-0.512c-0.021-0.19-0.033-0.345-0.038-0.463
				C137.299,10.13,137.297,9.993,137.297,9.839z"/>
			<path fill="#FFFFFF" d="M146.304,13.118V1.384h2.87c0.409,0,0.773,0.056,1.092,0.167c0.317,0.111,0.581,0.263,0.79,0.454
				c0.21,0.19,0.383,0.423,0.52,0.695c0.136,0.271,0.233,0.56,0.29,0.862s0.085,0.629,0.085,0.979c0,0.359-0.024,0.69-0.072,0.995
				c-0.048,0.305-0.136,0.607-0.266,0.907c-0.129,0.3-0.295,0.554-0.498,0.76c-0.202,0.207-0.469,0.375-0.801,0.505
				s-0.713,0.194-1.146,0.194h-1.827v5.216H146.304z M147.341,7.07l1.95,0.007c0.582,0.005,0.998-0.196,1.248-0.604
				c0.25-0.406,0.375-1.044,0.375-1.912c0-0.81-0.134-1.402-0.402-1.779c-0.268-0.378-0.675-0.566-1.22-0.566h-1.95L147.341,7.07
				L147.341,7.07z"/>
			<path fill="#FFFFFF" d="M152.452,13.118V1.384h3.129c0.396,0,0.743,0.055,1.043,0.164c0.3,0.109,0.542,0.253,0.728,0.433
				c0.185,0.18,0.333,0.402,0.445,0.668c0.114,0.267,0.192,0.541,0.235,0.825c0.043,0.284,0.064,0.6,0.064,0.944
				c0,1.496-0.546,2.443-1.637,2.844l1.814,5.856h-1.104l-1.711-5.729h-1.971v5.729H152.452z M153.488,6.559h2.086
				c0.295,0,0.545-0.059,0.75-0.177s0.358-0.286,0.46-0.505c0.102-0.218,0.174-0.445,0.214-0.682
				c0.041-0.236,0.062-0.507,0.062-0.812c0-0.25-0.014-0.475-0.038-0.675c-0.025-0.2-0.07-0.396-0.137-0.586
				c-0.065-0.191-0.152-0.352-0.263-0.481c-0.109-0.129-0.252-0.232-0.429-0.31s-0.384-0.116-0.621-0.116h-2.086L153.488,6.559
				L153.488,6.559z"/>
			<path fill="#FFFFFF" d="M158.811,9.716V4.8c0-0.413,0.03-0.793,0.092-1.139c0.062-0.345,0.165-0.671,0.311-0.979
				c0.146-0.307,0.33-0.564,0.553-0.776c0.223-0.211,0.507-0.378,0.852-0.501c0.346-0.122,0.741-0.185,1.187-0.185
				s0.842,0.062,1.188,0.185c0.345,0.123,0.629,0.29,0.852,0.501c0.224,0.212,0.407,0.471,0.553,0.776
				c0.146,0.309,0.249,0.634,0.31,0.979c0.062,0.346,0.092,0.726,0.092,1.139v4.916c0,2.392-0.998,3.587-2.993,3.587
				C159.808,13.303,158.811,12.105,158.811,9.716z M163.76,9.947V4.568c0-1.679-0.651-2.517-1.957-2.517
				c-1.305,0-1.957,0.838-1.957,2.517v5.379c0,1.683,0.652,2.522,1.957,2.522C163.108,12.47,163.76,11.63,163.76,9.947z"/>
			<path fill="#FFFFFF" d="M164.958,13.118v-0.784c0.231,0,0.411-0.001,0.539-0.003c0.127-0.003,0.262-0.015,0.406-0.038
				c0.143-0.021,0.248-0.049,0.312-0.078c0.065-0.029,0.137-0.083,0.211-0.16c0.075-0.076,0.125-0.158,0.15-0.242
				s0.05-0.203,0.075-0.36c0.024-0.157,0.04-0.318,0.044-0.484s0.007-0.381,0.007-0.645V1.384h1.037v8.938
				c0,0.354-0.008,0.647-0.024,0.88c-0.016,0.231-0.05,0.464-0.103,0.694c-0.052,0.232-0.128,0.416-0.229,0.55
				c-0.1,0.135-0.232,0.257-0.398,0.368c-0.166,0.11-0.372,0.189-0.617,0.234c-0.246,0.046-0.537,0.068-0.873,0.068L164.958,13.118
				L164.958,13.118z"/>
			<path fill="#FFFFFF" d="M169.032,13.118V1.384h4.091v0.832h-3.055v4.445h2.182v0.784h-2.182v4.841h3.055v0.832H169.032z"/>
			<path fill="#FFFFFF" d="M173.536,9.716V4.8c0-0.418,0.027-0.798,0.082-1.139s0.151-0.666,0.29-0.975
				c0.139-0.31,0.317-0.569,0.535-0.781c0.218-0.211,0.497-0.378,0.835-0.501c0.338-0.122,0.729-0.185,1.176-0.185
				c1.836,0,2.755,1.193,2.755,3.579v0.479h-0.989V4.568c0-0.377-0.027-0.712-0.085-1.003c-0.057-0.29-0.15-0.553-0.282-0.787
				c-0.133-0.234-0.315-0.413-0.55-0.538c-0.233-0.125-0.517-0.188-0.849-0.188c-0.3,0-0.562,0.042-0.784,0.126
				c-0.222,0.084-0.402,0.198-0.542,0.344c-0.139,0.146-0.25,0.327-0.334,0.546c-0.084,0.218-0.142,0.445-0.174,0.685
				s-0.048,0.511-0.048,0.815v5.379c0,0.387,0.026,0.722,0.082,1.006c0.055,0.284,0.148,0.546,0.283,0.784
				c0.134,0.239,0.329,0.421,0.583,0.546c0.255,0.125,0.565,0.188,0.934,0.188c0.332,0,0.615-0.062,0.849-0.188
				c0.234-0.125,0.417-0.307,0.55-0.542c0.132-0.236,0.226-0.5,0.282-0.791c0.058-0.291,0.085-0.625,0.085-1.003V9.144h0.989v0.572
				c0,0.414-0.024,0.791-0.075,1.132c-0.05,0.342-0.14,0.667-0.27,0.979c-0.129,0.312-0.296,0.571-0.501,0.784
				c-0.205,0.211-0.468,0.38-0.791,0.505c-0.323,0.124-0.695,0.188-1.118,0.188c-0.455,0-0.854-0.062-1.196-0.188
				s-0.623-0.294-0.839-0.505c-0.216-0.213-0.391-0.474-0.524-0.784c-0.135-0.312-0.229-0.638-0.28-0.976
				C173.562,10.513,173.536,10.134,173.536,9.716z"/>
			<path fill="#FFFFFF" d="M181.135,13.118V2.216h-2.283V1.384h5.625v0.832h-2.305v10.902H181.135z"/>
			<path fill="#FFFFFF" d="M189.711,13.118V2.216h-2.284V1.384h5.625v0.832h-2.304v10.902H189.711z"/>
			<path fill="#FFFFFF" d="M192.927,10.234V1.384h1.036v9.089c0,0.674,0.152,1.174,0.457,1.504c0.305,0.329,0.818,0.494,1.541,0.494
				c0.683,0,1.168-0.166,1.459-0.498s0.437-0.832,0.437-1.5V1.384h1.029v8.852c0,2.045-0.975,3.067-2.925,3.067
				c-0.468,0-0.88-0.055-1.236-0.164c-0.357-0.108-0.647-0.256-0.873-0.438c-0.226-0.186-0.408-0.409-0.55-0.677
				c-0.141-0.266-0.238-0.543-0.293-0.83C192.954,10.903,192.927,10.584,192.927,10.234z"/>
			<path fill="#FFFFFF" d="M200.125,13.118V1.384h3.129c0.396,0,0.743,0.055,1.043,0.164c0.3,0.109,0.542,0.253,0.728,0.433
				c0.185,0.18,0.333,0.402,0.445,0.668c0.114,0.267,0.192,0.541,0.235,0.825c0.043,0.284,0.065,0.6,0.065,0.944
				c0,1.496-0.546,2.443-1.638,2.844l1.814,5.856h-1.104l-1.711-5.729h-1.971v5.729H200.125z M201.161,6.559h2.086
				c0.295,0,0.545-0.059,0.75-0.177s0.358-0.286,0.46-0.505c0.103-0.218,0.174-0.445,0.214-0.682
				c0.041-0.236,0.062-0.507,0.062-0.812c0-0.25-0.014-0.475-0.038-0.675c-0.025-0.2-0.07-0.396-0.136-0.586
				c-0.066-0.191-0.153-0.352-0.264-0.481c-0.108-0.129-0.252-0.232-0.429-0.31s-0.384-0.116-0.621-0.116h-2.086L201.161,6.559
				L201.161,6.559z"/>
			<path fill="#FFFFFF" d="M206.701,13.118V1.384h0.797l3.716,9.294V1.384h0.879v11.734h-0.776l-3.724-9.096v9.096H206.701z"/>
			<path fill="#FFFFFF" d="M213.386,13.118V1.384h4.092v0.832h-3.056v4.445h2.183v0.784h-2.183v4.841h3.056v0.832H213.386z"/>
			<path fill="#FFFFFF" d="M218.11,13.118V1.384h2.639c0.445,0,0.841,0.062,1.187,0.181c0.346,0.121,0.631,0.284,0.855,0.491
				c0.226,0.207,0.409,0.46,0.552,0.76c0.144,0.301,0.245,0.619,0.308,0.955c0.062,0.336,0.092,0.707,0.092,1.111v4.772
				c0,2.31-0.998,3.464-2.993,3.464H218.11z M219.146,12.286h1.603c1.304,0,1.957-0.8,1.957-2.399V4.65
				c0-1.623-0.652-2.435-1.957-2.435h-1.603V12.286z"/>
			<path fill="#FFFFFF" d="M227.909,4.18h-1.261c0-1.104,0.057-1.861,0.17-2.273c0.113-0.411,0.366-0.643,0.757-0.691l0.184,0.375
				c-0.158,0.05-0.292,0.138-0.398,0.263c-0.107,0.125-0.182,0.266-0.223,0.422c-0.041,0.157-0.067,0.286-0.082,0.386
				c-0.014,0.1-0.021,0.2-0.021,0.3h0.873L227.909,4.18L227.909,4.18z M229.914,4.18h-1.262c0-1.104,0.057-1.861,0.17-2.273
				c0.114-0.411,0.366-0.643,0.757-0.691l0.184,0.375c-0.158,0.05-0.292,0.138-0.398,0.263s-0.181,0.266-0.221,0.422
				c-0.041,0.157-0.068,0.286-0.082,0.386c-0.015,0.1-0.021,0.2-0.021,0.3h0.873L229.914,4.18L229.914,4.18z"/>
			<path fill="#FFFFFF" d="M230.947,13.118V1.384h2.521c0.405,0,0.765,0.058,1.077,0.171c0.314,0.113,0.568,0.265,0.765,0.45
				c0.195,0.187,0.355,0.411,0.48,0.675c0.125,0.265,0.211,0.531,0.259,0.806c0.049,0.271,0.072,0.564,0.072,0.879
				c0,0.486-0.112,0.962-0.337,1.426c-0.225,0.463-0.535,0.786-0.931,0.968c0.276,0.113,0.518,0.28,0.723,0.501
				c0.205,0.221,0.361,0.467,0.47,0.74c0.109,0.272,0.189,0.544,0.239,0.814c0.05,0.271,0.075,0.54,0.075,0.808
				c0,0.409-0.021,0.771-0.059,1.084c-0.039,0.314-0.115,0.629-0.231,0.943c-0.116,0.316-0.27,0.576-0.46,0.781
				c-0.191,0.204-0.45,0.37-0.777,0.498c-0.327,0.127-0.714,0.19-1.159,0.19H230.947z M231.983,6.423h1.664
				c0.255,0,0.473-0.056,0.654-0.167c0.183-0.111,0.323-0.266,0.424-0.464c0.1-0.197,0.172-0.412,0.218-0.645
				c0.045-0.231,0.067-0.486,0.067-0.764c0-1.473-0.559-2.209-1.677-2.209h-1.35L231.983,6.423L231.983,6.423z M231.983,12.327
				h1.854c0.236,0,0.443-0.049,0.621-0.146c0.178-0.097,0.32-0.226,0.43-0.385s0.196-0.358,0.263-0.601
				c0.065-0.242,0.11-0.486,0.137-0.736c0.025-0.25,0.037-0.529,0.037-0.839c0-0.277-0.011-0.524-0.034-0.743
				c-0.022-0.218-0.067-0.434-0.133-0.647c-0.066-0.213-0.152-0.392-0.259-0.535c-0.107-0.145-0.25-0.258-0.431-0.345
				c-0.18-0.086-0.39-0.129-0.631-0.129h-1.854V12.327z"/>
			<path fill="#FFFFFF" d="M237.456,13.118h-1.043l2.318-11.734h1.35l2.318,11.734h-1.051l-0.586-3.056h-2.707L237.456,13.118z
				 M238.177,9.375h2.455l-1.233-6.914L238.177,9.375z"/>
			<path fill="#FFFFFF" d="M243.016,13.118V1.384h0.798l3.716,9.294V1.384h0.88v11.734h-0.777l-3.723-9.096v9.096H243.016z"/>
			<path fill="#FFFFFF" d="M249.701,13.118V1.384h2.639c0.445,0,0.841,0.062,1.188,0.181c0.346,0.121,0.631,0.284,0.854,0.491
				c0.227,0.207,0.409,0.46,0.554,0.76c0.144,0.301,0.244,0.619,0.307,0.955c0.062,0.336,0.092,0.707,0.092,1.111v4.772
				c0,2.31-0.997,3.464-2.993,3.464H249.701z M250.738,12.286h1.602c1.306,0,1.957-0.8,1.957-2.399V4.65
				c0-1.623-0.651-2.435-1.957-2.435h-1.602V12.286z"/>
			<path fill="#FFFFFF" d="M256.427,4.35l-0.184-0.375c0.159-0.05,0.292-0.137,0.398-0.262s0.181-0.267,0.222-0.423
				c0.041-0.157,0.068-0.285,0.082-0.386s0.021-0.2,0.021-0.3h-0.873v-1.22h1.263c0,1.104-0.058,1.863-0.171,2.274
				C257.071,4.069,256.819,4.3,256.427,4.35z M258.433,4.35l-0.186-0.375c0.159-0.05,0.292-0.137,0.399-0.262
				c0.105-0.125,0.181-0.267,0.222-0.423c0.041-0.157,0.068-0.285,0.082-0.386s0.021-0.2,0.021-0.3h-0.872v-1.22h1.261
				c0,1.104-0.058,1.863-0.17,2.274C259.077,4.069,258.823,4.3,258.433,4.35z"/>
		</g>
	</g>
</g>
</svg>
