<?xml version="1.0" encoding="utf-8"?>
<!-- Generator: Adobe Illustrator 16.0.0, SVG Export Plug-In . SVG Version: 6.00 Build 0)  -->
<!DOCTYPE svg PUBLIC "-//W3C//DTD SVG 1.1//EN" "http://www.w3.org/Graphics/SVG/1.1/DTD/svg11.dtd">
<svg version="1.1" id="Layer_1" xmlns="http://www.w3.org/2000/svg" xmlns:xlink="http://www.w3.org/1999/xlink" x="0px" y="0px"
	 width="34.908px" height="34.908px" viewBox="0 0 34.908 34.908" enable-background="new 0 0 34.908 34.908" xml:space="preserve">
<g id="ART_DIRECTOR_x2C___2ND_ANNUAL__x201C_EASTER_AT_THE_PAGEANT_x201D____x2F__x2F__THE_GATHERING">
	<g opacity="0.85">
		<g>
			<path fill="#FFFFFF" d="M34.908,17.455c0,9.641-7.812,17.453-17.455,17.453C7.814,34.908,0,27.096,0,17.455
				C0,7.816,7.814,0,17.453,0C27.096,0,34.908,7.816,34.908,17.455z"/>
			<g>
				<path fill="#5CBB58" d="M28.654,9.95c0,0.657,0,1.314,0,1.973c-1.918,1.274-3.812,2.714-5.736,4.041
					c-0.43,0.296-1.475,1.22-2.021,1.238c-0.445,0.017-1.021-0.366-1.332-0.598c-0.533-0.397-1.654-1.45-1.605-2.339
					c0.021-0.37,0.42-0.77,0.688-1.146c1.361-1.918,2.457-3.462,3.812-5.37c0.289-0.407,1.105-1.93,1.742-1.93
					c0.455,0,0.852,0.577,1.195,0.918C26.506,7.848,27.711,9.021,28.654,9.95z"/>
				<path fill="#5CBB58" d="M20.394,19.269c0.047,4.188-1.043,6.819-3.765,8.217c-2.645,1.357-6.334,1.541-10.373,1.605
					c-0.021-0.177,0.188-0.195,0.275-0.275c0.881-0.802,1.57-1.783,1.928-3.213c0.393-1.578,0.342-3.389,0.963-4.865
					c1.098-2.611,3.975-4.002,6.748-4.957c0.566-0.195,0.838,0.479,1.148,0.918C18.123,17.846,19.396,18.543,20.394,19.269z"/>
			</g>
		</g>
	</g>
</g>
</svg>
