<?xml version="1.0" encoding="utf-8"?>
<!-- Generator: Adobe Illustrator 16.0.0, SVG Export Plug-In . SVG Version: 6.00 Build 0)  -->
<!DOCTYPE svg PUBLIC "-//W3C//DTD SVG 1.1//EN" "http://www.w3.org/Graphics/SVG/1.1/DTD/svg11.dtd">
<svg version="1.1" id="Layer_1" xmlns="http://www.w3.org/2000/svg" xmlns:xlink="http://www.w3.org/1999/xlink" x="0px" y="0px"
	 width="229.458px" height="426.07px" viewBox="-200.642 -393.759 229.458 426.07"
	 enable-background="new -200.642 -393.759 229.458 426.07" xml:space="preserve">
<g id="DAD">
	<g>
		<g opacity="0.5">
			<g>
				<path fill="#A79C00" d="M26.807,6.729c-3.268-6.215-9.754-9.639-16.334-9.308l-195.344-391.154l-15.771-0.026L-2.34,3.321h0.596
					C-6.385,8.597-7.555,16.389-4.09,22.978c4.486,8.532,15.041,11.812,23.571,7.324C28.017,25.815,31.293,15.262,26.807,6.729z
					 M22.836,22.996l-9.742-0.677l0.013,6.207l-3.167,0.007l-0.014-6.437l-6.65-0.462l-2.967-2.771l3.556-2.315l6.053,0.421
					l-0.008-4.119L0,12.165l3.553-2.318L0.586,7.079l9.311,0.646l-0.01-4.548L13.049,0l0.017,7.944l7.084,0.492l2.97,2.771
					l-3.556,2.317l-6.485-0.451l0.008,4.117l10.34,0.719l-3.555,2.318L22.836,22.996z"/>
			</g>
		</g>
		<g opacity="0.75">
			<g>
				<polygon fill="#FFFFFF" points="19.869,20.228 23.424,17.909 13.084,17.19 13.076,13.073 19.562,13.524 23.117,11.207 
					20.147,8.437 13.063,7.944 13.049,0 9.887,3.177 9.896,7.725 0.586,7.079 3.553,9.847 0,12.165 9.906,12.853 9.914,16.972 
					3.861,16.551 0.307,18.866 3.273,21.637 9.924,22.099 9.938,28.533 13.104,28.526 13.094,22.319 22.836,22.996 				"/>
			</g>
		</g>
	</g>
</g>
</svg>
