<?xml version="1.0" encoding="utf-8"?>
<!-- Generator: Adobe Illustrator 16.0.0, SVG Export Plug-In . SVG Version: 6.00 Build 0)  -->
<!DOCTYPE svg PUBLIC "-//W3C//DTD SVG 1.1//EN" "http://www.w3.org/Graphics/SVG/1.1/DTD/svg11.dtd">
<svg version="1.1" id="Layer_1" xmlns="http://www.w3.org/2000/svg" xmlns:xlink="http://www.w3.org/1999/xlink" x="0px" y="0px"
	 width="129.421px" height="17.918px" viewBox="0 0 129.421 17.918" enable-background="new 0 0 129.421 17.918"
	 xml:space="preserve">
<g id="FILM_LABEL">
	<g>
		<g>
			<path fill="#FFFFFF" d="M0.729,13.118V0.846h5.12V2.55H3.211v3.341h1.868v1.746H3.211v5.481H0.729z"/>
			<path fill="#FFFFFF" d="M5.867,13.118V0.846h2.7c0.613,0,1.153,0.059,1.619,0.174c0.466,0.115,0.874,0.298,1.224,0.545
				c0.351,0.248,0.616,0.582,0.798,1.003c0.182,0.42,0.272,0.924,0.272,1.51c0,0.255-0.009,0.482-0.027,0.682
				c-0.018,0.2-0.06,0.429-0.126,0.687c-0.065,0.257-0.155,0.483-0.269,0.682s-0.277,0.393-0.491,0.583
				C11.354,6.9,11.102,7.06,10.811,7.187c0.736,2.336,1.377,4.313,1.923,5.932h-2.57L8.758,7.466H8.349v5.652H5.867z M8.349,5.952
				h0.71c0.19,0,0.354-0.063,0.49-0.19c0.137-0.128,0.235-0.289,0.297-0.483c0.062-0.195,0.104-0.375,0.13-0.539
				C10,4.575,10.013,4.421,10.013,4.275s-0.01-0.296-0.03-0.45c-0.02-0.154-0.058-0.326-0.11-0.514
				C9.82,3.122,9.734,2.967,9.614,2.847c-0.121-0.12-0.269-0.181-0.44-0.181H8.349V5.952z"/>
			<path fill="#FFFFFF" d="M12.819,13.118V0.846h5.12V2.55H15.3v3.341h1.868v1.746H15.3v3.777h2.639v1.704H12.819z"/>
			<path fill="#FFFFFF" d="M18.128,13.118V0.846h5.12V2.55h-2.639v3.341h1.868v1.746h-1.868v3.777h2.639v1.704H18.128z"/>
			<path fill="#FFFFFF" d="M23.437,13.118V0.846h2.481v10.568h2.441v1.704H23.437z"/>
			<path fill="#FFFFFF" d="M27.784,13.118l2.652-12.272h2.195l2.646,12.272h-2.448l-0.504-2.625h-1.604l-0.478,2.625H27.784z
				 M30.894,8.966h1.268l-0.62-4.555L30.894,8.966z"/>
			<path fill="#FFFFFF" d="M35.37,13.118V0.839h1.786l2.693,6.423V0.839h2.06v12.279H40.19l-2.687-6.812v6.812H35.37z"/>
			<path fill="#FFFFFF" d="M42.513,9.021V4.957c0-2.9,1.188-4.351,3.561-4.351c0.5,0,0.944,0.067,1.333,0.201
				c0.389,0.135,0.715,0.319,0.979,0.557c0.264,0.237,0.48,0.526,0.651,0.873c0.17,0.346,0.293,0.721,0.368,1.125
				c0.074,0.403,0.112,0.85,0.112,1.336v1.058h-2.441V4.623c0-0.223-0.004-0.415-0.014-0.576c-0.009-0.161-0.032-0.346-0.071-0.553
				s-0.091-0.375-0.157-0.504c-0.065-0.13-0.163-0.24-0.293-0.331c-0.129-0.091-0.285-0.137-0.467-0.137
				c-0.719,0-1.077,0.604-1.077,1.813v5.298c0,1.205,0.358,1.807,1.077,1.807c0.214,0,0.394-0.061,0.539-0.184
				c0.145-0.123,0.249-0.297,0.312-0.521c0.063-0.227,0.106-0.445,0.129-0.661c0.023-0.217,0.034-0.463,0.034-0.74V8.072h2.428
				v1.037c-0.01,0.468-0.048,0.899-0.116,1.295c-0.068,0.396-0.184,0.779-0.348,1.151c-0.164,0.373-0.371,0.688-0.624,0.944
				c-0.252,0.257-0.578,0.464-0.979,0.62c-0.399,0.157-0.858,0.235-1.377,0.235c-0.532,0-1.004-0.076-1.415-0.229
				c-0.411-0.151-0.75-0.356-1.016-0.613s-0.485-0.571-0.658-0.946c-0.173-0.375-0.294-0.771-0.364-1.185
				C42.548,9.971,42.513,9.516,42.513,9.021z"/>
			<path fill="#FFFFFF" d="M49.978,13.118V0.846h5.12V2.55h-2.639v3.341h1.868v1.746h-1.868v3.777h2.639v1.704H49.978z"/>
			<path fill="#FFFFFF" d="M56.455,13.118l3.763-11.734h0.989l-3.771,11.734H56.455z"/>
			<path fill="#FFFFFF" d="M60.195,13.118l3.763-11.734h0.989l-3.771,11.734H60.195z"/>
			<path fill="#FFFFFF" d="M69.269,13.118V1.384h4.125v0.832h-3.088v4.445h2.427v0.784h-2.427v5.673H69.269z"/>
			<path fill="#FFFFFF" d="M73.582,13.118V1.384h1.037v11.734H73.582z"/>
			<path fill="#FFFFFF" d="M75.917,13.118V1.384h1.037v10.902h3.279v0.832H75.917z"/>
			<path fill="#FFFFFF" d="M80.483,13.118V1.384h1.274l2.265,10.132c0.276-1.326,0.646-2.951,1.104-4.871
				c0.459-1.921,0.846-3.674,1.158-5.261h1.274v11.734h-0.921V3.729l-2.168,9.389h-0.898l-2.168-9.382v9.382H80.483z"/>
			<path fill="#FFFFFF" d="M99.458,12.286v0.928c-0.35-0.022-0.703-0.124-1.062-0.304s-0.664-0.415-0.914-0.706
				c-0.771,0.728-1.613,1.092-2.521,1.092c-0.832,0-1.457-0.205-1.871-0.614c-0.416-0.408-0.625-0.939-0.625-1.596
				c0-0.622,0.17-1.28,0.508-1.974c0.34-0.694,0.802-1.276,1.389-1.749c-0.938-1.55-1.404-2.745-1.404-3.586
				c0-0.759,0.219-1.375,0.654-1.849c0.436-0.473,1.021-0.709,1.752-0.709s1.305,0.203,1.719,0.61
				c0.412,0.407,0.619,0.942,0.619,1.607c0,0.623-0.193,1.292-0.576,2.008c-0.385,0.716-0.961,1.417-1.729,2.104l2.188,3.361
				c0.678-0.9,1.016-1.875,1.016-2.925h0.873c0,0.504-0.127,1.088-0.379,1.752c-0.252,0.663-0.594,1.271-1.025,1.827
				C98.505,12.046,98.968,12.286,99.458,12.286z M97.011,11.557l-2.242-3.442c-0.387,0.354-0.708,0.803-0.965,1.344
				c-0.258,0.541-0.387,1.05-0.387,1.527c0,0.448,0.131,0.812,0.389,1.084c0.26,0.271,0.662,0.409,1.207,0.409
				C95.687,12.479,96.353,12.171,97.011,11.557z M95.013,6.798c0.52-0.495,0.934-1.044,1.242-1.646
				c0.309-0.604,0.463-1.165,0.463-1.688c0-0.432-0.107-0.775-0.327-1.03c-0.218-0.254-0.552-0.381-1.003-0.381
				c-0.254,0-0.477,0.059-0.668,0.174c-0.189,0.115-0.336,0.267-0.436,0.453c-0.102,0.188-0.174,0.375-0.223,0.565
				c-0.049,0.191-0.07,0.382-0.07,0.573C93.992,4.659,94.332,5.652,95.013,6.798z"/>
			<path fill="#FFFFFF" d="M103.585,13.118l-2.521-11.734h1.117l2.08,10.507l1.99-10.507h1.119l-2.429,11.734H103.585z"/>
			<path fill="#FFFFFF" d="M107.742,13.118V1.384h1.037v11.734H107.742z"/>
			<path fill="#FFFFFF" d="M110.078,13.118V1.384h2.639c0.445,0,0.842,0.062,1.188,0.181c0.346,0.121,0.631,0.284,0.855,0.491
				c0.227,0.207,0.408,0.46,0.553,0.76c0.145,0.301,0.245,0.619,0.307,0.955c0.062,0.336,0.092,0.707,0.092,1.111v4.772
				c0,2.31-0.996,3.464-2.992,3.464H110.078z M111.115,12.286h1.602c1.306,0,1.957-0.8,1.957-2.399V4.65
				c0-1.623-0.651-2.435-1.957-2.435h-1.602V12.286z"/>
			<path fill="#FFFFFF" d="M116.785,13.118V1.384h4.09v0.832h-3.053v4.445h2.182v0.784h-2.182v4.841h3.053v0.832H116.785z"/>
			<path fill="#FFFFFF" d="M121.289,9.716V4.8c0-0.413,0.031-0.793,0.092-1.139c0.062-0.345,0.166-0.671,0.312-0.979
				c0.146-0.307,0.329-0.564,0.552-0.776c0.223-0.211,0.508-0.378,0.854-0.501c0.346-0.122,0.74-0.185,1.188-0.185
				c0.445,0,0.84,0.062,1.186,0.185c0.346,0.123,0.63,0.29,0.854,0.501c0.223,0.212,0.406,0.471,0.553,0.776
				c0.146,0.309,0.248,0.634,0.311,0.979c0.062,0.346,0.092,0.726,0.092,1.139v4.916c0,2.392-0.998,3.587-2.992,3.587
				C122.291,13.303,121.289,12.105,121.289,9.716z M126.24,9.947V4.568c0-1.679-0.652-2.517-1.957-2.517
				c-1.306,0-1.957,0.838-1.957,2.517v5.379c0,1.683,0.651,2.522,1.957,2.522C125.587,12.47,126.24,11.63,126.24,9.947z"/>
		</g>
	</g>
</g>
</svg>
