<?xml version="1.0" encoding="utf-8"?>
<!-- Generator: Adobe Illustrator 16.0.0, SVG Export Plug-In . SVG Version: 6.00 Build 0)  -->
<!DOCTYPE svg PUBLIC "-//W3C//DTD SVG 1.1//EN" "http://www.w3.org/Graphics/SVG/1.1/DTD/svg11.dtd">
<svg version="1.1" id="Layer_1" xmlns="http://www.w3.org/2000/svg" xmlns:xlink="http://www.w3.org/1999/xlink" x="0px" y="0px"
	 width="215.422px" height="17.918px" viewBox="0 0 215.422 17.918" enable-background="new 0 0 215.422 17.918"
	 xml:space="preserve">
<g id="GAH_LABEL">
	<g>
		<g>
			<path fill="#FFFFFF" d="M0.572,9.279V4.957c0-2.9,1.207-4.351,3.621-4.351c0.509,0,0.962,0.067,1.359,0.201
				c0.397,0.135,0.73,0.319,0.999,0.557C6.82,1.6,7.041,1.891,7.214,2.236c0.173,0.345,0.298,0.721,0.375,1.125
				c0.077,0.403,0.115,0.85,0.115,1.336v0.724H5.332V4.562c0-0.214-0.006-0.401-0.018-0.562c-0.01-0.162-0.039-0.342-0.085-0.54
				C5.184,3.263,5.123,3.1,5.046,2.973C4.968,2.846,4.857,2.739,4.711,2.653c-0.146-0.086-0.317-0.13-0.518-0.13
				c-0.76,0-1.14,0.604-1.14,1.813v5.298c0,1.205,0.379,1.808,1.14,1.808c0.754,0,1.132-0.625,1.132-1.875V8.584H3.921V6.805h3.886
				v6.313H6.103L5.79,12.259c-0.21,0.327-0.507,0.593-0.894,0.795s-0.784,0.304-1.193,0.304c-0.44,0-0.842-0.08-1.203-0.241
				c-0.361-0.162-0.659-0.375-0.894-0.642c-0.234-0.267-0.431-0.578-0.59-0.938c-0.159-0.358-0.272-0.726-0.341-1.101
				C0.606,10.061,0.572,9.675,0.572,9.279z"/>
			<path fill="#FFFFFF" d="M8.472,13.118V0.846h5.12V2.55h-2.639v3.341h1.868v1.746h-1.868v3.777h2.639v1.704H8.472z"/>
			<path fill="#FFFFFF" d="M13.78,13.118V0.839h1.786l2.693,6.423V0.839h2.061v12.279H18.6l-2.687-6.812v6.812H13.78z"/>
			<path fill="#FFFFFF" d="M22.246,13.118V2.7h-1.8V0.846h6.048V2.7h-1.767v10.418H22.246z"/>
			<path fill="#FFFFFF" d="M26.62,13.118V0.846h2.481v10.568h2.441v1.704H26.62z"/>
			<path fill="#FFFFFF" d="M31.636,13.118V0.846h5.12V2.55h-2.639v3.341h1.868v1.746h-1.868v3.777h2.639v1.704H31.636z"/>
			<path fill="#FFFFFF" d="M36.944,13.118V0.846h2.973l1.31,8.183l1.411-8.183h2.87v12.272h-1.827l-0.055-8.632
				c-0.136,0.887-0.375,2.325-0.716,4.315c-0.341,1.99-0.579,3.429-0.716,4.315H40.34L38.833,4.43l-0.055,8.688L36.944,13.118
				L36.944,13.118z"/>
			<path fill="#FFFFFF" d="M45.601,13.118l2.652-12.272h2.195l2.646,12.272h-2.448l-0.504-2.625h-1.603l-0.478,2.625H45.601z
				 M48.71,8.966h1.268l-0.62-4.555L48.71,8.966z"/>
			<path fill="#FFFFFF" d="M53.188,13.118V0.839h1.786l2.693,6.423V0.839h2.06v12.279h-1.719l-2.687-6.812v6.812H53.188z"/>
			<path fill="#FFFFFF" d="M61.917,13.118l2.652-12.272h2.194l2.646,12.272h-2.448l-0.504-2.625h-1.603l-0.478,2.625H61.917z
				 M65.026,8.966h1.268l-0.62-4.555L65.026,8.966z"/>
			<path fill="#FFFFFF" d="M69.387,8.557V0.846h2.482v7.636c0,0.437,0.002,0.754,0.007,0.951c0.004,0.198,0.016,0.439,0.033,0.723
				c0.019,0.283,0.051,0.482,0.096,0.597c0.046,0.114,0.108,0.236,0.188,0.368c0.08,0.132,0.184,0.219,0.311,0.26
				s0.281,0.061,0.464,0.061c0.182,0,0.336-0.02,0.463-0.061c0.128-0.041,0.231-0.127,0.312-0.256
				c0.079-0.13,0.143-0.251,0.188-0.365c0.046-0.113,0.077-0.31,0.096-0.59c0.018-0.279,0.029-0.516,0.034-0.709
				c0.004-0.193,0.007-0.505,0.007-0.938c0-0.018,0-0.031,0-0.041V0.846h2.481v7.711c0,0.393-0.012,0.746-0.034,1.063
				c-0.021,0.317-0.064,0.647-0.129,0.989c-0.063,0.341-0.149,0.642-0.26,0.902c-0.108,0.262-0.254,0.512-0.437,0.75
				c-0.182,0.238-0.396,0.437-0.644,0.59c-0.248,0.154-0.547,0.277-0.896,0.368c-0.351,0.091-0.744,0.136-1.18,0.136
				s-0.83-0.045-1.18-0.136c-0.351-0.091-0.647-0.214-0.894-0.368c-0.245-0.153-0.459-0.352-0.641-0.59
				c-0.182-0.238-0.327-0.488-0.437-0.75c-0.109-0.262-0.196-0.562-0.263-0.902c-0.064-0.342-0.109-0.672-0.133-0.989
				C69.398,9.303,69.387,8.948,69.387,8.557z"/>
			<path fill="#FFFFFF" d="M77.095,9.021V4.957c0-2.9,1.188-4.351,3.561-4.351c0.5,0,0.944,0.067,1.333,0.201
				c0.389,0.135,0.715,0.319,0.979,0.557c0.264,0.237,0.48,0.526,0.651,0.873c0.17,0.346,0.293,0.721,0.368,1.125
				c0.074,0.403,0.111,0.85,0.111,1.336v1.058h-2.44V4.623c0-0.223-0.004-0.415-0.014-0.576c-0.009-0.161-0.032-0.346-0.071-0.553
				S81.48,3.119,81.414,2.99c-0.065-0.13-0.163-0.24-0.293-0.331c-0.129-0.091-0.285-0.137-0.467-0.137
				c-0.719,0-1.077,0.604-1.077,1.813v5.298c0,1.205,0.358,1.807,1.077,1.807c0.214,0,0.394-0.061,0.539-0.184
				c0.145-0.123,0.249-0.297,0.312-0.521c0.063-0.227,0.106-0.445,0.129-0.661c0.023-0.217,0.034-0.463,0.034-0.74V8.072h2.428
				v1.037c-0.01,0.468-0.048,0.899-0.116,1.295c-0.068,0.396-0.184,0.779-0.348,1.151c-0.164,0.373-0.371,0.688-0.624,0.944
				c-0.252,0.257-0.578,0.464-0.979,0.62c-0.399,0.157-0.858,0.235-1.377,0.235c-0.532,0-1.004-0.076-1.415-0.229
				c-0.411-0.151-0.75-0.356-1.017-0.613c-0.266-0.257-0.484-0.571-0.658-0.946c-0.173-0.375-0.294-0.771-0.364-1.185
				C77.13,9.971,77.095,9.516,77.095,9.021z"/>
			<path fill="#FFFFFF" d="M85.725,13.118V2.7h-1.8V0.846h6.048V2.7h-1.767v10.418H85.725z"/>
			<path fill="#FFFFFF" d="M90.099,13.118V0.846h2.481v12.272H90.099z"/>
			<path fill="#FFFFFF" d="M93.184,9.082V4.957c0-2.9,1.196-4.351,3.587-4.351c2.396,0,3.593,1.45,3.593,4.351V9.02
				c0,0.491-0.036,0.944-0.108,1.36c-0.073,0.416-0.197,0.812-0.372,1.183c-0.175,0.373-0.396,0.69-0.668,0.951
				c-0.271,0.262-0.612,0.467-1.026,0.617c-0.413,0.15-0.887,0.225-1.418,0.225c-0.527,0-0.998-0.072-1.411-0.222
				c-0.414-0.146-0.755-0.348-1.023-0.6c-0.268-0.252-0.489-0.562-0.664-0.927c-0.176-0.366-0.301-0.756-0.375-1.17
				C93.222,10.025,93.184,9.572,93.184,9.082z M97.882,9.641V4.336c0-1.209-0.37-1.813-1.111-1.813
				c-0.223,0-0.411,0.056-0.566,0.167c-0.154,0.111-0.268,0.264-0.341,0.457C95.791,3.34,95.739,3.53,95.71,3.72
				c-0.029,0.188-0.044,0.395-0.044,0.616v5.305c0,1.205,0.368,1.808,1.104,1.808C97.512,11.447,97.882,10.846,97.882,9.641z"/>
			<path fill="#FFFFFF" d="M100.968,13.118V0.839h1.786l2.693,6.423V0.839h2.06v12.279h-1.719l-2.687-6.812v6.812H100.968z"/>
			<path fill="#FFFFFF" d="M110.366,13.118V0.846h2.48v5.031h1.779V0.846h2.496v12.272h-2.496V7.644h-1.779v5.475L110.366,13.118
				L110.366,13.118z"/>
			<path fill="#FFFFFF" d="M117.726,9.082V4.957c0-2.9,1.196-4.351,3.587-4.351c2.396,0,3.594,1.45,3.594,4.351V9.02
				c0,0.491-0.037,0.944-0.109,1.36s-0.196,0.812-0.371,1.183c-0.176,0.373-0.396,0.69-0.668,0.951
				c-0.271,0.262-0.612,0.467-1.026,0.617c-0.413,0.15-0.888,0.225-1.418,0.225c-0.526,0-0.998-0.072-1.411-0.222
				c-0.414-0.146-0.755-0.348-1.023-0.6c-0.268-0.252-0.488-0.562-0.664-0.927c-0.176-0.366-0.301-0.756-0.375-1.17
				C117.764,10.025,117.726,9.572,117.726,9.082z M122.424,9.641V4.336c0-1.209-0.371-1.813-1.111-1.813
				c-0.223,0-0.41,0.056-0.566,0.167c-0.154,0.111-0.268,0.264-0.34,0.457s-0.125,0.384-0.154,0.573
				c-0.028,0.188-0.043,0.395-0.043,0.616v5.305c0,1.205,0.367,1.808,1.104,1.808C122.053,11.447,122.424,10.846,122.424,9.641z"/>
			<path fill="#FFFFFF" d="M125.456,8.557V0.846h2.481v7.636c0,0.437,0.002,0.754,0.007,0.951c0.004,0.198,0.016,0.439,0.033,0.723
				c0.02,0.283,0.051,0.482,0.096,0.597c0.047,0.114,0.107,0.236,0.188,0.368s0.186,0.219,0.312,0.26s0.28,0.061,0.463,0.061
				c0.182,0,0.336-0.02,0.463-0.061c0.129-0.041,0.231-0.127,0.312-0.256c0.079-0.13,0.144-0.251,0.188-0.365
				c0.045-0.113,0.076-0.31,0.096-0.59c0.018-0.279,0.029-0.516,0.033-0.709c0.004-0.193,0.008-0.505,0.008-0.938
				c0-0.018,0-0.031,0-0.041V0.846h2.48v7.711c0,0.393-0.012,0.746-0.033,1.063c-0.022,0.317-0.065,0.647-0.129,0.989
				c-0.064,0.341-0.15,0.642-0.26,0.902c-0.109,0.262-0.255,0.512-0.438,0.75c-0.182,0.238-0.396,0.437-0.645,0.59
				c-0.248,0.154-0.547,0.277-0.896,0.368s-0.744,0.136-1.18,0.136c-0.437,0-0.83-0.045-1.18-0.136
				c-0.352-0.091-0.646-0.214-0.895-0.368c-0.244-0.153-0.459-0.352-0.641-0.59s-0.326-0.488-0.438-0.75
				c-0.107-0.262-0.195-0.562-0.262-0.902c-0.065-0.342-0.111-0.672-0.133-0.989S125.456,8.948,125.456,8.557z"/>
			<path fill="#FFFFFF" d="M132.897,9.605l2.516-0.482c0,0.25,0.006,0.47,0.014,0.661c0.011,0.19,0.033,0.397,0.072,0.624
				c0.039,0.225,0.092,0.408,0.156,0.552c0.066,0.144,0.159,0.265,0.28,0.361c0.12,0.098,0.263,0.146,0.427,0.146
				c0.49,0,0.734-0.312,0.734-0.939c0-0.859-0.482-1.714-1.451-2.563l-0.771-0.655c-0.244-0.204-0.44-0.375-0.586-0.511
				c-0.146-0.137-0.316-0.32-0.516-0.553c-0.197-0.231-0.352-0.455-0.463-0.671c-0.111-0.216-0.207-0.478-0.287-0.781
				c-0.078-0.305-0.119-0.627-0.119-0.968c0-0.996,0.316-1.783,0.948-2.362c0.632-0.58,1.47-0.87,2.517-0.87
				c0.867,0,1.605,0.311,2.215,0.928c0.611,0.618,0.914,1.363,0.914,2.236l-0.006,0.089c0,0.06,0,0.127,0,0.204l-2.564,0.354
				c0-0.05,0.004-0.128,0.011-0.235c0.007-0.106,0.011-0.194,0.011-0.262c0-0.164-0.012-0.321-0.035-0.471
				c-0.021-0.15-0.06-0.3-0.111-0.45c-0.053-0.15-0.133-0.271-0.242-0.358c-0.107-0.088-0.24-0.133-0.396-0.133
				c-0.271,0-0.477,0.107-0.613,0.32c-0.137,0.214-0.203,0.467-0.203,0.757c0,0.255,0.039,0.494,0.119,0.717
				c0.078,0.223,0.199,0.431,0.361,0.623c0.16,0.193,0.311,0.354,0.445,0.481c0.137,0.127,0.318,0.282,0.547,0.467
				c0.227,0.184,0.389,0.318,0.482,0.404c0.352,0.311,0.646,0.601,0.887,0.869c0.24,0.271,0.469,0.576,0.682,0.918
				c0.215,0.341,0.375,0.709,0.48,1.104c0.107,0.396,0.16,0.822,0.16,1.281c0,0.858-0.307,1.562-0.92,2.109
				s-1.359,0.821-2.236,0.821c-0.568,0-1.072-0.104-1.514-0.313s-0.797-0.492-1.067-0.853c-0.271-0.358-0.479-0.757-0.623-1.192
				C133.004,10.575,132.92,10.105,132.897,9.605z"/>
			<path fill="#FFFFFF" d="M139.801,13.118V0.846h5.121V2.55h-2.639v3.341h1.867v1.746h-1.867v3.777h2.639v1.704H139.801z"/>
			<path fill="#FFFFFF" d="M146.28,13.118l3.764-11.734h0.988l-3.771,11.734H146.28z"/>
			<path fill="#FFFFFF" d="M150.021,13.118l3.763-11.734h0.989l-3.771,11.734H150.021z"/>
			<path fill="#FFFFFF" d="M159.461,13.118h-1.043l2.318-11.734h1.35l2.318,11.734h-1.05l-0.586-3.056h-2.707L159.461,13.118z
				 M160.185,9.375h2.454l-1.232-6.914L160.185,9.375z"/>
			<path fill="#FFFFFF" d="M167.092,13.118V1.384h3.131c0.396,0,0.742,0.055,1.043,0.164c0.3,0.109,0.542,0.253,0.727,0.433
				c0.184,0.18,0.334,0.402,0.446,0.668c0.112,0.267,0.192,0.541,0.235,0.825c0.043,0.284,0.064,0.6,0.064,0.944
				c0,1.496-0.545,2.443-1.637,2.844l1.812,5.856h-1.104L170.1,7.391h-1.971v5.728L167.092,13.118L167.092,13.118z M168.129,6.559
				h2.086c0.297,0,0.547-0.059,0.75-0.177c0.205-0.118,0.359-0.286,0.461-0.505c0.104-0.218,0.174-0.445,0.215-0.682
				c0.041-0.237,0.062-0.507,0.062-0.812c0-0.25-0.014-0.475-0.037-0.675c-0.025-0.2-0.072-0.396-0.137-0.586
				c-0.066-0.191-0.154-0.352-0.264-0.481c-0.107-0.129-0.252-0.232-0.43-0.31c-0.178-0.077-0.385-0.116-0.621-0.116h-2.086V6.559
				L168.129,6.559z"/>
			<path fill="#FFFFFF" d="M173.67,13.118V1.384h4.09v0.832h-3.053v4.445h2.182v0.784h-2.182v4.841h3.053v0.832H173.67z"/>
			<path fill="#FFFFFF" d="M178.762,13.118h-1.043l2.318-11.734h1.35l2.318,11.734h-1.051l-0.586-3.056h-2.707L178.762,13.118z
				 M179.484,9.375h2.455l-1.233-6.914L179.484,9.375z"/>
			<path fill="#FFFFFF" d="M184.323,13.118V1.384h1.036v10.902h3.278v0.832H184.323z"/>
			<path fill="#FFFFFF" d="M190.958,13.118V1.384h2.523c0.404,0,0.764,0.058,1.077,0.171c0.313,0.113,0.567,0.265,0.765,0.45
				c0.195,0.186,0.354,0.411,0.479,0.675c0.125,0.265,0.211,0.531,0.26,0.806c0.048,0.271,0.072,0.564,0.072,0.879
				c0,0.486-0.113,0.962-0.338,1.426c-0.225,0.463-0.535,0.786-0.932,0.968c0.277,0.113,0.52,0.28,0.723,0.501
				c0.205,0.221,0.361,0.467,0.472,0.74c0.108,0.272,0.188,0.544,0.237,0.814c0.051,0.27,0.076,0.54,0.076,0.808
				c0,0.409-0.021,0.771-0.059,1.084c-0.039,0.314-0.115,0.629-0.232,0.943c-0.115,0.316-0.27,0.576-0.459,0.781
				c-0.191,0.204-0.451,0.37-0.777,0.498c-0.327,0.127-0.715,0.19-1.159,0.19H190.958z M191.995,6.423h1.664
				c0.254,0,0.473-0.056,0.653-0.167c0.183-0.111,0.323-0.266,0.423-0.464c0.102-0.197,0.174-0.412,0.219-0.645
				c0.045-0.231,0.068-0.486,0.068-0.764c0-1.473-0.561-2.209-1.678-2.209h-1.35V6.423L191.995,6.423z M191.995,12.327h1.854
				c0.235,0,0.442-0.049,0.62-0.146c0.178-0.097,0.32-0.226,0.43-0.385s0.195-0.358,0.264-0.601c0.064-0.241,0.11-0.486,0.135-0.736
				c0.025-0.25,0.039-0.529,0.039-0.839c0-0.277-0.012-0.524-0.035-0.743c-0.021-0.218-0.066-0.434-0.133-0.647
				c-0.065-0.214-0.151-0.392-0.26-0.535c-0.105-0.145-0.25-0.258-0.43-0.345c-0.18-0.086-0.391-0.129-0.63-0.129h-1.854V12.327z"/>
			<path fill="#FFFFFF" d="M197.467,13.118h-1.043l2.318-11.734h1.35l2.318,11.734h-1.051l-0.586-3.056h-2.707L197.467,13.118z
				 M198.189,9.375h2.455l-1.233-6.914L198.189,9.375z"/>
			<path fill="#FFFFFF" d="M203.028,13.118V1.384h0.797l3.717,9.294V1.384h0.879v11.734h-0.776l-3.724-9.096v9.096H203.028z"/>
			<path fill="#FFFFFF" d="M209.713,13.118V1.384h2.639c0.445,0,0.841,0.062,1.188,0.181c0.346,0.121,0.631,0.284,0.854,0.491
				c0.226,0.207,0.409,0.46,0.554,0.76c0.143,0.301,0.244,0.619,0.307,0.955c0.062,0.336,0.092,0.707,0.092,1.111v4.772
				c0,2.31-0.998,3.464-2.993,3.464H209.713z M210.75,12.286h1.602c1.305,0,1.957-0.8,1.957-2.399V4.65
				c0-1.623-0.652-2.435-1.957-2.435h-1.602V12.286z"/>
		</g>
	</g>
</g>
</svg>
