<?xml version="1.0" encoding="utf-8"?>
<!-- Generator: Adobe Illustrator 16.0.0, SVG Export Plug-In . SVG Version: 6.00 Build 0)  -->
<!DOCTYPE svg PUBLIC "-//W3C//DTD SVG 1.1//EN" "http://www.w3.org/Graphics/SVG/1.1/DTD/svg11.dtd">
<svg version="1.1" id="Layer_1" xmlns="http://www.w3.org/2000/svg" xmlns:xlink="http://www.w3.org/1999/xlink" x="0px" y="0px"
	 width="69.566px" height="103.34px" viewBox="0 0 69.566 103.34" enable-background="new 0 0 69.566 103.34" xml:space="preserve">
<g id="TOP_15_x25__OF_GRAD_CLASS">
	<g opacity="0.85">
		<g>
			<circle fill="#FFFFFF" cx="52.111" cy="85.885" r="17.455"/>
			<path fill="#0097BF" d="M54.184,73.061c0.122,0,0.247,0,0.37,0c1.623,0.312,2.396,1.514,2.26,3.555
				c-0.133,1.967-1.838,3.285-1.594,5.219c0.941,0.031,2.032,0,3.109,0c1.011,0,2.18-0.055,2.889,0.26
				c0.818,0.363,1.088,1.17,1.443,2c0,0.084,0,0.17,0,0.258c-0.125,0.518-0.705,0.711-0.739,1.223
				c-0.041,0.59,0.604,0.965,0.739,1.555c0,0.062,0,0.123,0,0.185c-0.146,0.575-0.828,0.761-0.925,1.369
				c-0.099,0.604,0.509,1.122,0.444,1.739c-0.071,0.715-1.11,1.015-1.259,1.668c-0.091,0.4,0.073,0.793,0,1.146
				c-0.121,0.58-1.162,1.449-1.741,1.668c-0.554,0.209-1.304,0.159-1.925,0.258c-0.641,0-1.284,0-1.925,0
				c-3.162-0.049-5.866-0.551-8.478-1.148c0.022-2.996-0.051-6.096,0.037-9.032c0.172-0.009,0.526,0.026,0.74-0.036
				c0.769-0.23,1.512-1.518,1.925-2.295c0.506-0.951,0.787-2.014,1.297-2.925c0.396-0.712,1.201-0.983,1.737-1.63
				c0.741-0.887,1.021-2.42,1.15-3.924C53.787,73.635,53.795,73.051,54.184,73.061z M43.782,94.719c0.953,0,1.916,0.129,2.146-0.52
				c0.193-0.541,0.037-1.582,0.037-2.258c0-1.596,0-2.941,0-4.59c0-0.993,0.229-2.359-0.442-2.702
				c-0.325-0.167-1.129-0.112-1.666-0.112c-1.025,0-2.127-0.172-2.295,0.74c0,2.913,0,5.825,0,8.736
				C41.777,94.864,42.593,94.719,43.782,94.719z"/>
		</g>
	</g>
</g>
<g id="NATIONAL_MERIT_SCHOLARSHIP__x2F__x2F__COMMENDED">
	<g opacity="0.85">
		<g>
			<circle fill="#FFFFFF" cx="17.455" cy="17.455" r="17.455"/>
			<g>
				<g>
					<path fill="#0097BF" d="M23.609,18.158c-1.021,0.943-2.283,1.654-3.726,2.022c-0.38,0.099-0.76,0.158-1.139,0.203L21.25,30.9
						l1.461-5.182l3.644,3.961L23.609,18.158z M10.527,31.313l3.539-4.336l1.955,5.244l1.943-11.777
						c-1.958,0.053-3.841-0.562-5.364-1.687L10.527,31.313z M20.847,18.032l2.121,0.318l0.181-2.137l2.065-0.573l-0.705-2.022
						l1.654-1.366l-1.468-1.562l0.957-1.919l-1.978-0.83l0.094-2.146l-2.144,0.048L20.839,3.85L18.9,4.76l-1.529-1.503l-1.402,1.625
						L13.96,4.127l-0.618,2.057L11.2,6.312L11.47,8.44L9.569,9.43l1.11,1.833l-1.336,1.679l1.762,1.221l-0.536,2.077l2.106,0.402
						l0.353,2.115l2.088-0.491l1.182,1.79l1.709-1.299l1.808,1.153L20.847,18.032z"/>
				</g>
			</g>
		</g>
	</g>
</g>
<g id="PRESIDENT_x2019_S_AWARD__x2F__x2F__ACADEMIC_EXCELLENCE">
	<g opacity="0.85">
		<g>
			<circle fill="#FFFFFF" cx="35.069" cy="51.559" r="17.455"/>
			<g>
				<g>
					<path fill="#0097BF" d="M28.142,65.418l3.538-4.336l1.955,5.244l1.944-11.777c-1.958,0.053-3.841-0.562-5.365-1.688
						L28.142,65.418z M41.222,52.262c-1.021,0.943-2.282,1.654-3.725,2.023c-0.38,0.098-0.76,0.158-1.139,0.203l2.505,10.516
						l1.461-5.182l3.643,3.961L41.222,52.262z M38.462,52.136l2.121,0.318l0.18-2.138l2.066-0.573l-0.705-2.023l1.654-1.366
						l-1.468-1.562l0.957-1.919l-1.979-0.83l0.093-2.146l-2.143,0.048l-0.786-1.993l-1.939,0.91l-1.528-1.503l-1.402,1.625
						l-2.009-0.755l-0.618,2.057l-2.141,0.128l0.27,2.128l-1.901,0.99l1.11,1.833l-1.336,1.679l1.761,1.221l-0.535,2.077
						l2.105,0.402l0.354,2.115l2.088-0.491l1.182,1.791l1.709-1.3l1.807,1.153L38.462,52.136z"/>
				</g>
			</g>
		</g>
	</g>
</g>
</svg>
