<?xml version="1.0" encoding="utf-8"?>
<!-- Generator: Adobe Illustrator 16.0.0, SVG Export Plug-In . SVG Version: 6.00 Build 0)  -->
<!DOCTYPE svg PUBLIC "-//W3C//DTD SVG 1.1//EN" "http://www.w3.org/Graphics/SVG/1.1/DTD/svg11.dtd">
<svg version="1.1" id="Layer_1" xmlns="http://www.w3.org/2000/svg" xmlns:xlink="http://www.w3.org/1999/xlink" x="0px" y="0px"
	 width="56.875px" height="34.951px" viewBox="0 0 56.875 34.951" enable-background="new 0 0 56.875 34.951" xml:space="preserve">
<g id="DISCOVERED_ILLUSTRATOR">
	<g opacity="0.85">
		<g>
			<circle fill="#0A8040" cx="39.42" cy="17.454" r="17.455"/>
			<g>
				<g>
					<path fill="#5CBB58" d="M49.206,17.453c0-0.31-0.063-0.605-0.093-0.907l1.942-1.149c-0.192-1.105-0.553-2.142-1.028-3.119
						l-2.219,0.209c-0.313-0.527-0.673-1.019-1.076-1.476l0.896-2.067C46.84,8.18,45.927,7.56,44.951,7.041l-1.637,1.441
						c-0.564-0.243-1.156-0.432-1.771-0.568l-0.479-2.139c-0.543-0.074-1.082-0.166-1.646-0.166s-1.103,0.092-1.646,0.166
						l-0.479,2.139c-0.615,0.137-1.207,0.325-1.771,0.568l-1.637-1.441C32.913,7.56,32,8.18,31.212,8.943l0.896,2.067
						c-0.402,0.457-0.763,0.947-1.075,1.476l-2.219-0.209c-0.477,0.978-0.836,2.014-1.029,3.119l1.942,1.149
						c-0.027,0.302-0.093,0.598-0.093,0.907c0,0.311,0.064,0.605,0.093,0.908l-1.942,1.149c0.193,1.104,0.553,2.142,1.029,3.118
						l2.219-0.212c0.312,0.53,0.673,1.021,1.075,1.479l-0.896,2.067c0.788,0.761,1.701,1.383,2.677,1.901l1.637-1.442
						c0.564,0.244,1.156,0.435,1.771,0.567l0.479,2.142c0.544,0.074,1.082,0.166,1.646,0.166c0.564,0,1.103-0.092,1.646-0.166
						l0.479-2.142c0.615-0.135,1.207-0.323,1.771-0.567l1.637,1.442c0.976-0.52,1.889-1.142,2.678-1.901l-0.896-2.067
						c0.402-0.457,0.762-0.948,1.075-1.479l2.219,0.212c0.477-0.979,0.836-2.014,1.029-3.118l-1.943-1.149
						C49.143,18.06,49.206,17.764,49.206,17.453z M39.42,22.366c-2.714,0-4.914-2.198-4.914-4.911c0-2.714,2.2-4.914,4.914-4.914
						s4.914,2.2,4.914,4.914C44.334,20.168,42.134,22.366,39.42,22.366z"/>
				</g>
			</g>
		</g>
		<g>
			<circle fill="#FFFFFF" cx="17.454" cy="17.496" r="17.454"/>
			<g>
				<path fill="#5CBB58" d="M28.654,9.991c0,0.657,0,1.314,0,1.974c-1.918,1.274-3.812,2.713-5.736,4.04
					c-0.43,0.296-1.475,1.221-2.021,1.239c-0.445,0.016-1.02-0.366-1.331-0.598c-0.534-0.398-1.655-1.451-1.606-2.34
					c0.021-0.369,0.42-0.77,0.688-1.146c1.361-1.919,2.457-3.462,3.812-5.371c0.288-0.406,1.106-1.93,1.742-1.93
					c0.455,0,0.852,0.578,1.195,0.918C26.506,7.889,27.711,9.062,28.654,9.991z"/>
				<path fill="#5CBB58" d="M20.393,19.31c0.048,4.188-1.043,6.82-3.764,8.217c-2.646,1.358-6.334,1.541-10.373,1.606
					c-0.021-0.178,0.188-0.194,0.275-0.274c0.881-0.804,1.57-1.784,1.928-3.215c0.393-1.578,0.343-3.389,0.963-4.865
					c1.097-2.611,3.975-4.002,6.748-4.957c0.566-0.195,0.839,0.479,1.148,0.919C18.122,17.887,19.395,18.584,20.393,19.31z"/>
			</g>
		</g>
	</g>
</g>
</svg>
