<?xml version="1.0" encoding="utf-8"?>
<!-- Generator: Adobe Illustrator 16.0.0, SVG Export Plug-In . SVG Version: 6.00 Build 0)  -->
<!DOCTYPE svg PUBLIC "-//W3C//DTD SVG 1.1//EN" "http://www.w3.org/Graphics/SVG/1.1/DTD/svg11.dtd">
<svg version="1.1" id="Layer_1" xmlns="http://www.w3.org/2000/svg" xmlns:xlink="http://www.w3.org/1999/xlink" x="0px" y="0px"
	 width="34.91px" height="34.91px" viewBox="0 0 34.91 34.91" enable-background="new 0 0 34.91 34.91" xml:space="preserve">
<g id="RADIO_SHOW_CO-HOST__x2F__x2F__99.1_KDPS">
	<g opacity="0.85">
		<g>
			<circle fill="#FFFFFF" cx="17.455" cy="17.454" r="17.455"/>
			<g id="g1_20_">
				<polygon id="polygon1_20_" fill="#BE2026" points="17.593,8.665 11.448,13.981 5.632,13.981 5.632,20.82 11.36,20.82 
					17.593,26.212 				"/>
				<path fill="#BE2026" d="M20.369,21.867c-0.316-0.195-0.412-0.609-0.215-0.927l0,0c0.629-1.011,0.995-2.19,0.995-3.459l0,0
					c0-1.297-0.377-2.494-1.022-3.511l0,0c-0.199-0.312-0.105-0.729,0.205-0.927l0,0c0.312-0.199,0.729-0.106,0.928,0.206l0,0
					c0.777,1.221,1.234,2.673,1.234,4.231l0,0c0,1.529-0.447,2.962-1.199,4.17l0,0v0.002c-0.127,0.203-0.346,0.314-0.572,0.314l0,0
					C20.602,21.968,20.479,21.936,20.369,21.867L20.369,21.867z"/>
				<path fill="#BE2026" d="M22.851,24.361c-0.299-0.22-0.363-0.643-0.143-0.938l0,0c1.221-1.668,1.943-3.719,1.943-5.942l0,0
					c0-2.25-0.734-4.315-1.98-5.994l0,0h0.002c-0.223-0.295-0.158-0.718,0.14-0.938l0,0c0.298-0.22,0.718-0.159,0.94,0.139l0,0
					c1.406,1.896,2.242,4.249,2.242,6.794l0,0c0,2.516-0.82,4.852-2.205,6.738l0,0c-0.131,0.177-0.334,0.273-0.541,0.273l0,0
					C23.111,24.494,22.97,24.449,22.851,24.361L22.851,24.361z"/>
				<path fill="#BE2026" d="M25.171,26.687c-0.291-0.23-0.34-0.652-0.11-0.941l0,0c1.8-2.273,2.872-5.143,2.872-8.264l0,0
					c0-3.147-1.088-6.03-2.902-8.312l0,0c-0.232-0.289-0.188-0.711,0.104-0.943l0,0c0.291-0.232,0.711-0.184,0.943,0.106l0,0
					c2,2.507,3.201,5.689,3.201,9.149l0,0c0,3.432-1.186,6.596-3.164,9.096l0,0h0.002c-0.133,0.168-0.33,0.256-0.527,0.256l0,0
					C25.443,26.833,25.294,26.785,25.171,26.687L25.171,26.687z"/>
			</g>
		</g>
	</g>
</g>
</svg>
