<?xml version="1.0" encoding="utf-8"?>
<!-- Generator: Adobe Illustrator 13.0.2, SVG Export Plug-In . SVG Version: 6.00 Build 14948)  -->
<!DOCTYPE svg PUBLIC "-//W3C//DTD SVG 1.1//EN" "http://www.w3.org/Graphics/SVG/1.1/DTD/svg11.dtd">
<svg version="1.1" id="LINKEDIN" xmlns="http://www.w3.org/2000/svg" xmlns:xlink="http://www.w3.org/1999/xlink" x="0px" y="0px"
	 width="175px" height="175px" viewBox="0 0 175 175" enable-background="new 0 0 175 175" xml:space="preserve">
<path fill="#636467" d="M162.362,3.547H12.283c-5.5,0-10,4.5-10,10v150.08c0,5.5,4.5,10,10,10h150.079c5.5,0,10-4.5,10-10V13.547
	C172.362,8.047,167.862,3.547,162.362,3.547z M66,124H51V76h15V124z M58.119,70h-0.108c-5.426,0-8.943-3.673-8.943-8.32
	c0-4.739,3.621-8.333,9.156-8.333c5.534,0,8.938,3.583,9.046,8.322C67.27,66.317,63.758,70,58.119,70z M126,124h-17V99.163
	c0-6.503-2.662-10.938-8.512-10.938c-4.475,0-6.958,2.993-8.123,5.883C91.932,95.14,92,96.584,92,98.025V124H75.158
	c0,0,0.212-44,0-48H92v7.535c1-3.295,6.379-7.993,14.973-7.993c10.648,0,19.027,6.907,19.027,21.768V124z"/>
</svg>
