<?xml version="1.0" encoding="utf-8"?>
<!-- Generator: Adobe Illustrator 16.0.0, SVG Export Plug-In . SVG Version: 6.00 Build 0)  -->
<!DOCTYPE svg PUBLIC "-//W3C//DTD SVG 1.1//EN" "http://www.w3.org/Graphics/SVG/1.1/DTD/svg11.dtd">
<svg version="1.1" id="Layer_1" xmlns="http://www.w3.org/2000/svg" xmlns:xlink="http://www.w3.org/1999/xlink" x="0px" y="0px"
	 width="229.459px" height="426.069px" viewBox="-200.641 -393.759 229.459 426.069"
	 enable-background="new -200.641 -393.759 229.459 426.069" xml:space="preserve">
<g id="MARRY">
	<g>
		<g opacity="0.5">
			<g>
				<path fill="#A79C00" d="M26.81,6.729c-3.271-6.215-9.757-9.638-16.337-9.308l-195.344-391.154l-15.77-0.026L-2.34,3.321h0.596
					c-4.641,5.273-5.811,13.065-2.344,19.656c4.486,8.53,15.039,11.812,23.569,7.322C28.017,25.815,31.295,15.262,26.81,6.729z
					 M22.838,22.996l-9.744-0.677l0.015,6.207l-3.169,0.007l-0.014-6.437l-6.647-0.462l-2.972-2.771l3.559-2.315l6.053,0.421
					l-0.008-4.119L0,12.165l3.555-2.318L0.588,7.079l9.309,0.646l-0.01-4.548L13.049,0l0.02,7.944l7.084,0.492l2.967,2.771
					l-3.556,2.317l-6.485-0.451l0.008,4.117l10.34,0.719l-3.553,2.318L22.838,22.996z"/>
			</g>
		</g>
		<g opacity="0.75">
			<g>
				<polygon fill="#FFFFFF" points="19.871,20.228 23.424,17.909 13.084,17.19 13.076,13.073 19.562,13.524 23.117,11.207 
					20.149,8.437 13.065,7.944 13.049,0 9.887,3.177 9.896,7.725 0.588,7.079 3.555,9.847 0,12.165 9.906,12.853 9.914,16.972 
					3.861,16.551 0.305,18.866 3.275,21.637 9.924,22.099 9.938,28.533 13.106,28.526 13.094,22.319 22.838,22.996 				"/>
			</g>
		</g>
	</g>
</g>
</svg>
