<?xml version="1.0" encoding="utf-8"?>
<!-- Generator: Adobe Illustrator 16.0.0, SVG Export Plug-In . SVG Version: 6.00 Build 0)  -->
<!DOCTYPE svg PUBLIC "-//W3C//DTD SVG 1.1//EN" "http://www.w3.org/Graphics/SVG/1.1/DTD/svg11.dtd">
<svg version="1.1" id="Layer_1" xmlns="http://www.w3.org/2000/svg" xmlns:xlink="http://www.w3.org/1999/xlink" x="0px" y="0px"
	 width="52.395px" height="34.91px" viewBox="0 0 52.395 34.91" enable-background="new 0 0 52.395 34.91" xml:space="preserve">
<g id="WEBSTER_U_STUDY_ABROAD_PHOTO_CONTEST__x2F__x2F__2ND_PLACE">
	<g opacity="0.85">
		<g>
			<circle fill="#7F5221" cx="34.94" cy="17.455" r="17.455"/>
			<g>
				<g>
					<path fill="#F19E1F" d="M28.013,31.313l3.539-4.337l1.955,5.244l1.944-11.777c-1.958,0.053-3.841-0.561-5.365-1.686
						L28.013,31.313z M41.094,18.158c-1.021,0.943-2.283,1.654-3.725,2.023c-0.38,0.098-0.761,0.158-1.14,0.203L38.736,30.9
						l1.461-5.182l3.643,3.961L41.094,18.158z M38.333,18.031l2.121,0.318l0.18-2.137l2.066-0.573l-0.705-2.021l1.653-1.366
						l-1.468-1.562l0.957-1.919l-1.977-0.829l0.093-2.146l-2.144,0.049L38.324,3.85l-1.939,0.91l-1.529-1.503l-1.401,1.625
						l-2.009-0.755l-0.618,2.057l-2.142,0.129l0.271,2.129l-1.902,0.989l1.111,1.833l-1.336,1.681l1.761,1.221l-0.536,2.076
						l2.107,0.402l0.352,2.114l2.088-0.489l1.183,1.788l1.709-1.299l1.807,1.154L38.333,18.031z"/>
				</g>
			</g>
		</g>
		<g>
			<circle fill="#FFFFFF" cx="17.455" cy="17.455" r="17.455"/>
			<path fill="#F19E1F" d="M17.82,29.964h-0.743c-1.31-0.086-2.309-0.248-3.11-0.512c-0.338-1.953-0.694-3.883-1.056-5.812
				l-0.082-0.445c0.761,0.512,1.521,1.021,2.286,1.532c2.175,1.461,4.423,2.968,6.603,4.487
				C20.479,29.652,19.199,29.901,17.82,29.964L17.82,29.964z M12.198,28.794c-2.385-1.121-4.273-2.855-5.616-5.164
				c0.955-1.496,1.936-2.963,2.917-4.436l0.74-1.105C10.906,21.641,11.556,25.212,12.198,28.794L12.198,28.794z M23.505,28.41
				c-1.538-1.008-3.243-2.158-5.213-3.512c-0.078-0.055-0.154-0.109-0.229-0.162c2.811-0.525,5.603-1.07,8.393-1.615l2.368-0.461
				C27.683,25.105,25.895,27.035,23.505,28.41L23.505,28.41z M23.039,22.13c0.611-0.903,1.223-1.811,1.834-2.725
				c1.41-2.098,2.865-4.267,4.296-6.326c0.461,1.223,0.723,2.539,0.795,4.01v0.742c-0.073,1.207-0.234,2.216-0.489,3.061
				c-1.487,0.271-2.957,0.562-4.429,0.847C24.378,21.871,23.709,22.001,23.039,22.13L23.039,22.13z M5.76,21.876
				c-0.47-1.221-0.737-2.555-0.815-4.058v-0.742c0.077-1.215,0.234-2.223,0.489-3.062c1.35-0.254,2.689-0.52,4.026-0.779
				c0.779-0.155,1.558-0.309,2.338-0.457c-0.738,1.108-1.475,2.224-2.209,3.337C8.316,18.041,7.044,19.964,5.76,21.876L5.76,21.876z
				 M24.762,16.64c-0.341-1.864-0.691-3.717-1.045-5.566c-0.311-1.633-0.621-3.268-0.923-4.906c2.372,1.107,4.242,2.849,5.56,5.181
				c-0.514,0.747-1.021,1.503-1.524,2.258C26.158,14.607,25.47,15.641,24.762,16.64L24.762,16.64z M6.091,12.222
				c0.54-1.191,1.301-2.318,2.317-3.431l0.527-0.523c0.918-0.802,1.747-1.395,2.521-1.802c1.178,0.812,2.354,1.614,3.532,2.416
				l1.818,1.241c-1.306,0.253-2.609,0.512-3.916,0.771C10.624,11.344,8.358,11.791,6.091,12.222L6.091,12.222z M22.177,11.68
				c-1.009-0.688-2.024-1.375-3.039-2.061c-1.915-1.294-3.89-2.627-5.812-3.974c1.196-0.407,2.43-0.636,3.764-0.7h0.743
				c1.016,0.068,2.19,0.188,3.166,0.531c0.212,1.078,0.416,2.166,0.619,3.253C21.801,9.715,21.986,10.701,22.177,11.68L22.177,11.68
				z"/>
		</g>
	</g>
</g>
</svg>
