<?xml version="1.0" encoding="utf-8"?>
<!-- Generator: Adobe Illustrator 16.0.0, SVG Export Plug-In . SVG Version: 6.00 Build 0)  -->
<!DOCTYPE svg PUBLIC "-//W3C//DTD SVG 1.1//EN" "http://www.w3.org/Graphics/SVG/1.1/DTD/svg11.dtd">
<svg version="1.1" id="Layer_1" xmlns="http://www.w3.org/2000/svg" xmlns:xlink="http://www.w3.org/1999/xlink" x="0px" y="0px"
	 width="54.16px" height="34.908px" viewBox="0 0 54.16 34.908" enable-background="new 0 0 54.16 34.908" xml:space="preserve">
<g id="DISMEMBERMENT_PLAN_REMIX__x2F__x2F__DROP_DYNASTY">
	<g opacity="0.85">
		<g>
			<circle fill="#7F161F" cx="36.705" cy="17.454" r="17.455"/>
			<path fill="#BE2026" d="M38.777,4.629c0.122,0,0.247,0,0.37,0c1.623,0.312,2.396,1.514,2.261,3.554
				c-0.134,1.967-1.841,3.286-1.595,5.22c0.94,0.03,2.03,0,3.108,0c1.013,0,2.181-0.056,2.89,0.26c0.817,0.363,1.088,1.172,1.442,2
				c0,0.085,0,0.172,0,0.258c-0.125,0.518-0.705,0.711-0.738,1.222c-0.04,0.59,0.604,0.965,0.738,1.554c0,0.062,0,0.125,0,0.186
				c-0.146,0.575-0.828,0.763-0.926,1.369c-0.098,0.604,0.51,1.122,0.445,1.74c-0.072,0.715-1.111,1.014-1.26,1.668
				c-0.09,0.399,0.074,0.793,0,1.146c-0.119,0.58-1.16,1.449-1.74,1.668c-0.555,0.209-1.305,0.16-1.924,0.26
				c-0.643,0-1.285,0-1.926,0c-3.162-0.051-5.865-0.553-8.477-1.149c0.02-2.996-0.052-6.096,0.034-9.033
				c0.175-0.008,0.526,0.027,0.741-0.035c0.77-0.231,1.512-1.519,1.925-2.296c0.505-0.951,0.787-2.013,1.296-2.925
				c0.396-0.713,1.202-0.983,1.738-1.63c0.74-0.888,1.021-2.421,1.15-3.924C38.38,5.204,38.388,4.62,38.777,4.629z M28.375,26.288
				c0.953,0,1.916,0.128,2.146-0.521c0.193-0.541,0.035-1.582,0.035-2.258c0-1.596,0-2.94,0-4.59c0-0.993,0.23-2.36-0.441-2.702
				c-0.326-0.167-1.129-0.112-1.666-0.112c-1.026,0-2.127-0.172-2.295,0.74c0,2.912,0,5.825,0,8.736
				C26.37,26.432,27.186,26.288,28.375,26.288z"/>
		</g>
		<g>
			<circle fill="#FFFFFF" cx="17.455" cy="17.454" r="17.455"/>
			<g id="g1_15_">
				<polygon id="polygon1_15_" fill="#BE2026" points="17.593,8.664 11.448,13.98 5.632,13.98 5.632,20.82 11.36,20.82 
					17.593,26.212 				"/>
				<path fill="#BE2026" d="M20.369,21.865c-0.317-0.195-0.413-0.609-0.215-0.925l0,0c0.628-1.012,0.995-2.19,0.995-3.459l0,0
					c0-1.297-0.377-2.495-1.023-3.512l0,0c-0.199-0.312-0.105-0.728,0.206-0.926l0,0c0.312-0.2,0.729-0.106,0.927,0.206l0,0
					c0.777,1.22,1.234,2.672,1.234,4.231l0,0c0,1.528-0.446,2.962-1.199,4.169l0,0v0.002c-0.127,0.203-0.346,0.314-0.571,0.314l0,0
					C20.602,21.968,20.479,21.935,20.369,21.865L20.369,21.865z"/>
				<path fill="#BE2026" d="M22.851,24.358c-0.299-0.217-0.364-0.641-0.143-0.936l0,0c1.221-1.668,1.944-3.719,1.944-5.942l0,0
					c0-2.251-0.735-4.315-1.98-5.995l0,0h0.002c-0.223-0.295-0.159-0.718,0.139-0.938l0,0c0.298-0.221,0.718-0.16,0.941,0.139l0,0
					c1.406,1.896,2.241,4.248,2.241,6.794l0,0c0,2.516-0.82,4.85-2.204,6.737l0,0c-0.131,0.178-0.334,0.273-0.541,0.273l0,0
					C23.111,24.492,22.97,24.448,22.851,24.358L22.851,24.358z"/>
				<path fill="#BE2026" d="M25.172,26.687c-0.291-0.23-0.341-0.652-0.111-0.941l0,0c1.799-2.274,2.872-5.143,2.872-8.263l0,0
					c0-3.147-1.087-6.03-2.903-8.312l0,0c-0.232-0.29-0.187-0.712,0.104-0.943l0,0c0.291-0.233,0.712-0.185,0.944,0.105l0,0
					c2,2.507,3.201,5.69,3.201,9.15l0,0c0,3.431-1.186,6.595-3.164,9.095l0,0h0.002c-0.133,0.169-0.329,0.256-0.528,0.256l0,0
					C25.443,26.832,25.295,26.783,25.172,26.687L25.172,26.687z"/>
			</g>
		</g>
	</g>
</g>
</svg>
