<?xml version="1.0" encoding="utf-8"?>
<!-- Generator: Adobe Illustrator 16.0.0, SVG Export Plug-In . SVG Version: 6.00 Build 0)  -->
<!DOCTYPE svg PUBLIC "-//W3C//DTD SVG 1.1//EN" "http://www.w3.org/Graphics/SVG/1.1/DTD/svg11.dtd">
<svg version="1.1" id="Layer_1" xmlns="http://www.w3.org/2000/svg" xmlns:xlink="http://www.w3.org/1999/xlink" x="0px" y="0px"
	 width="52.363px" height="35.18px" viewBox="0 0 52.363 35.18" enable-background="new 0 0 52.363 35.18" xml:space="preserve">
<g id="DISCOVERED_PROTOOLS">
	<g opacity="0.85">
		<g>
			<circle fill="#7F161F" cx="34.908" cy="17.726" r="17.455"/>
			<g>
				<g>
					<path fill="#BE2026" d="M44.695,17.726c0-0.311-0.064-0.605-0.094-0.908l1.942-1.15c-0.192-1.104-0.553-2.141-1.029-3.117
						l-2.219,0.209c-0.313-0.527-0.672-1.02-1.074-1.477l0.896-2.067c-0.789-0.763-1.701-1.384-2.678-1.901l-1.638,1.441
						c-0.563-0.244-1.155-0.433-1.771-0.568l-0.478-2.141c-0.545-0.074-1.082-0.164-1.646-0.164c-0.564,0-1.103,0.09-1.646,0.164
						l-0.479,2.141c-0.615,0.136-1.207,0.324-1.771,0.568l-1.637-1.441C28.4,7.833,27.487,8.454,26.7,9.216l0.893,2.067
						c-0.399,0.457-0.76,0.949-1.074,1.477L24.3,12.551c-0.477,0.978-0.836,2.013-1.029,3.117l1.943,1.15
						c-0.027,0.303-0.094,0.598-0.094,0.908s0.066,0.604,0.094,0.907l-1.943,1.15c0.193,1.104,0.553,2.141,1.029,3.117l2.219-0.211
						c0.314,0.529,0.674,1.021,1.074,1.477L26.7,26.235c0.787,0.762,1.7,1.385,2.676,1.902l1.637-1.441
						c0.564,0.243,1.156,0.432,1.771,0.566l0.479,2.141c0.543,0.075,1.08,0.166,1.646,0.166c0.564,0,1.102-0.091,1.646-0.166
						l0.478-2.141c0.615-0.135,1.207-0.323,1.771-0.566l1.638,1.441c0.977-0.518,1.889-1.141,2.678-1.902l-0.896-2.068
						c0.402-0.455,0.761-0.947,1.074-1.477l2.219,0.211c0.478-0.979,0.837-2.014,1.029-3.117l-1.942-1.15
						C44.631,18.331,44.695,18.036,44.695,17.726z M34.908,22.639c-2.713,0-4.914-2.199-4.914-4.913
						c0-2.713,2.201-4.912,4.914-4.912s4.914,2.199,4.914,4.912C39.822,20.439,37.621,22.639,34.908,22.639z"/>
				</g>
			</g>
		</g>
		<g>
			<circle fill="#FFFFFF" cx="17.454" cy="17.454" r="17.454"/>
			<g id="g1_1_">
				<polygon id="polygon1_1_" fill="#BE2026" points="17.592,8.665 11.447,13.98 5.631,13.98 5.631,20.821 11.359,20.821 
					17.592,26.211 				"/>
				<path fill="#BE2026" d="M20.369,21.866c-0.318-0.195-0.414-0.609-0.215-0.926l0,0c0.627-1.01,0.994-2.189,0.994-3.459l0,0
					c0-1.297-0.377-2.494-1.023-3.512l0,0c-0.199-0.312-0.105-0.729,0.205-0.926l0,0c0.312-0.199,0.729-0.106,0.928,0.206l0,0
					c0.777,1.22,1.234,2.673,1.234,4.231l0,0c0,1.528-0.445,2.961-1.199,4.17l0,0v0.003c-0.127,0.202-0.346,0.312-0.57,0.312l0,0
					C20.602,21.967,20.479,21.935,20.369,21.866L20.369,21.866z"/>
				<path fill="#BE2026" d="M22.85,24.36c-0.299-0.219-0.363-0.641-0.143-0.938l0,0c1.223-1.668,1.945-3.717,1.945-5.941l0,0
					c0-2.251-0.736-4.315-1.98-5.994l0,0h0.002c-0.223-0.295-0.158-0.719,0.139-0.938l0,0c0.299-0.221,0.719-0.159,0.941,0.139l0,0
					c1.406,1.896,2.24,4.249,2.24,6.794l0,0c0,2.517-0.82,4.851-2.203,6.737l0,0c-0.131,0.178-0.336,0.273-0.541,0.273l0,0
					C23.111,24.493,22.969,24.448,22.85,24.36L22.85,24.36z"/>
				<path fill="#BE2026" d="M25.172,26.687c-0.291-0.229-0.342-0.651-0.111-0.942l0,0c1.799-2.273,2.871-5.142,2.871-8.263l0,0
					c0-3.147-1.088-6.03-2.901-8.312l0,0c-0.232-0.289-0.188-0.711,0.104-0.943l0,0c0.291-0.232,0.711-0.184,0.943,0.105l0,0
					c2,2.508,3.201,5.69,3.201,9.15l0,0c0,3.433-1.187,6.597-3.164,9.095l0,0l0.004,0.002c-0.135,0.168-0.33,0.256-0.529,0.256l0,0
					C25.443,26.833,25.295,26.784,25.172,26.687L25.172,26.687z"/>
			</g>
		</g>
	</g>
</g>
</svg>
