<?xml version="1.0" encoding="utf-8"?>
<!-- Generator: Adobe Illustrator 16.0.0, SVG Export Plug-In . SVG Version: 6.00 Build 0)  -->
<!DOCTYPE svg PUBLIC "-//W3C//DTD SVG 1.1//EN" "http://www.w3.org/Graphics/SVG/1.1/DTD/svg11.dtd">
<svg version="1.1" id="Layer_1" xmlns="http://www.w3.org/2000/svg" xmlns:xlink="http://www.w3.org/1999/xlink" x="0px" y="0px"
	 width="57.891px" height="34.91px" viewBox="0 0 57.891 34.91" enable-background="new 0 0 57.891 34.91" xml:space="preserve">
<g id="DISCOVERED_PHOTOSHOP">
	<g opacity="0.85">
		<g>
			<circle fill="#0A8040" cx="40.437" cy="17.454" r="17.455"/>
			<g>
				<g>
					<path fill="#5CBB58" d="M50.223,17.454c0-0.311-0.063-0.605-0.093-0.908l1.943-1.149c-0.193-1.104-0.553-2.141-1.029-3.118
						l-2.218,0.21c-0.313-0.528-0.671-1.021-1.075-1.478l0.895-2.066c-0.789-0.765-1.701-1.385-2.677-1.902l-1.637,1.441
						c-0.565-0.244-1.156-0.432-1.771-0.568l-0.478-2.14C41.539,5.701,41,5.61,40.437,5.61c-0.562,0-1.102,0.091-1.646,0.165
						l-0.478,2.14c-0.615,0.137-1.207,0.324-1.771,0.568l-1.638-1.441c-0.976,0.518-1.889,1.139-2.677,1.902l0.896,2.066
						c-0.402,0.457-0.761,0.948-1.075,1.478l-2.218-0.21c-0.478,0.978-0.836,2.014-1.029,3.118l1.943,1.149
						c-0.029,0.303-0.093,0.598-0.093,0.908c0,0.31,0.063,0.605,0.093,0.908l-1.943,1.15c0.193,1.104,0.552,2.141,1.029,3.117
						l2.218-0.211c0.314,0.529,0.673,1.021,1.075,1.478l-0.896,2.067c0.789,0.763,1.701,1.385,2.677,1.902l1.638-1.441
						c0.563,0.244,1.155,0.433,1.771,0.568l0.478,2.139c0.543,0.076,1.082,0.166,1.646,0.166c0.564,0,1.104-0.09,1.646-0.166
						l0.478-2.139c0.616-0.137,1.207-0.324,1.771-0.568l1.637,1.441c0.976-0.52,1.889-1.141,2.677-1.902l-0.895-2.067
						c0.403-0.456,0.761-0.948,1.075-1.478l2.218,0.211c0.477-0.978,0.836-2.014,1.029-3.117l-1.943-1.15
						C50.159,18.06,50.223,17.765,50.223,17.454z M40.437,22.369c-2.713,0-4.914-2.199-4.914-4.914c0-2.713,2.2-4.913,4.914-4.913
						s4.914,2.2,4.914,4.913C45.35,20.169,43.15,22.369,40.437,22.369z"/>
				</g>
			</g>
		</g>
		<g>
			<circle fill="#FFFFFF" cx="17.455" cy="17.454" r="17.455"/>
			<g>
				<path fill="#5CBB58" d="M28.656,9.948c0,0.658,0,1.318,0,1.975c-1.918,1.275-3.812,2.713-5.736,4.039
					c-0.43,0.296-1.474,1.221-2.021,1.24c-0.444,0.015-1.021-0.365-1.332-0.598c-0.533-0.398-1.654-1.45-1.605-2.34
					c0.021-0.369,0.42-0.77,0.688-1.146c1.36-1.919,2.457-3.46,3.812-5.37c0.289-0.407,1.105-1.929,1.743-1.929
					c0.455,0,0.851,0.576,1.193,0.918C26.507,7.848,27.711,9.021,28.656,9.948z"/>
				<path fill="#5CBB58" d="M20.394,19.267c0.047,4.188-1.043,6.82-3.764,8.217c-2.646,1.357-6.334,1.541-10.374,1.607
					c-0.021-0.178,0.188-0.196,0.276-0.275c0.88-0.803,1.569-1.783,1.927-3.213c0.393-1.58,0.343-3.389,0.963-4.865
					c1.097-2.611,3.975-4.004,6.748-4.958c0.566-0.195,0.838,0.479,1.146,0.919C18.123,17.845,19.396,18.542,20.394,19.267z"/>
			</g>
		</g>
	</g>
</g>
</svg>
