<?xml version="1.0" encoding="utf-8"?>
<!-- Generator: Adobe Illustrator 16.0.0, SVG Export Plug-In . SVG Version: 6.00 Build 0)  -->
<!DOCTYPE svg PUBLIC "-//W3C//DTD SVG 1.1//EN" "http://www.w3.org/Graphics/SVG/1.1/DTD/svg11.dtd">
<svg version="1.1" id="Layer_1" xmlns="http://www.w3.org/2000/svg" xmlns:xlink="http://www.w3.org/1999/xlink" x="0px" y="0px"
	 width="52.363px" height="34.91px" viewBox="0 0 52.363 34.91" enable-background="new 0 0 52.363 34.91" xml:space="preserve">
<g id="DIRECTOR_x2C___x201C_I_x2019_M_SORRY_x2C__MR._REEVES_x201D___x2F__x2F__AUDIENCE_CHOICE_AWARD__48_HR_FILM_PROJECT">
	<g opacity="0.85">
		<g>
			<circle fill="#7F5221" cx="34.909" cy="17.455" r="17.454"/>
			<g>
				<g>
					<path fill="#F19E1F" d="M27.982,31.314l3.539-4.338l1.955,5.245l1.942-11.778c-1.959,0.054-3.842-0.562-5.365-1.687
						L27.982,31.314z M41.064,18.158c-1.021,0.943-2.283,1.654-3.726,2.022c-0.381,0.099-0.762,0.159-1.141,0.204L38.705,30.9
						l1.461-5.183l3.645,3.961L41.064,18.158z M38.303,18.032l2.121,0.317l0.18-2.138l2.064-0.572l-0.703-2.022l1.654-1.365
						L42.15,10.69l0.957-1.918l-1.978-0.83l0.092-2.146L39.08,5.844L38.293,3.85l-1.938,0.911l-1.529-1.503l-1.402,1.625
						l-2.01-0.756l-0.617,2.058l-2.143,0.128l0.271,2.129l-1.901,0.99l1.11,1.832l-1.337,1.681l1.762,1.221l-0.535,2.077
						l2.106,0.402l0.353,2.114l2.088-0.49l1.182,1.789l1.711-1.299l1.807,1.154L38.303,18.032z"/>
				</g>
			</g>
		</g>
		<g>
			<circle fill="#FFFFFF" cx="17.455" cy="17.455" r="17.455"/>
			<path fill="#F19E1F" d="M17.82,29.964h-0.744c-1.309-0.085-2.308-0.247-3.109-0.511c-0.338-1.954-0.695-3.883-1.057-5.812
				l-0.082-0.444c0.762,0.511,1.523,1.021,2.287,1.532c2.175,1.459,4.423,2.966,6.602,4.485C20.479,29.652,19.199,29.9,17.82,29.964
				L17.82,29.964z M12.197,28.796c-2.385-1.123-4.273-2.856-5.616-5.165c0.954-1.496,1.937-2.963,2.917-4.436l0.74-1.106
				C10.904,21.641,11.557,25.213,12.197,28.796L12.197,28.796z M23.505,28.41c-1.538-1.008-3.243-2.158-5.212-3.512
				c-0.079-0.056-0.155-0.108-0.229-0.163c2.81-0.524,5.602-1.069,8.392-1.614l2.368-0.461
				C27.684,25.105,25.895,27.035,23.505,28.41L23.505,28.41z M23.039,22.131c0.611-0.902,1.223-1.812,1.834-2.724
				c1.41-2.099,2.865-4.268,4.297-6.326c0.461,1.223,0.723,2.538,0.795,4.009v0.742c-0.072,1.207-0.234,2.217-0.488,3.061
				c-1.487,0.271-2.957,0.562-4.43,0.847C24.379,21.872,23.709,22.002,23.039,22.131L23.039,22.131z M5.761,21.877
				c-0.471-1.221-0.737-2.555-0.814-4.059v-0.742c0.076-1.215,0.233-2.223,0.489-3.062c1.349-0.254,2.688-0.519,4.026-0.779
				c0.779-0.154,1.558-0.308,2.338-0.456c-0.738,1.107-1.475,2.223-2.209,3.336C8.316,18.041,7.045,19.964,5.761,21.877
				L5.761,21.877z M24.762,16.641c-0.341-1.865-0.69-3.718-1.045-5.568c-0.311-1.633-0.621-3.267-0.924-4.906
				c2.372,1.107,4.242,2.85,5.561,5.182c-0.514,0.746-1.02,1.502-1.524,2.258C26.158,14.608,25.47,15.641,24.762,16.641
				L24.762,16.641z M6.092,12.223c0.539-1.192,1.301-2.319,2.316-3.432l0.528-0.522c0.919-0.802,1.747-1.396,2.52-1.802
				c1.179,0.812,2.354,1.613,3.532,2.416l1.817,1.24c-1.305,0.254-2.608,0.513-3.916,0.771C10.624,11.344,8.358,11.791,6.092,12.223
				L6.092,12.223z M22.178,11.68c-1.01-0.688-2.024-1.375-3.039-2.061c-1.914-1.294-3.89-2.627-5.812-3.973
				c1.197-0.408,2.43-0.636,3.764-0.701h0.744c1.016,0.069,2.19,0.188,3.165,0.531c0.213,1.078,0.416,2.167,0.62,3.254
				C21.801,9.715,21.985,10.701,22.178,11.68L22.178,11.68z"/>
		</g>
	</g>
</g>
</svg>
