<?xml version="1.0" encoding="utf-8"?>
<!-- Generator: Adobe Illustrator 16.0.0, SVG Export Plug-In . SVG Version: 6.00 Build 0)  -->
<!DOCTYPE svg PUBLIC "-//W3C//DTD SVG 1.1//EN" "http://www.w3.org/Graphics/SVG/1.1/DTD/svg11.dtd">
<svg version="1.1" id="Layer_1" xmlns="http://www.w3.org/2000/svg" xmlns:xlink="http://www.w3.org/1999/xlink" x="0px" y="0px"
	 width="52.364px" height="34.908px" viewBox="0 0 52.364 34.908" enable-background="new 0 0 52.364 34.908" xml:space="preserve">
<g id="CO-DIRECTOR_x2C___x201C_RIVAL_GUNS_x201D___x2F__x2F__BEST_IN_CENTRAL_TIME_ZONE_x2C__NATIONAL_FILM_CHALLENGE">
	<g opacity="0.85">
		<g>
			<circle fill="#7F5221" cx="34.909" cy="17.454" r="17.455"/>
			<g>
				<g>
					<path fill="#F19E1F" d="M41.063,18.157c-1.021,0.943-2.283,1.654-3.725,2.023c-0.381,0.099-0.76,0.158-1.139,0.203
						l2.504,10.516l1.461-5.184l3.644,3.962L41.063,18.157z M27.982,31.312l3.539-4.336l1.955,5.244l1.944-11.776
						c-1.959,0.053-3.842-0.562-5.365-1.687L27.982,31.312z M38.301,18.031l2.121,0.317l0.18-2.138l2.066-0.573l-0.705-2.021
						l1.654-1.366l-1.468-1.561l0.957-1.92L41.129,7.94l0.092-2.146l-2.141,0.048L38.293,3.85l-1.938,0.91l-1.528-1.504
						l-1.402,1.625l-2.01-0.754l-0.617,2.057l-2.141,0.129l0.27,2.128L27.022,9.43l1.111,1.834l-1.336,1.68l1.762,1.221
						l-0.537,2.077l2.107,0.402l0.353,2.115l2.089-0.491l1.182,1.79l1.709-1.299l1.807,1.152L38.301,18.031z"/>
				</g>
			</g>
		</g>
		<g>
			<circle fill="#FFFFFF" cx="17.455" cy="17.454" r="17.455"/>
			<path fill="#F19E1F" d="M17.819,29.963h-0.743c-1.309-0.085-2.308-0.248-3.11-0.512c-0.337-1.953-0.694-3.883-1.056-5.812
				l-0.082-0.444c0.761,0.512,1.522,1.021,2.286,1.533c2.175,1.461,4.423,2.966,6.602,4.485
				C20.479,29.652,19.199,29.899,17.819,29.963L17.819,29.963z M12.197,28.795c-2.384-1.123-4.273-2.856-5.616-5.165
				c0.955-1.497,1.937-2.964,2.917-4.435l0.74-1.107C10.904,21.642,11.556,25.212,12.197,28.795L12.197,28.795z M23.504,28.408
				c-1.538-1.006-3.243-2.156-5.212-3.513c-0.079-0.055-0.154-0.106-0.229-0.162c2.811-0.524,5.603-1.068,8.392-1.614l2.368-0.461
				C27.683,25.104,25.894,27.035,23.504,28.408L23.504,28.408z M23.039,22.13c0.611-0.902,1.223-1.812,1.834-2.724
				c1.41-2.101,2.866-4.269,4.297-6.326c0.461,1.223,0.723,2.539,0.795,4.01v0.741c-0.073,1.207-0.234,2.218-0.489,3.061
				c-1.489,0.271-2.957,0.562-4.43,0.848C24.378,21.871,23.709,22.002,23.039,22.13L23.039,22.13z M5.76,21.875
				c-0.471-1.221-0.738-2.555-0.815-4.058v-0.741c0.077-1.215,0.234-2.224,0.49-3.062c1.349-0.255,2.688-0.52,4.026-0.781
				c0.78-0.154,1.558-0.307,2.339-0.457c-0.739,1.108-1.475,2.225-2.209,3.337C8.316,18.04,7.044,19.963,5.76,21.875L5.76,21.875z
				 M24.761,16.639c-0.341-1.864-0.691-3.717-1.045-5.567c-0.31-1.631-0.621-3.267-0.923-4.905c2.372,1.106,4.243,2.849,5.561,5.181
				c-0.514,0.746-1.021,1.504-1.525,2.258C26.158,14.607,25.469,15.641,24.761,16.639L24.761,16.639z M6.091,12.221
				c0.54-1.19,1.301-2.317,2.317-3.431l0.529-0.522c0.918-0.803,1.747-1.396,2.519-1.803c1.179,0.812,2.354,1.614,3.532,2.416
				l1.818,1.241c-1.306,0.253-2.609,0.513-3.916,0.771C10.624,11.342,8.358,11.79,6.091,12.221L6.091,12.221z M22.177,11.679
				c-1.009-0.688-2.024-1.375-3.039-2.06c-1.915-1.295-3.89-2.628-5.812-3.975c1.196-0.406,2.43-0.635,3.764-0.699h0.743
				c1.016,0.067,2.191,0.188,3.166,0.53c0.212,1.078,0.416,2.167,0.619,3.253C21.801,9.715,21.985,10.701,22.177,11.679
				L22.177,11.679z"/>
		</g>
	</g>
</g>
</svg>
