<?xml version="1.0" encoding="utf-8"?>
<!-- Generator: Adobe Illustrator 16.0.0, SVG Export Plug-In . SVG Version: 6.00 Build 0)  -->
<!DOCTYPE svg PUBLIC "-//W3C//DTD SVG 1.1//EN" "http://www.w3.org/Graphics/SVG/1.1/DTD/svg11.dtd">
<svg version="1.1" id="Layer_1" xmlns="http://www.w3.org/2000/svg" xmlns:xlink="http://www.w3.org/1999/xlink" x="0px" y="0px"
	 width="52.883px" height="34.908px" viewBox="0 0 52.883 34.908" enable-background="new 0 0 52.883 34.908" xml:space="preserve">
<g id="ART_DIRECTOR__x2B__PROJECT_MANAGER__x2F__x2F__GATHERINGNOW.ORG_REDESIGN__x2B__LAUNCH">
	<g opacity="0.85">
		<g>
			<circle fill="#0A8040" cx="35.428" cy="17.455" r="17.455"/>
			<g>
				<g>
					<path fill="#5CBB58" d="M45.215,17.453c0-0.311-0.064-0.605-0.094-0.908l1.943-1.149c-0.193-1.104-0.554-2.142-1.029-3.118
						l-2.219,0.21c-0.314-0.528-0.672-1.02-1.074-1.477l0.895-2.067c-0.789-0.764-1.701-1.385-2.678-1.902l-1.637,1.441
						c-0.564-0.244-1.156-0.433-1.771-0.568l-0.479-2.139C36.529,5.7,35.992,5.61,35.428,5.61c-0.563,0-1.102,0.09-1.645,0.165
						l-0.479,2.139c-0.614,0.136-1.207,0.324-1.771,0.568l-1.637-1.441c-0.976,0.518-1.89,1.14-2.677,1.902l0.894,2.067
						c-0.402,0.457-0.76,0.947-1.074,1.477l-2.219-0.21c-0.478,0.977-0.836,2.014-1.029,3.118l1.943,1.149
						c-0.027,0.303-0.094,0.598-0.094,0.908c0,0.31,0.066,0.604,0.094,0.908l-1.943,1.149c0.193,1.104,0.553,2.142,1.029,3.117
						l2.219-0.209c0.314,0.527,0.672,1.019,1.074,1.476l-0.894,2.067c0.787,0.765,1.701,1.385,2.677,1.902l1.637-1.441
						c0.563,0.244,1.156,0.433,1.771,0.568l0.479,2.139c0.543,0.076,1.08,0.166,1.645,0.166c0.565,0,1.103-0.09,1.646-0.166
						l0.479-2.139c0.615-0.136,1.207-0.324,1.771-0.568l1.637,1.441c0.978-0.519,1.89-1.14,2.678-1.902l-0.895-2.067
						c0.401-0.457,0.76-0.947,1.073-1.476l2.22,0.209c0.477-0.978,0.836-2.014,1.028-3.117l-1.942-1.149
						C45.15,18.06,45.215,17.764,45.215,17.453z M35.428,22.367c-2.713,0-4.914-2.199-4.914-4.912c0-2.715,2.201-4.914,4.914-4.914
						s4.914,2.199,4.914,4.914C40.342,20.168,38.141,22.367,35.428,22.367z"/>
				</g>
			</g>
		</g>
		<g>
			<circle fill="#FFFFFF" cx="17.455" cy="17.455" r="17.455"/>
			<g>
				<path fill="#5CBB58" d="M28.654,9.95c0,0.657,0,1.314,0,1.973c-1.918,1.274-3.812,2.714-5.736,4.041
					c-0.43,0.296-1.473,1.22-2.02,1.238c-0.445,0.017-1.021-0.366-1.332-0.598c-0.533-0.397-1.656-1.45-1.607-2.339
					c0.021-0.37,0.422-0.77,0.689-1.146c1.359-1.918,2.457-3.462,3.811-5.37c0.289-0.407,1.107-1.93,1.744-1.93
					c0.455,0,0.852,0.577,1.193,0.918C26.508,7.848,27.711,9.021,28.654,9.95z"/>
				<path fill="#5CBB58" d="M20.395,19.269c0.047,4.188-1.045,6.819-3.764,8.217c-2.646,1.357-6.334,1.541-10.375,1.605
					c-0.02-0.177,0.188-0.195,0.277-0.275c0.879-0.802,1.57-1.783,1.926-3.213c0.395-1.578,0.344-3.389,0.965-4.865
					c1.096-2.611,3.975-4.002,6.748-4.957c0.564-0.195,0.838,0.479,1.146,0.918C18.123,17.846,19.396,18.543,20.395,19.269z"/>
			</g>
		</g>
	</g>
</g>
</svg>
