<?xml version="1.0" encoding="utf-8"?>
<!-- Generator: Adobe Illustrator 16.0.0, SVG Export Plug-In . SVG Version: 6.00 Build 0)  -->
<!DOCTYPE svg PUBLIC "-//W3C//DTD SVG 1.1//EN" "http://www.w3.org/Graphics/SVG/1.1/DTD/svg11.dtd">
<svg version="1.1" id="Layer_1" xmlns="http://www.w3.org/2000/svg" xmlns:xlink="http://www.w3.org/1999/xlink" x="0px" y="0px"
	 width="229.458px" height="426.068px" viewBox="-200.641 -393.758 229.458 426.068"
	 enable-background="new -200.641 -393.758 229.458 426.068" xml:space="preserve">
<g id="STL">
	<g>
		<g opacity="0.5">
			<g>
				<path fill="#A79C00" d="M26.808,6.729c-3.268-6.215-9.755-9.638-16.335-9.308L-184.87-393.732l-15.771-0.026L-2.339,3.321h0.596
					c-4.642,5.273-5.812,13.065-2.346,19.656c4.487,8.53,15.04,11.812,23.572,7.322C28.017,25.815,31.294,15.262,26.808,6.729z
					 M22.838,22.996l-9.743-0.677l0.012,6.207l-3.167,0.007l-0.013-6.437l-6.65-0.462l-2.969-2.771l3.558-2.315l6.053,0.421
					l-0.008-4.119L0,12.165l3.555-2.318L0.587,7.079l9.309,0.646L9.888,3.177L13.05,0l0.016,7.944l7.084,0.492l2.969,2.771
					l-3.555,2.317l-6.486-0.451l0.008,4.117l10.339,0.719l-3.554,2.318L22.838,22.996z"/>
			</g>
		</g>
		<g opacity="0.75">
			<g>
				<polygon fill="#FFFFFF" points="19.871,20.228 23.424,17.909 13.085,17.19 13.077,13.073 19.563,13.524 23.118,11.207 
					20.149,8.437 13.065,7.944 13.05,0 9.888,3.177 9.896,7.725 0.587,7.079 3.555,9.847 0,12.165 9.907,12.853 9.915,16.972 
					3.862,16.551 0.306,18.866 3.275,21.637 9.925,22.099 9.938,28.533 13.106,28.526 13.095,22.319 22.838,22.996 				"/>
			</g>
		</g>
	</g>
</g>
</svg>
