<?xml version="1.0" encoding="utf-8"?>
<!-- Generator: Adobe Illustrator 16.0.0, SVG Export Plug-In . SVG Version: 6.00 Build 0)  -->
<!DOCTYPE svg PUBLIC "-//W3C//DTD SVG 1.1//EN" "http://www.w3.org/Graphics/SVG/1.1/DTD/svg11.dtd">
<svg version="1.1" id="Layer_1" xmlns="http://www.w3.org/2000/svg" xmlns:xlink="http://www.w3.org/1999/xlink" x="0px" y="0px"
	 width="1295.868px" height="76.758px" viewBox="0 0 1295.868 76.758" enable-background="new 0 0 1295.868 76.758"
	 xml:space="preserve">
<g id="SWCH_BAR">
	<g id="SWTCH_BAR_1_">
		<polyline fill="#205680" points="978.663,35.13 999.079,0 18.671,0 0,35.13 968.772,35.13 978.663,35.13 		"/>
		<polygon opacity="0.85" fill="#0097BF" enable-background="new    " points="999.079,0 978.663,35.13 967.028,35.13 35.757,35.13 
			55.907,76.335 1036.315,76.335 		"/>
		<polyline fill="#1B95B5" points="999.079,0 18.671,0 35.757,35.13 1004.54,35.13 1016.174,35.13 999.079,0 		"/>
	</g>
</g>
<g id="SWCH_FADE">
	<g id="SWTCH_FADE">
		
			<linearGradient id="SVGID_1_" gradientUnits="userSpaceOnUse" x1="-5017.04" y1="678.7842" x2="-5279.1089" y2="774.1694" gradientTransform="matrix(1 0 0 1 6300.0005 -714.2422)">
			<stop  offset="0" style="stop-color:#E2E2E2"/>
			<stop  offset="0.1157" style="stop-color:#DCDEE0"/>
			<stop  offset="0.276" style="stop-color:#CAD5DB"/>
			<stop  offset="0.4623" style="stop-color:#AEC6D2"/>
			<stop  offset="0.6683" style="stop-color:#87B3C8"/>
			<stop  offset="0.8878" style="stop-color:#519FBC"/>
			<stop  offset="1" style="stop-color:#1B95B5"/>
		</linearGradient>
		<polyline fill="url(#SVGID_1_)" points="1295.868,0.006 999.081,0.004 1016.174,35.137 1263.815,35.137 1275.452,35.137 
			1295.868,0.006 		"/>
		
			<linearGradient id="SVGID_2_" gradientUnits="userSpaceOnUse" x1="-5078.1875" y1="730.8779" x2="-5265.7148" y2="799.1323" gradientTransform="matrix(1 0 0 1 6300.0005 -714.2422)">
			<stop  offset="0" style="stop-color:#E2E2E2"/>
			<stop  offset="0.1152" style="stop-color:#DCDFE0"/>
			<stop  offset="0.2749" style="stop-color:#CAD5DC"/>
			<stop  offset="0.4606" style="stop-color:#AEC7D6"/>
			<stop  offset="0.6659" style="stop-color:#86B5CE"/>
			<stop  offset="0.8847" style="stop-color:#4CA1C4"/>
			<stop  offset="1" style="stop-color:#0097BF"/>
		</linearGradient>
		<polygon opacity="0.85" fill="url(#SVGID_2_)" enable-background="new    " points="1228.545,35.133 1016.174,35.13 
			1036.317,76.34 1211.452,76.758 		"/>
	</g>
</g>
</svg>
