<?xml version="1.0" encoding="utf-8"?>
<!-- Generator: Adobe Illustrator 16.0.0, SVG Export Plug-In . SVG Version: 6.00 Build 0)  -->
<!DOCTYPE svg PUBLIC "-//W3C//DTD SVG 1.1//EN" "http://www.w3.org/Graphics/SVG/1.1/DTD/svg11.dtd">
<svg version="1.1" id="Layer_1" xmlns="http://www.w3.org/2000/svg" xmlns:xlink="http://www.w3.org/1999/xlink" x="0px" y="0px"
	 width="224.826px" height="17.918px" viewBox="0 0 224.826 17.918" enable-background="new 0 0 224.826 17.918"
	 xml:space="preserve">
<g id="SWITCH_LABEL">
	<g>
		<g>
			<path fill="#FFFFFF" d="M0.307,9.607l2.517-0.484c0,0.25,0.004,0.471,0.014,0.662c0.009,0.191,0.033,0.398,0.071,0.624
				c0.039,0.225,0.091,0.409,0.157,0.553c0.065,0.144,0.159,0.265,0.279,0.361c0.12,0.097,0.263,0.146,0.426,0.146
				c0.491,0,0.736-0.313,0.736-0.94c0-0.859-0.484-1.714-1.452-2.564l-0.77-0.655C2.039,7.104,1.843,6.934,1.698,6.798
				C1.552,6.661,1.381,6.477,1.183,6.246C0.985,6.014,0.831,5.79,0.719,5.574C0.607,5.358,0.512,5.098,0.433,4.793
				c-0.08-0.304-0.12-0.627-0.12-0.968c0-0.996,0.316-1.783,0.948-2.363c0.632-0.58,1.471-0.869,2.517-0.869
				c0.868,0,1.605,0.31,2.216,0.927c0.609,0.618,0.914,1.364,0.914,2.236L6.9,3.845c0,0.061,0,0.127,0,0.205L4.336,4.404
				c0-0.05,0.003-0.128,0.01-0.235c0.007-0.107,0.01-0.194,0.01-0.263c0-0.164-0.012-0.32-0.034-0.47
				c-0.023-0.15-0.062-0.3-0.112-0.45c-0.053-0.15-0.133-0.271-0.242-0.358C3.859,2.54,3.727,2.496,3.573,2.496
				c-0.273,0-0.479,0.106-0.614,0.32C2.823,3.03,2.754,3.282,2.754,3.573c0,0.254,0.04,0.493,0.12,0.716
				c0.079,0.223,0.2,0.431,0.361,0.624c0.161,0.193,0.31,0.354,0.445,0.48C3.818,5.521,4,5.676,4.227,5.86
				C4.455,6.044,4.616,6.18,4.711,6.266c0.35,0.309,0.646,0.599,0.886,0.869c0.24,0.271,0.469,0.576,0.684,0.917
				C6.493,8.393,6.654,8.761,6.76,9.156c0.106,0.395,0.16,0.822,0.16,1.281c0,0.859-0.307,1.562-0.92,2.11S4.641,13.37,3.764,13.37
				c-0.567,0-1.073-0.105-1.514-0.314s-0.797-0.493-1.067-0.852c-0.271-0.359-0.479-0.757-0.624-1.193
				C0.414,10.575,0.33,10.107,0.307,9.607z"/>
			<path fill="#FFFFFF" d="M8.322,13.118L6.625,0.845h2.114l0.764,8.127l1.05-8.127h1.821l1.029,8.08l0.798-8.08h2.121
				l-1.718,12.273h-2.121l-1.03-8.032l-1.009,8.032H8.322z"/>
			<path fill="#FFFFFF" d="M16.495,13.118V0.845h2.482v12.273H16.495z"/>
			<path fill="#FFFFFF" d="M20.903,13.118V2.7h-1.8V0.845h6.048V2.7h-1.766v10.418H20.903z"/>
			<path fill="#FFFFFF" d="M24.767,9.021V4.957c0-2.9,1.187-4.35,3.559-4.35c0.5,0,0.944,0.067,1.333,0.201
				c0.389,0.134,0.715,0.319,0.979,0.556c0.265,0.237,0.48,0.527,0.651,0.873c0.17,0.346,0.293,0.721,0.368,1.125
				c0.074,0.405,0.112,0.85,0.112,1.336v1.057h-2.441V4.623c0-0.223-0.004-0.415-0.014-0.576c-0.009-0.161-0.032-0.345-0.071-0.552
				s-0.091-0.375-0.157-0.504c-0.065-0.129-0.163-0.24-0.293-0.331c-0.129-0.091-0.285-0.136-0.467-0.136
				c-0.718,0-1.077,0.604-1.077,1.813v5.298c0,1.205,0.359,1.807,1.077,1.807c0.213,0,0.393-0.062,0.539-0.184
				c0.145-0.123,0.25-0.296,0.312-0.521c0.064-0.226,0.107-0.446,0.13-0.662s0.034-0.462,0.034-0.74V8.073h2.428v1.036
				c-0.01,0.468-0.048,0.9-0.116,1.295c-0.068,0.396-0.185,0.779-0.349,1.151c-0.164,0.373-0.371,0.688-0.624,0.944
				c-0.252,0.257-0.578,0.464-0.979,0.621c-0.399,0.157-0.859,0.234-1.377,0.234c-0.532,0-1.003-0.075-1.415-0.229
				c-0.412-0.152-0.75-0.357-1.016-0.614s-0.485-0.573-0.658-0.948c-0.172-0.375-0.294-0.769-0.365-1.183
				C24.802,9.971,24.767,9.516,24.767,9.021z"/>
			<path fill="#FFFFFF" d="M32.229,13.118V0.845h2.481v5.032h1.78V0.845h2.495v12.273H36.49V7.643h-1.78v5.475H32.229z"/>
			<path fill="#FFFFFF" d="M43.015,13.118l3.764-11.734h0.989l-3.771,11.734H43.015z"/>
			<path fill="#FFFFFF" d="M46.755,13.118l3.763-11.734h0.989l-3.771,11.734H46.755z"/>
			<path fill="#FFFFFF" d="M55.828,13.118V1.384h2.639c0.445,0,0.841,0.061,1.188,0.181c0.346,0.12,0.631,0.284,0.854,0.491
				c0.227,0.207,0.409,0.46,0.553,0.76c0.144,0.3,0.245,0.618,0.307,0.955c0.062,0.337,0.092,0.707,0.092,1.111v4.772
				c0,2.31-0.997,3.464-2.993,3.464H55.828z M56.865,12.286h1.602c1.305,0,1.957-0.8,1.957-2.4V4.65
				c0-1.623-0.652-2.434-1.957-2.434h-1.602V12.286z"/>
			<path fill="#FFFFFF" d="M62.527,13.118V1.384h1.037v11.734H62.527z"/>
			<path fill="#FFFFFF" d="M64.646,9.838V4.861c0-2.427,1.029-3.642,3.089-3.642c0.327,0,0.624,0.037,0.89,0.109
				C68.891,1.401,69.116,1.5,69.3,1.625c0.186,0.125,0.346,0.286,0.484,0.481c0.138,0.195,0.249,0.397,0.33,0.606
				c0.082,0.209,0.147,0.454,0.198,0.733c0.05,0.279,0.084,0.55,0.103,0.811c0.018,0.262,0.026,0.554,0.026,0.876v0.082h-1.036
				V5.127c0-0.018,0-0.048,0-0.089c0-0.332-0.003-0.583-0.01-0.753S69.37,3.89,69.343,3.61c-0.027-0.28-0.077-0.493-0.148-0.642
				c-0.073-0.146-0.168-0.302-0.286-0.463c-0.119-0.162-0.277-0.277-0.479-0.348c-0.2-0.07-0.437-0.105-0.709-0.105
				c-0.382,0-0.709,0.065-0.981,0.194s-0.483,0.31-0.634,0.542c-0.151,0.232-0.258,0.482-0.324,0.75
				c-0.065,0.268-0.1,0.563-0.1,0.886v5.864c0,0.3,0.027,0.568,0.082,0.808c0.056,0.239,0.148,0.468,0.283,0.686
				c0.134,0.218,0.335,0.388,0.604,0.508c0.268,0.121,0.598,0.181,0.988,0.181c0.359,0,0.666-0.062,0.92-0.19
				c0.255-0.127,0.446-0.302,0.573-0.521s0.217-0.448,0.271-0.685c0.052-0.236,0.078-0.498,0.078-0.784V8.305h-1.438V7.521h2.475
				v5.598H70.06l-0.307-1.146c-0.154,0.405-0.428,0.729-0.821,0.969c-0.393,0.239-0.828,0.36-1.306,0.36
				c-0.313,0-0.602-0.028-0.862-0.085c-0.262-0.057-0.486-0.13-0.679-0.221c-0.19-0.091-0.362-0.208-0.515-0.352
				s-0.277-0.285-0.375-0.426c-0.099-0.141-0.184-0.305-0.256-0.49c-0.072-0.187-0.127-0.354-0.163-0.504
				c-0.037-0.15-0.065-0.32-0.086-0.512s-0.033-0.346-0.037-0.464C64.647,10.129,64.646,9.993,64.646,9.838z"/>
			<path fill="#FFFFFF" d="M71.576,13.118V1.384h1.037v11.734H71.576z"/>
			<path fill="#FFFFFF" d="M74.957,13.118V2.216h-2.284V1.384h5.625v0.832h-2.305v10.902H74.957z"/>
			<path fill="#FFFFFF" d="M78.635,13.118h-1.043L79.91,1.384h1.35l2.318,11.734h-1.05l-0.586-3.056h-2.707L78.635,13.118z
				 M79.357,9.375h2.455l-1.234-6.914L79.357,9.375z"/>
			<path fill="#FFFFFF" d="M84.195,13.118V1.384h1.037v10.902h3.279v0.832H84.195z"/>
			<path fill="#FFFFFF" d="M90.831,13.118V1.384h2.871c0.409,0,0.772,0.056,1.091,0.167c0.319,0.111,0.582,0.262,0.791,0.453
				c0.209,0.191,0.382,0.423,0.518,0.696c0.137,0.271,0.233,0.56,0.29,0.862s0.085,0.628,0.085,0.979
				c0,0.359-0.023,0.691-0.071,0.995c-0.048,0.305-0.137,0.607-0.267,0.907c-0.13,0.3-0.296,0.553-0.498,0.76
				c-0.202,0.207-0.47,0.375-0.801,0.504c-0.332,0.129-0.714,0.194-1.146,0.194h-1.827v5.216L90.831,13.118L90.831,13.118z
				 M91.868,7.07l1.949,0.007c0.582,0.005,0.998-0.196,1.248-0.604c0.25-0.407,0.375-1.044,0.375-1.912
				c0-0.809-0.134-1.402-0.402-1.78c-0.269-0.377-0.675-0.566-1.221-0.566h-1.949V7.07z"/>
			<path fill="#FFFFFF" d="M96.979,13.118V1.384h3.13c0.396,0,0.743,0.054,1.043,0.164c0.3,0.109,0.542,0.253,0.727,0.433
				c0.184,0.18,0.333,0.402,0.446,0.668c0.113,0.266,0.192,0.541,0.235,0.825c0.043,0.284,0.064,0.599,0.064,0.944
				c0,1.496-0.545,2.443-1.636,2.843l1.812,5.857h-1.104l-1.712-5.727h-1.971v5.727H96.979z M98.016,6.559h2.086
				c0.296,0,0.546-0.059,0.75-0.177c0.204-0.118,0.358-0.287,0.46-0.504c0.103-0.218,0.174-0.446,0.215-0.682
				c0.041-0.236,0.062-0.507,0.062-0.812c0-0.25-0.013-0.475-0.037-0.675s-0.071-0.396-0.137-0.586
				c-0.066-0.191-0.153-0.351-0.263-0.48c-0.108-0.129-0.252-0.233-0.431-0.31c-0.177-0.078-0.384-0.116-0.62-0.116h-2.086
				L98.016,6.559L98.016,6.559z"/>
			<path fill="#FFFFFF" d="M103.556,13.118V1.384h4.091v0.832h-3.054v4.445h2.182v0.784h-2.182v4.841h3.054v0.832H103.556z"/>
			<path fill="#FFFFFF" d="M108.278,13.118V1.384h2.871c0.409,0,0.772,0.056,1.091,0.167c0.319,0.111,0.582,0.262,0.791,0.453
				c0.209,0.191,0.382,0.423,0.518,0.696c0.138,0.271,0.233,0.56,0.29,0.862s0.085,0.628,0.085,0.979
				c0,0.359-0.022,0.691-0.071,0.995c-0.048,0.305-0.137,0.607-0.266,0.907c-0.13,0.3-0.296,0.553-0.498,0.76
				s-0.47,0.375-0.801,0.504c-0.332,0.129-0.714,0.194-1.146,0.194h-1.827v5.216L108.278,13.118L108.278,13.118z M109.315,7.07
				l1.949,0.007c0.582,0.005,0.998-0.196,1.248-0.604c0.25-0.407,0.375-1.044,0.375-1.912c0-0.809-0.134-1.402-0.401-1.78
				c-0.27-0.377-0.675-0.566-1.222-0.566h-1.949V7.07z"/>
			<path fill="#FFFFFF" d="M114.426,13.118V1.384h3.13c0.396,0,0.743,0.054,1.043,0.164c0.301,0.109,0.543,0.253,0.728,0.433
				c0.184,0.18,0.333,0.402,0.446,0.668c0.112,0.266,0.191,0.541,0.234,0.825c0.043,0.284,0.064,0.599,0.064,0.944
				c0,1.496-0.545,2.443-1.637,2.843l1.813,5.857h-1.104l-1.711-5.727h-1.971v5.727H114.426z M115.463,6.559h2.086
				c0.296,0,0.546-0.059,0.75-0.177s0.358-0.287,0.46-0.504c0.104-0.218,0.174-0.446,0.215-0.682
				c0.041-0.236,0.062-0.507,0.062-0.812c0-0.25-0.014-0.475-0.037-0.675c-0.025-0.2-0.071-0.396-0.137-0.586
				c-0.066-0.191-0.153-0.351-0.264-0.48c-0.107-0.129-0.252-0.233-0.43-0.31c-0.177-0.078-0.384-0.116-0.62-0.116h-2.086V6.559z"/>
			<path fill="#FFFFFF" d="M121.003,13.118V1.384h4.091v0.832h-3.054v4.445h2.182v0.784h-2.182v4.841h3.054v0.832H121.003z"/>
			<path fill="#FFFFFF" d="M125.194,10.289l0.912-0.266c0.037,0.326,0.103,0.629,0.194,0.906c0.095,0.277,0.22,0.535,0.379,0.774
				c0.159,0.237,0.369,0.426,0.632,0.562c0.261,0.137,0.558,0.204,0.89,0.204c0.53,0,0.942-0.146,1.233-0.442
				c0.291-0.295,0.437-0.715,0.437-1.254c0-0.45-0.133-0.885-0.398-1.304c-0.266-0.418-0.657-0.899-1.177-1.445l-1.834-1.93
				c-0.398-0.422-0.706-0.817-0.92-1.186s-0.32-0.754-0.32-1.159c0-0.768,0.252-1.382,0.758-1.841
				c0.504-0.459,1.151-0.689,1.941-0.689c0.77,0,1.387,0.217,1.855,0.651c0.468,0.434,0.778,1.065,0.934,1.892l0.021,0.109
				l-0.873,0.273l-0.015-0.096c-0.091-0.586-0.301-1.066-0.63-1.438c-0.33-0.373-0.761-0.56-1.293-0.56
				c-0.518,0-0.931,0.132-1.236,0.396c-0.307,0.264-0.461,0.652-0.461,1.166c0,0.309,0.084,0.613,0.249,0.914
				c0.166,0.3,0.403,0.618,0.712,0.955l1.727,1.875c0.045,0.05,0.159,0.174,0.341,0.372c0.183,0.198,0.301,0.328,0.356,0.392
				c0.059,0.063,0.162,0.186,0.314,0.368c0.152,0.182,0.257,0.319,0.313,0.412c0.057,0.093,0.138,0.225,0.241,0.396
				c0.104,0.171,0.177,0.319,0.216,0.447c0.038,0.127,0.075,0.274,0.111,0.442s0.056,0.334,0.056,0.498
				c0,0.836-0.26,1.482-0.774,1.938s-1.183,0.682-2.001,0.682c-0.418,0-0.798-0.08-1.139-0.242c-0.342-0.16-0.629-0.383-0.862-0.664
				c-0.233-0.282-0.425-0.601-0.573-0.955C125.363,11.086,125.258,10.702,125.194,10.289z"/>
			<path fill="#FFFFFF" d="M130.96,10.289l0.913-0.266c0.037,0.326,0.103,0.629,0.194,0.906c0.094,0.277,0.22,0.535,0.379,0.774
				c0.158,0.237,0.369,0.426,0.631,0.562c0.261,0.137,0.558,0.204,0.89,0.204c0.531,0,0.943-0.146,1.233-0.442
				c0.291-0.295,0.437-0.715,0.437-1.254c0-0.45-0.133-0.885-0.397-1.304c-0.267-0.418-0.658-0.899-1.178-1.445l-1.834-1.93
				c-0.398-0.422-0.705-0.817-0.92-1.186c-0.214-0.368-0.319-0.754-0.319-1.159c0-0.768,0.252-1.382,0.757-1.841
				c0.504-0.459,1.152-0.689,1.941-0.689c0.77,0,1.388,0.217,1.855,0.651c0.468,0.434,0.779,1.065,0.934,1.892l0.021,0.109
				l-0.873,0.273l-0.014-0.096c-0.092-0.586-0.301-1.066-0.631-1.438c-0.33-0.373-0.761-0.56-1.293-0.56
				c-0.518,0-0.931,0.132-1.236,0.396c-0.307,0.264-0.46,0.652-0.46,1.166c0,0.309,0.083,0.613,0.249,0.914
				c0.166,0.3,0.402,0.618,0.712,0.955l1.726,1.875c0.045,0.05,0.159,0.174,0.342,0.372c0.182,0.198,0.301,0.328,0.356,0.392
				c0.058,0.063,0.162,0.186,0.313,0.368c0.152,0.182,0.258,0.319,0.313,0.412c0.058,0.093,0.138,0.225,0.242,0.396
				c0.104,0.171,0.176,0.319,0.215,0.447c0.038,0.127,0.075,0.274,0.112,0.442c0.035,0.168,0.055,0.334,0.055,0.498
				c0,0.836-0.259,1.482-0.773,1.938c-0.516,0.455-1.184,0.682-2.002,0.682c-0.418,0-0.798-0.08-1.139-0.242
				c-0.341-0.16-0.628-0.383-0.862-0.664c-0.233-0.282-0.425-0.601-0.573-0.955C131.129,11.086,131.022,10.702,130.96,10.289z"/>
			<path fill="#FFFFFF" d="M145.791,12.286v0.927c-0.351-0.021-0.704-0.124-1.063-0.303c-0.358-0.18-0.664-0.415-0.914-0.706
				c-0.771,0.727-1.612,1.091-2.521,1.091c-0.832,0-1.456-0.205-1.871-0.614c-0.416-0.409-0.624-0.94-0.624-1.595
				c0-0.623,0.169-1.281,0.508-1.974c0.339-0.693,0.802-1.276,1.388-1.749c-0.937-1.55-1.404-2.746-1.404-3.586
				c0-0.759,0.219-1.375,0.654-1.849c0.437-0.473,1.021-0.709,1.753-0.709c0.73,0,1.305,0.204,1.718,0.61
				c0.414,0.407,0.621,0.942,0.621,1.606c0,0.623-0.192,1.292-0.576,2.008c-0.385,0.716-0.961,1.417-1.729,2.104l2.188,3.361
				c0.678-0.9,1.016-1.875,1.016-2.925h0.873c0,0.505-0.126,1.089-0.378,1.752c-0.253,0.664-0.595,1.272-1.025,1.826
				C144.837,12.045,145.3,12.286,145.791,12.286z M143.344,11.557l-2.243-3.442c-0.387,0.354-0.707,0.802-0.965,1.343
				c-0.257,0.541-0.386,1.05-0.386,1.527c0,0.449,0.13,0.812,0.389,1.084c0.259,0.271,0.661,0.408,1.207,0.408
				C142.019,12.477,142.685,12.17,143.344,11.557z M141.346,6.798c0.52-0.496,0.933-1.044,1.241-1.647
				c0.309-0.602,0.463-1.165,0.463-1.688c0-0.432-0.107-0.775-0.327-1.029c-0.218-0.254-0.552-0.382-1.002-0.382
				c-0.255,0-0.478,0.059-0.668,0.174s-0.337,0.267-0.437,0.454c-0.102,0.187-0.174,0.375-0.223,0.566
				c-0.048,0.191-0.07,0.382-0.07,0.573C140.323,4.659,140.664,5.652,141.346,6.798z"/>
			<path fill="#FFFFFF" d="M148.31,13.118V1.384h2.87c0.409,0,0.772,0.056,1.091,0.167c0.319,0.111,0.582,0.262,0.791,0.453
				c0.209,0.191,0.383,0.423,0.519,0.696c0.137,0.271,0.233,0.56,0.29,0.862s0.085,0.628,0.085,0.979
				c0,0.359-0.022,0.691-0.071,0.995c-0.048,0.305-0.137,0.607-0.266,0.907c-0.13,0.3-0.296,0.553-0.498,0.76
				s-0.471,0.375-0.801,0.504c-0.332,0.129-0.715,0.194-1.146,0.194h-1.827v5.216L148.31,13.118L148.31,13.118z M149.346,7.07
				l1.949,0.007c0.582,0.005,0.998-0.196,1.248-0.604c0.25-0.407,0.375-1.044,0.375-1.912c0-0.809-0.134-1.402-0.401-1.78
				c-0.27-0.377-0.676-0.566-1.222-0.566h-1.949V7.07z"/>
			<path fill="#FFFFFF" d="M154.457,13.118V1.384h3.13c0.396,0,0.743,0.054,1.043,0.164c0.3,0.109,0.542,0.253,0.727,0.433
				s0.334,0.402,0.446,0.668c0.113,0.266,0.192,0.541,0.235,0.825c0.043,0.284,0.064,0.599,0.064,0.944
				c0,1.496-0.545,2.443-1.637,2.843l1.813,5.857h-1.104l-1.712-5.727h-1.97v5.727H154.457z M155.494,6.559h2.086
				c0.296,0,0.546-0.059,0.75-0.177s0.358-0.287,0.46-0.504c0.104-0.218,0.174-0.446,0.215-0.682
				c0.041-0.236,0.062-0.507,0.062-0.812c0-0.25-0.014-0.475-0.037-0.675c-0.025-0.2-0.071-0.396-0.137-0.586
				c-0.066-0.191-0.153-0.351-0.264-0.48c-0.107-0.129-0.252-0.233-0.43-0.31c-0.178-0.078-0.385-0.116-0.62-0.116h-2.086V6.559
				L155.494,6.559z"/>
			<path fill="#FFFFFF" d="M161.027,13.118V1.384h1.036v11.734H161.027z"/>
			<path fill="#FFFFFF" d="M163.363,13.118V1.384h0.798l3.716,9.293V1.384h0.88v11.734h-0.777l-3.723-9.095v9.095H163.363z"/>
			<path fill="#FFFFFF" d="M171.093,13.118V2.216h-2.283V1.384h5.625v0.832h-2.306v10.902H171.093z"/>
			<path fill="#FFFFFF" d="M176.022,10.289l0.914-0.266c0.036,0.326,0.102,0.629,0.193,0.906c0.094,0.277,0.221,0.535,0.379,0.774
				c0.159,0.237,0.369,0.426,0.631,0.562c0.262,0.137,0.559,0.204,0.891,0.204c0.531,0,0.942-0.146,1.232-0.442
				c0.291-0.295,0.438-0.715,0.438-1.254c0-0.45-0.133-0.885-0.398-1.304c-0.266-0.418-0.658-0.899-1.177-1.445l-1.834-1.93
				c-0.399-0.422-0.706-0.817-0.92-1.186s-0.32-0.754-0.32-1.159c0-0.768,0.252-1.382,0.757-1.841
				c0.504-0.459,1.152-0.689,1.942-0.689c0.769,0,1.387,0.217,1.854,0.651c0.469,0.434,0.779,1.065,0.935,1.892l0.021,0.109
				l-0.873,0.273l-0.014-0.096c-0.091-0.586-0.301-1.066-0.63-1.438c-0.33-0.373-0.761-0.56-1.293-0.56
				c-0.519,0-0.931,0.132-1.237,0.396c-0.306,0.264-0.46,0.652-0.46,1.166c0,0.309,0.083,0.613,0.249,0.914
				c0.166,0.3,0.403,0.618,0.712,0.955l1.727,1.875c0.045,0.05,0.159,0.174,0.341,0.372s0.301,0.328,0.357,0.392
				c0.058,0.063,0.161,0.186,0.313,0.368c0.152,0.182,0.257,0.319,0.313,0.412c0.057,0.093,0.138,0.225,0.241,0.396
				c0.104,0.171,0.177,0.319,0.216,0.447c0.037,0.127,0.074,0.274,0.111,0.442c0.036,0.168,0.055,0.334,0.055,0.498
				c0,0.836-0.259,1.482-0.773,1.938c-0.516,0.455-1.184,0.682-2.001,0.682c-0.418,0-0.798-0.08-1.14-0.242
				c-0.341-0.16-0.627-0.383-0.861-0.664c-0.234-0.282-0.425-0.601-0.573-0.955C176.192,11.086,176.087,10.702,176.022,10.289z"/>
			<path fill="#FFFFFF" d="M182.32,13.118V1.384h2.87c0.41,0,0.772,0.056,1.092,0.167c0.318,0.111,0.582,0.262,0.791,0.453
				c0.209,0.191,0.382,0.423,0.518,0.696c0.137,0.271,0.233,0.56,0.29,0.862c0.058,0.302,0.085,0.628,0.085,0.979
				c0,0.359-0.022,0.691-0.07,0.995c-0.049,0.305-0.138,0.607-0.267,0.907c-0.13,0.3-0.296,0.553-0.498,0.76
				s-0.47,0.375-0.801,0.504c-0.332,0.129-0.714,0.194-1.146,0.194h-1.828v5.216L182.32,13.118L182.32,13.118z M183.356,7.07
				l1.949,0.007c0.582,0.005,0.998-0.196,1.248-0.604c0.25-0.407,0.375-1.044,0.375-1.912c0-0.809-0.134-1.402-0.401-1.78
				c-0.27-0.377-0.675-0.566-1.222-0.566h-1.949V7.07z"/>
			<path fill="#FFFFFF" d="M188.468,13.118V1.384h4.092v0.832h-3.055v4.445h2.182v0.784h-2.182v4.841h3.055v0.832H188.468z"/>
			<path fill="#FFFFFF" d="M192.973,9.716V4.8c0-0.418,0.027-0.797,0.082-1.139c0.056-0.341,0.15-0.666,0.289-0.975
				c0.14-0.309,0.317-0.569,0.536-0.781c0.218-0.211,0.496-0.378,0.835-0.501c0.338-0.123,0.73-0.185,1.177-0.185
				c1.836,0,2.754,1.193,2.754,3.58v0.479h-0.988v-0.71c0-0.377-0.028-0.711-0.085-1.002c-0.058-0.291-0.151-0.553-0.283-0.788
				s-0.313-0.414-0.549-0.539c-0.233-0.125-0.518-0.188-0.849-0.188c-0.301,0-0.562,0.042-0.785,0.126s-0.402,0.199-0.541,0.345
				c-0.14,0.146-0.25,0.327-0.334,0.545c-0.084,0.218-0.143,0.446-0.174,0.685c-0.033,0.239-0.049,0.51-0.049,0.815v5.379
				c0,0.386,0.027,0.722,0.082,1.006s0.148,0.545,0.283,0.784c0.134,0.238,0.328,0.421,0.583,0.545
				c0.254,0.125,0.565,0.188,0.935,0.188c0.331,0,0.614-0.062,0.849-0.188c0.233-0.125,0.417-0.307,0.549-0.542
				c0.132-0.236,0.228-0.5,0.283-0.791c0.057-0.291,0.085-0.625,0.085-1.002V9.143h0.988v0.573c0,0.414-0.024,0.791-0.074,1.132
				c-0.051,0.342-0.141,0.667-0.271,0.979c-0.129,0.312-0.296,0.573-0.501,0.784c-0.204,0.211-0.468,0.379-0.791,0.504
				c-0.322,0.125-0.695,0.188-1.117,0.188c-0.455,0-0.854-0.062-1.196-0.188c-0.345-0.125-0.623-0.293-0.839-0.504
				c-0.217-0.211-0.392-0.474-0.525-0.784c-0.134-0.312-0.227-0.636-0.279-0.976C192.999,10.513,192.973,10.134,192.973,9.716z"/>
			<path fill="#FFFFFF" d="M199.521,13.118V1.384h1.037v11.734H199.521z"/>
			<path fill="#FFFFFF" d="M202.226,13.118h-1.043l2.318-11.734h1.35l2.318,11.734h-1.05l-0.586-3.056h-2.707L202.226,13.118z
				 M202.948,9.375h2.455l-1.234-6.914L202.948,9.375z"/>
			<path fill="#FFFFFF" d="M207.786,13.118V1.384h1.037v10.902h3.279v0.832H207.786z"/>
			<path fill="#FFFFFF" d="M212.345,13.118V1.384h1.037v11.734H212.345z"/>
			<path fill="#FFFFFF" d="M214.149,10.289l0.912-0.266c0.037,0.326,0.103,0.629,0.194,0.906c0.095,0.277,0.22,0.535,0.379,0.774
				c0.159,0.237,0.369,0.426,0.632,0.562c0.261,0.137,0.558,0.204,0.89,0.204c0.53,0,0.942-0.146,1.232-0.442
				c0.291-0.295,0.438-0.715,0.438-1.254c0-0.45-0.134-0.885-0.398-1.304c-0.266-0.418-0.657-0.899-1.177-1.445l-1.834-1.93
				c-0.398-0.422-0.706-0.817-0.92-1.186s-0.32-0.754-0.32-1.159c0-0.768,0.252-1.382,0.758-1.841
				c0.504-0.459,1.151-0.689,1.941-0.689c0.77,0,1.387,0.217,1.855,0.651c0.468,0.434,0.778,1.065,0.934,1.892l0.021,0.109
				l-0.873,0.273l-0.015-0.096c-0.091-0.586-0.301-1.066-0.63-1.438c-0.33-0.373-0.761-0.56-1.293-0.56
				c-0.518,0-0.931,0.132-1.237,0.396c-0.306,0.264-0.46,0.652-0.46,1.166c0,0.309,0.083,0.613,0.249,0.914
				c0.166,0.3,0.403,0.618,0.712,0.955l1.727,1.875c0.045,0.05,0.158,0.174,0.341,0.372c0.182,0.198,0.301,0.328,0.356,0.392
				c0.059,0.063,0.162,0.186,0.314,0.368c0.152,0.182,0.257,0.319,0.312,0.412c0.058,0.093,0.139,0.225,0.242,0.396
				c0.104,0.171,0.176,0.319,0.215,0.447c0.039,0.127,0.075,0.274,0.112,0.442c0.036,0.168,0.056,0.334,0.056,0.498
				c0,0.836-0.26,1.482-0.774,1.938s-1.183,0.682-2.001,0.682c-0.418,0-0.798-0.08-1.139-0.242c-0.342-0.16-0.629-0.383-0.862-0.664
				c-0.234-0.282-0.425-0.601-0.573-0.955C214.317,11.086,214.213,10.702,214.149,10.289z"/>
			<path fill="#FFFFFF" d="M221.49,13.118V2.216h-2.284V1.384h5.625v0.832h-2.305v10.902H221.49z"/>
		</g>
	</g>
</g>
</svg>
