<?xml version="1.0" encoding="utf-8"?>
<!-- Generator: Adobe Illustrator 16.0.0, SVG Export Plug-In . SVG Version: 6.00 Build 0)  -->
<!DOCTYPE svg PUBLIC "-//W3C//DTD SVG 1.1//EN" "http://www.w3.org/Graphics/SVG/1.1/DTD/svg11.dtd">
<svg version="1.1" id="Layer_1" xmlns="http://www.w3.org/2000/svg" xmlns:xlink="http://www.w3.org/1999/xlink" x="0px" y="0px"
	 width="52.363px" height="34.91px" viewBox="0 0 52.363 34.91" enable-background="new 0 0 52.363 34.91" xml:space="preserve">
<g id="DIRECTOR_x2C__GENTLEMAN_AUCTION_HOUSE_x2019_S__x201C_THE_BOOK_OF_MATCHES_x201D___x2F__x2F__BEST_MUSIC_VIDEO_x2C__CROSSROADS_FILM_FEST">
	<g opacity="0.85">
		<g>
			<circle fill="#7F5221" cx="34.909" cy="17.454" r="17.454"/>
			<g>
				<g>
					<path fill="#F19E1F" d="M27.98,31.313l3.539-4.336l1.955,5.243l1.942-11.775c-1.959,0.053-3.84-0.562-5.365-1.689L27.98,31.313
						z M41.062,18.16c-1.021,0.941-2.283,1.653-3.726,2.021c-0.379,0.098-0.76,0.158-1.139,0.203l2.506,10.515l1.461-5.183
						l3.644,3.963L41.062,18.16z M38.303,18.033l2.119,0.317l0.18-2.139l2.066-0.572l-0.705-2.021l1.654-1.366L42.15,10.69
						l0.955-1.92l-1.978-0.83l0.094-2.145L39.08,5.843l-0.787-1.992l-1.939,0.91l-1.528-1.504l-1.402,1.625l-2.008-0.754
						l-0.619,2.057l-2.141,0.128l0.27,2.128l-1.901,0.99l1.11,1.833l-1.336,1.681l1.763,1.22l-0.537,2.078l2.106,0.402l0.353,2.113
						l2.09-0.49l1.182,1.791l1.709-1.301l1.807,1.154L38.303,18.033z"/>
				</g>
			</g>
		</g>
		<g>
			<circle fill="#FFFFFF" cx="17.454" cy="17.454" r="17.454"/>
			<path fill="#F19E1F" d="M17.818,29.964h-0.742c-1.309-0.086-2.309-0.248-3.111-0.512c-0.336-1.953-0.693-3.883-1.055-5.812
				l-0.082-0.445c0.762,0.512,1.523,1.021,2.287,1.533c2.174,1.46,4.422,2.967,6.602,4.486
				C20.479,29.652,19.199,29.901,17.818,29.964L17.818,29.964z M12.195,28.796c-2.383-1.123-4.271-2.857-5.615-5.166
				c0.955-1.496,1.938-2.963,2.918-4.436l0.738-1.105C10.904,21.642,11.555,25.212,12.195,28.796L12.195,28.796z M23.504,28.41
				c-1.537-1.008-3.242-2.156-5.213-3.513c-0.078-0.056-0.154-0.106-0.229-0.161c2.811-0.525,5.604-1.07,8.393-1.615l2.369-0.461
				C27.682,25.106,25.895,27.035,23.504,28.41L23.504,28.41z M23.039,22.13c0.611-0.902,1.223-1.811,1.834-2.723
				c1.41-2.101,2.863-4.269,4.295-6.327c0.463,1.223,0.725,2.539,0.797,4.009v0.742c-0.072,1.207-0.234,2.216-0.488,3.06
				c-1.489,0.271-2.957,0.562-4.43,0.848C24.379,21.873,23.709,22.003,23.039,22.13L23.039,22.13z M5.76,21.876
				c-0.471-1.221-0.738-2.555-0.815-4.058v-0.742c0.078-1.215,0.235-2.223,0.49-3.06c1.35-0.256,2.689-0.52,4.025-0.781
				c0.781-0.154,1.559-0.308,2.34-0.457c-0.738,1.108-1.475,2.225-2.209,3.336C8.316,18.041,7.043,19.964,5.76,21.876L5.76,21.876z
				 M24.762,16.64c-0.342-1.865-0.692-3.717-1.047-5.567c-0.311-1.631-0.619-3.267-0.922-4.905c2.371,1.106,4.242,2.849,5.561,5.181
				c-0.514,0.746-1.021,1.504-1.524,2.258C26.158,14.608,25.469,15.642,24.762,16.64L24.762,16.64z M6.09,12.222
				c0.541-1.19,1.303-2.318,2.318-3.431l0.527-0.522c0.918-0.803,1.746-1.396,2.52-1.803c1.178,0.812,2.355,1.613,3.531,2.416
				l1.819,1.24c-1.307,0.254-2.61,0.514-3.916,0.772C10.623,11.343,8.357,11.791,6.09,12.222L6.09,12.222z M22.178,11.68
				c-1.01-0.689-2.024-1.375-3.039-2.06c-1.916-1.295-3.891-2.628-5.812-3.975c1.195-0.406,2.43-0.635,3.764-0.7h0.742
				c1.016,0.068,2.191,0.188,3.166,0.53c0.213,1.079,0.416,2.168,0.619,3.254C21.801,9.715,21.984,10.701,22.178,11.68L22.178,11.68
				z"/>
		</g>
	</g>
</g>
</svg>
