<?xml version="1.0" encoding="utf-8"?>
<!-- Generator: Adobe Illustrator 16.0.0, SVG Export Plug-In . SVG Version: 6.00 Build 0)  -->
<!DOCTYPE svg PUBLIC "-//W3C//DTD SVG 1.1//EN" "http://www.w3.org/Graphics/SVG/1.1/DTD/svg11.dtd">
<svg version="1.1" id="Layer_1" xmlns="http://www.w3.org/2000/svg" xmlns:xlink="http://www.w3.org/1999/xlink" x="0px" y="0px"
	 width="118.672px" height="34.136px" viewBox="0 0 118.672 34.136" enable-background="new 0 0 118.672 34.136"
	 xml:space="preserve">
<g id="TGUMC_LABEL">
	<g>
		<g>
			<path fill="#FFFFFF" d="M1.896,13.118V2.7h-1.8V0.845h6.048V2.7H4.377v10.418H1.896z"/>
			<path fill="#FFFFFF" d="M6.27,13.118V0.845h2.481v5.032h1.78V0.845h2.495v12.273h-2.495V7.643h-1.78v5.475H6.27z"/>
			<path fill="#FFFFFF" d="M13.787,13.118V0.845h5.12V2.55h-2.639v3.341h1.868v1.745h-1.868v3.777h2.639v1.705H13.787z"/>
			<path fill="#FFFFFF" d="M21.036,9.279V4.957c0-2.9,1.207-4.35,3.621-4.35c0.509,0,0.962,0.067,1.36,0.201
				c0.397,0.134,0.73,0.319,0.999,0.556c0.268,0.236,0.488,0.527,0.661,0.873c0.173,0.346,0.298,0.721,0.375,1.125
				c0.077,0.405,0.115,0.85,0.115,1.336V5.42h-2.372V4.562c0-0.214-0.006-0.401-0.018-0.562c-0.011-0.162-0.039-0.341-0.085-0.539
				c-0.046-0.198-0.106-0.36-0.184-0.488c-0.078-0.127-0.188-0.233-0.335-0.319c-0.146-0.086-0.317-0.129-0.518-0.129
				c-0.76,0-1.139,0.604-1.139,1.813v5.298c0,1.205,0.379,1.807,1.139,1.807c0.754,0,1.132-0.625,1.132-1.875V8.584h-1.404V6.805
				h3.886v6.313h-1.704l-0.313-0.859c-0.21,0.327-0.507,0.592-0.894,0.794c-0.387,0.202-0.784,0.304-1.193,0.304
				c-0.44,0-0.842-0.081-1.203-0.242c-0.361-0.161-0.659-0.375-0.894-0.641s-0.432-0.578-0.59-0.938
				c-0.159-0.359-0.272-0.726-0.341-1.101C21.068,10.06,21.036,9.675,21.036,9.279z"/>
			<path fill="#FFFFFF" d="M28.268,13.118L30.92,0.845h2.195l2.646,12.273h-2.448l-0.504-2.625h-1.603l-0.478,2.625H28.268z
				 M31.377,8.966h1.268l-0.62-4.555L31.377,8.966z"/>
			<path fill="#FFFFFF" d="M36.679,13.118V2.7h-1.8V0.845h6.048V2.7H39.16v10.418H36.679z"/>
			<path fill="#FFFFFF" d="M41.053,13.118V0.845h2.481v5.032h1.78V0.845h2.495v12.273h-2.495V7.643h-1.78v5.475H41.053z"/>
			<path fill="#FFFFFF" d="M48.571,13.118V0.845h5.12V2.55h-2.639v3.341h1.868v1.745h-1.868v3.777h2.639v1.705H48.571z"/>
			<path fill="#FFFFFF" d="M53.88,13.118V0.845h2.7c0.613,0,1.153,0.059,1.619,0.174c0.466,0.116,0.874,0.297,1.224,0.545
				c0.351,0.248,0.616,0.582,0.798,1.002c0.183,0.42,0.272,0.924,0.272,1.51c0,0.255-0.009,0.482-0.027,0.682
				c-0.018,0.2-0.06,0.428-0.126,0.686c-0.064,0.257-0.154,0.483-0.269,0.682s-0.277,0.392-0.491,0.583s-0.466,0.35-0.757,0.478
				c0.736,2.336,1.377,4.313,1.923,5.932h-2.57l-1.405-5.652h-0.409v5.652H53.88z M56.361,5.952h0.71
				c0.189,0,0.354-0.063,0.49-0.191c0.137-0.127,0.235-0.289,0.297-0.483c0.062-0.195,0.104-0.375,0.13-0.539
				c0.023-0.164,0.037-0.318,0.037-0.464s-0.01-0.295-0.03-0.45c-0.021-0.155-0.058-0.326-0.109-0.515
				c-0.053-0.188-0.139-0.343-0.259-0.463c-0.121-0.121-0.268-0.181-0.44-0.181h-0.825L56.361,5.952L56.361,5.952z"/>
			<path fill="#FFFFFF" d="M60.832,13.118V0.845h2.48v12.273H60.832z"/>
			<path fill="#FFFFFF" d="M64.074,13.118V0.838h1.786l2.692,6.423V0.838h2.061v12.28h-1.719l-2.688-6.812v6.812H64.074z"/>
			<path fill="#FFFFFF" d="M71.217,9.279V4.957c0-2.9,1.207-4.35,3.621-4.35c0.509,0,0.962,0.067,1.36,0.201
				c0.396,0.134,0.729,0.319,0.999,0.556c0.268,0.236,0.488,0.527,0.66,0.873c0.174,0.346,0.299,0.721,0.375,1.125
				c0.078,0.405,0.115,0.85,0.115,1.336V5.42h-2.371V4.562c0-0.214-0.007-0.401-0.019-0.562c-0.011-0.162-0.039-0.341-0.085-0.539
				s-0.105-0.36-0.184-0.488c-0.078-0.127-0.189-0.233-0.336-0.319c-0.146-0.086-0.316-0.129-0.518-0.129
				c-0.76,0-1.139,0.604-1.139,1.813v5.298c0,1.205,0.379,1.807,1.139,1.807c0.754,0,1.132-0.625,1.132-1.875V8.584h-1.403V6.805
				h3.886v6.313h-1.704l-0.312-0.859c-0.211,0.327-0.508,0.592-0.895,0.794c-0.387,0.202-0.784,0.304-1.193,0.304
				c-0.439,0-0.842-0.081-1.203-0.242c-0.36-0.161-0.658-0.375-0.894-0.641c-0.233-0.266-0.431-0.578-0.59-0.938
				c-0.159-0.359-0.272-0.726-0.341-1.101C71.249,10.06,71.217,9.675,71.217,9.279z"/>
			<path fill="#FFFFFF" d="M81.159,8.557V0.845h2.481v7.637c0,0.436,0.002,0.753,0.008,0.951c0.004,0.198,0.016,0.438,0.032,0.723
				c0.02,0.284,0.052,0.482,0.097,0.597c0.046,0.113,0.107,0.236,0.188,0.368s0.184,0.218,0.311,0.259
				c0.128,0.041,0.281,0.062,0.465,0.062c0.182,0,0.336-0.021,0.463-0.062c0.128-0.041,0.23-0.126,0.311-0.255
				c0.079-0.13,0.144-0.251,0.188-0.365c0.046-0.114,0.077-0.311,0.096-0.59c0.019-0.28,0.029-0.516,0.034-0.709
				c0.004-0.193,0.007-0.506,0.007-0.938c0-0.019,0-0.032,0-0.041V0.845h2.481v7.711c0,0.392-0.012,0.746-0.034,1.064
				c-0.022,0.318-0.065,0.647-0.129,0.988c-0.064,0.341-0.15,0.642-0.261,0.904c-0.107,0.261-0.254,0.511-0.437,0.75
				c-0.182,0.238-0.396,0.436-0.644,0.589c-0.248,0.155-0.547,0.277-0.896,0.368c-0.351,0.091-0.744,0.137-1.18,0.137
				c-0.438,0-0.83-0.045-1.18-0.137c-0.352-0.091-0.647-0.213-0.895-0.368c-0.245-0.154-0.459-0.351-0.641-0.589
				c-0.183-0.239-0.327-0.489-0.438-0.75c-0.109-0.262-0.195-0.562-0.263-0.904c-0.065-0.341-0.11-0.67-0.134-0.988
				C81.171,9.302,81.159,8.948,81.159,8.557z"/>
			<path fill="#FFFFFF" d="M89.023,13.118V0.845h2.974l1.31,8.183l1.411-8.183h2.87v12.273h-1.827l-0.055-8.632
				c-0.136,0.886-0.375,2.325-0.716,4.315c-0.342,1.991-0.579,3.43-0.717,4.316H92.42l-1.507-8.688l-0.056,8.688H89.023z"/>
			<path fill="#FFFFFF" d="M98.191,9.021V4.957c0-2.9,1.187-4.35,3.56-4.35c0.5,0,0.944,0.067,1.333,0.201
				c0.389,0.134,0.715,0.319,0.979,0.556c0.265,0.237,0.48,0.527,0.651,0.873c0.17,0.346,0.293,0.721,0.368,1.125
				c0.074,0.405,0.112,0.85,0.112,1.336v1.057h-2.441V4.623c0-0.223-0.004-0.415-0.014-0.576c-0.009-0.161-0.032-0.345-0.071-0.552
				s-0.091-0.375-0.157-0.504c-0.064-0.129-0.163-0.24-0.293-0.331c-0.129-0.091-0.284-0.136-0.467-0.136
				c-0.719,0-1.077,0.604-1.077,1.813v5.298c0,1.205,0.358,1.807,1.077,1.807c0.214,0,0.394-0.062,0.539-0.184
				c0.146-0.123,0.249-0.296,0.313-0.521c0.062-0.226,0.105-0.446,0.129-0.662c0.022-0.216,0.033-0.462,0.033-0.74V8.073h2.429
				v1.036c-0.011,0.468-0.048,0.9-0.116,1.295s-0.184,0.78-0.348,1.151c-0.164,0.373-0.371,0.688-0.625,0.944
				c-0.252,0.257-0.577,0.464-0.979,0.621c-0.398,0.157-0.857,0.235-1.377,0.235c-0.532,0-1.004-0.076-1.415-0.229
				c-0.411-0.153-0.75-0.357-1.016-0.614c-0.267-0.257-0.485-0.573-0.658-0.948s-0.294-0.769-0.364-1.183
				C98.227,9.971,98.191,9.516,98.191,9.021z"/>
			<path fill="#FFFFFF" d="M108.924,13.118l3.764-11.734h0.988l-3.771,11.734H108.924z"/>
			<path fill="#FFFFFF" d="M112.664,13.118l3.763-11.734h0.989l-3.771,11.734H112.664z"/>
			<path fill="#FFFFFF" d="M11.347,29.875V18.141h1.275l2.264,10.132c0.277-1.328,0.646-2.951,1.104-4.872s0.846-3.674,1.159-5.26
				h1.274v11.733h-0.92v-9.389l-2.168,9.389h-0.9l-2.168-9.381v9.381H11.347z"/>
			<path fill="#FFFFFF" d="M19.717,29.875V18.141h4.091v0.831h-3.054v4.445h2.182v0.785h-2.182v4.84h3.054v0.832H19.717z"/>
			<path fill="#FFFFFF" d="M24.439,29.875V18.141h2.639c0.445,0,0.841,0.06,1.187,0.181c0.347,0.12,0.631,0.284,0.855,0.491
				c0.226,0.207,0.409,0.46,0.553,0.761c0.144,0.299,0.245,0.617,0.307,0.955c0.062,0.336,0.092,0.707,0.092,1.109v4.773
				c0,2.309-0.997,3.463-2.993,3.463H24.439z M25.477,29.042h1.602c1.305,0,1.957-0.801,1.957-2.4v-5.236
				c0-1.623-0.652-2.434-1.957-2.434h-1.602V29.042z"/>
			<path fill="#FFFFFF" d="M31.14,29.875V18.141h1.037v11.733H31.14z"/>
			<path fill="#FFFFFF" d="M33.844,29.875h-1.043l2.318-11.733h1.35l2.318,11.733h-1.05l-0.586-3.055h-2.707L33.844,29.875z
				 M34.566,26.13h2.455l-1.234-6.914L34.566,26.13z"/>
			<path fill="#FFFFFF" d="M41.257,26.472v-4.916c0-0.418,0.027-0.797,0.082-1.139c0.055-0.342,0.15-0.666,0.289-0.976
				c0.139-0.31,0.317-0.569,0.536-0.78c0.218-0.211,0.496-0.379,0.835-0.502c0.338-0.123,0.73-0.184,1.176-0.184
				c1.837,0,2.755,1.193,2.755,3.58v0.479h-0.99v-0.709c0-0.377-0.028-0.711-0.085-1.002s-0.151-0.554-0.283-0.789
				c-0.132-0.234-0.314-0.414-0.549-0.539c-0.233-0.125-0.517-0.188-0.849-0.188c-0.3,0-0.562,0.042-0.784,0.126
				s-0.402,0.198-0.542,0.345c-0.139,0.146-0.25,0.327-0.334,0.545c-0.084,0.219-0.142,0.446-0.174,0.686
				c-0.032,0.238-0.048,0.51-0.048,0.814v5.379c0,0.387,0.027,0.723,0.082,1.006c0.055,0.285,0.148,0.545,0.283,0.785
				c0.134,0.238,0.328,0.42,0.583,0.545c0.254,0.125,0.564,0.188,0.934,0.188c0.332,0,0.615-0.062,0.849-0.188
				s0.417-0.307,0.549-0.543c0.132-0.236,0.227-0.5,0.283-0.791c0.057-0.291,0.085-0.625,0.085-1.002v-0.805h0.989v0.572
				c0,0.414-0.024,0.791-0.075,1.133s-0.14,0.667-0.27,0.979c-0.129,0.312-0.296,0.574-0.501,0.785
				c-0.204,0.211-0.468,0.379-0.791,0.504c-0.322,0.125-0.695,0.188-1.118,0.188c-0.454,0-0.854-0.062-1.196-0.188
				c-0.344-0.125-0.623-0.293-0.839-0.504c-0.216-0.211-0.391-0.474-0.524-0.785c-0.134-0.312-0.228-0.635-0.279-0.975
				C41.283,27.269,41.257,26.891,41.257,26.472z"/>
			<path fill="#FFFFFF" d="M47.595,26.472v-4.916c0-0.414,0.03-0.793,0.092-1.139s0.165-0.672,0.311-0.979s0.329-0.566,0.552-0.777
				c0.223-0.211,0.507-0.377,0.854-0.5c0.346-0.123,0.741-0.185,1.187-0.185c0.446,0,0.841,0.062,1.188,0.185
				c0.345,0.123,0.629,0.289,0.853,0.5c0.223,0.211,0.406,0.471,0.552,0.777c0.146,0.307,0.249,0.633,0.312,0.979
				c0.062,0.346,0.092,0.725,0.092,1.139v4.916c0,2.391-0.998,3.586-2.993,3.586S47.595,28.863,47.595,26.472z M52.545,26.705
				v-5.379c0-1.678-0.652-2.517-1.957-2.517c-1.305,0-1.957,0.839-1.957,2.517v5.379c0,1.682,0.652,2.521,1.957,2.521
				C51.893,29.226,52.545,28.386,52.545,26.705z"/>
			<path fill="#FFFFFF" d="M54.438,26.472v-4.916c0-0.414,0.03-0.793,0.092-1.139c0.062-0.346,0.165-0.672,0.311-0.979
				c0.146-0.307,0.329-0.566,0.552-0.777s0.507-0.377,0.853-0.5c0.346-0.123,0.741-0.185,1.187-0.185s0.841,0.062,1.187,0.185
				c0.345,0.123,0.629,0.289,0.853,0.5s0.406,0.471,0.553,0.777c0.146,0.307,0.248,0.633,0.311,0.979s0.092,0.725,0.092,1.139v4.916
				c0,2.391-0.998,3.586-2.993,3.586C55.44,30.058,54.438,28.863,54.438,26.472z M59.388,26.705v-5.379
				c0-1.678-0.651-2.517-1.957-2.517c-1.305,0-1.957,0.839-1.957,2.517v5.379c0,1.682,0.652,2.521,1.957,2.521
				C58.736,29.226,59.388,28.386,59.388,26.705z"/>
			<path fill="#FFFFFF" d="M61.498,29.875V18.141h3.13c0.396,0,0.743,0.054,1.043,0.163s0.542,0.254,0.728,0.434
				c0.184,0.18,0.332,0.402,0.445,0.668s0.192,0.541,0.235,0.825s0.063,0.599,0.063,0.944c0,1.496-0.545,2.443-1.636,2.843
				l1.813,5.856h-1.104l-1.712-5.727h-1.97v5.727H61.498z M62.535,23.315h2.086c0.296,0,0.546-0.06,0.75-0.177
				c0.204-0.118,0.357-0.287,0.46-0.504c0.103-0.219,0.174-0.446,0.215-0.682c0.041-0.236,0.062-0.508,0.062-0.812
				c0-0.25-0.013-0.476-0.036-0.675c-0.025-0.2-0.071-0.396-0.138-0.586c-0.065-0.191-0.152-0.352-0.263-0.48
				c-0.108-0.129-0.252-0.232-0.43-0.311c-0.177-0.078-0.384-0.115-0.62-0.115h-2.086V23.315z"/>
			<path fill="#FFFFFF" d="M68.075,29.875V18.141h2.639c0.445,0,0.841,0.06,1.187,0.181c0.347,0.12,0.632,0.284,0.855,0.491
				c0.227,0.207,0.409,0.46,0.553,0.761c0.145,0.299,0.245,0.617,0.308,0.955c0.062,0.336,0.092,0.707,0.092,1.109v4.773
				c0,2.309-0.997,3.463-2.993,3.463H68.075z M69.112,29.042h1.602c1.306,0,1.957-0.801,1.957-2.4v-5.236
				c0-1.623-0.651-2.434-1.957-2.434h-1.602V29.042z"/>
			<path fill="#FFFFFF" d="M74.773,29.875V18.141h1.037v11.733H74.773z"/>
			<path fill="#FFFFFF" d="M77.11,29.875V18.141h0.798l3.716,9.293v-9.293h0.88v11.733h-0.777l-3.723-9.094v9.094H77.11z"/>
			<path fill="#FFFFFF" d="M84.164,29.875h-1.043l2.318-11.733h1.35l2.318,11.733h-1.051l-0.586-3.055h-2.707L84.164,29.875z
				 M84.887,26.13h2.455l-1.234-6.914L84.887,26.13z"/>
			<path fill="#FFFFFF" d="M90.477,29.875V18.972h-2.285V18.14h5.625v0.832h-2.305v10.902H90.477L90.477,29.875z"/>
			<path fill="#FFFFFF" d="M93.648,26.472v-4.916c0-0.414,0.03-0.793,0.093-1.139c0.062-0.346,0.165-0.672,0.311-0.979
				c0.146-0.307,0.329-0.566,0.552-0.777c0.224-0.211,0.508-0.377,0.854-0.5s0.741-0.185,1.188-0.185
				c0.445,0,0.841,0.062,1.187,0.185c0.345,0.123,0.629,0.289,0.853,0.5s0.406,0.471,0.553,0.777
				c0.146,0.307,0.249,0.633,0.311,0.979c0.062,0.346,0.092,0.725,0.092,1.139v4.916c0,2.391-0.998,3.586-2.992,3.586
				C94.65,30.058,93.648,28.863,93.648,26.472z M98.6,26.705v-5.379c0-1.678-0.651-2.517-1.957-2.517
				c-1.305,0-1.957,0.839-1.957,2.517v5.379c0,1.682,0.652,2.521,1.957,2.521C97.948,29.226,98.6,28.386,98.6,26.705z"/>
			<path fill="#FFFFFF" d="M100.71,29.875V18.141h3.13c0.396,0,0.743,0.054,1.043,0.163c0.301,0.109,0.542,0.254,0.728,0.434
				c0.184,0.18,0.333,0.402,0.445,0.668c0.113,0.266,0.192,0.541,0.235,0.825s0.064,0.599,0.064,0.944
				c0,1.496-0.545,2.443-1.637,2.843l1.813,5.856h-1.104l-1.712-5.727h-1.97v5.727H100.71z M101.747,23.315h2.086
				c0.296,0,0.546-0.06,0.75-0.177c0.204-0.118,0.358-0.287,0.46-0.504c0.104-0.219,0.174-0.446,0.215-0.682
				c0.041-0.236,0.062-0.508,0.062-0.812c0-0.25-0.014-0.476-0.037-0.675c-0.025-0.2-0.071-0.396-0.137-0.586
				c-0.066-0.191-0.153-0.352-0.264-0.48c-0.107-0.129-0.252-0.232-0.43-0.311s-0.384-0.115-0.62-0.115h-2.086V23.315z"/>
		</g>
	</g>
</g>
</svg>
