<?xml version="1.0" encoding="utf-8"?>
<!-- Generator: Adobe Illustrator 16.0.0, SVG Export Plug-In . SVG Version: 6.00 Build 0)  -->
<!DOCTYPE svg PUBLIC "-//W3C//DTD SVG 1.1//EN" "http://www.w3.org/Graphics/SVG/1.1/DTD/svg11.dtd">
<svg version="1.1" id="Layer_1" xmlns="http://www.w3.org/2000/svg" xmlns:xlink="http://www.w3.org/1999/xlink" x="0px" y="0px"
	 width="34.908px" height="34.908px" viewBox="0 0 34.908 34.908" enable-background="new 0 0 34.908 34.908" xml:space="preserve">
<g id="BOOKING_AGENT__x26__TOUR_MANAGER__x2F__x2F__GENTLEMAN_AUCTION_HOUSE_x2C__EAST_COAST_TOUR">
	<g opacity="0.85">
		<g>
			<circle fill="#FFFFFF" cx="17.454" cy="17.454" r="17.454"/>
			<g id="g1_11_">
				<polygon id="polygon1_11_" fill="#CD1E25" points="17.594,8.664 11.447,13.98 5.631,13.98 5.631,20.82 11.359,20.82 
					17.594,26.213 				"/>
				<path fill="#CD1E25" d="M20.369,21.865c-0.316-0.195-0.412-0.609-0.215-0.925l0,0c0.629-1.012,0.993-2.19,0.993-3.459l0,0
					c0-1.296-0.377-2.494-1.021-3.511l0,0c-0.199-0.312-0.106-0.729,0.205-0.927l0,0c0.312-0.2,0.729-0.106,0.928,0.206l0,0
					c0.777,1.221,1.232,2.672,1.232,4.231l0,0c0,1.528-0.445,2.962-1.197,4.169l0,0v0.003c-0.129,0.202-0.348,0.313-0.572,0.313l0,0
					C20.603,21.968,20.479,21.937,20.369,21.865L20.369,21.865z"/>
				<path fill="#CD1E25" d="M22.853,24.358c-0.3-0.217-0.363-0.641-0.146-0.936l0,0c1.223-1.668,1.945-3.719,1.945-5.942l0,0
					c0-2.251-0.736-4.315-1.98-5.994l0,0h0.004c-0.223-0.296-0.159-0.718,0.14-0.938l0,0c0.297-0.221,0.717-0.159,0.938,0.139l0,0
					c1.406,1.896,2.242,4.248,2.242,6.794l0,0c0,2.517-0.82,4.851-2.205,6.737l0,0c-0.131,0.179-0.334,0.273-0.541,0.273l0,0
					C23.111,24.492,22.971,24.449,22.853,24.358L22.853,24.358z"/>
				<path fill="#CD1E25" d="M25.172,26.687c-0.291-0.23-0.34-0.652-0.11-0.941l0,0c1.799-2.273,2.873-5.143,2.873-8.263l0,0
					c0-3.147-1.089-6.03-2.904-8.312l0,0c-0.232-0.29-0.187-0.712,0.104-0.943l0,0c0.291-0.233,0.713-0.185,0.945,0.106l0,0
					c2,2.506,3.199,5.689,3.199,9.149l0,0c0,3.431-1.185,6.596-3.162,9.095l0,0l0.002,0.001c-0.133,0.168-0.33,0.255-0.529,0.255
					l0,0C25.443,26.832,25.295,26.783,25.172,26.687L25.172,26.687z"/>
			</g>
		</g>
	</g>
</g>
</svg>
