<?xml version="1.0" encoding="utf-8"?>
<!-- Generator: Adobe Illustrator 16.0.0, SVG Export Plug-In . SVG Version: 6.00 Build 0)  -->
<!DOCTYPE svg PUBLIC "-//W3C//DTD SVG 1.1//EN" "http://www.w3.org/Graphics/SVG/1.1/DTD/svg11.dtd">
<svg version="1.1" id="Layer_1" xmlns="http://www.w3.org/2000/svg" xmlns:xlink="http://www.w3.org/1999/xlink" x="0px" y="0px"
	 width="217.049px" height="17.918px" viewBox="0 0 217.049 17.918" enable-background="new 0 0 217.049 17.918"
	 xml:space="preserve">
<g id="TRHS_LABEL">
	<g>
		<path fill="#FFFFFF" d="M1.896,13.118V2.7h-1.8V0.845h6.048V2.7H4.377v10.418H1.896z"/>
		<path fill="#FFFFFF" d="M6.215,13.118v-2.161h2.216v2.161H6.215z"/>
		<path fill="#FFFFFF" d="M11.228,13.118V0.845h2.7c0.613,0,1.153,0.059,1.619,0.174s0.874,0.297,1.224,0.545
			s0.616,0.582,0.797,1.002c0.182,0.42,0.272,0.924,0.272,1.51c0,0.255-0.009,0.482-0.027,0.682c-0.018,0.2-0.061,0.428-0.126,0.686
			c-0.066,0.257-0.156,0.483-0.27,0.682s-0.277,0.392-0.491,0.583c-0.214,0.191-0.466,0.35-0.757,0.478
			c0.736,2.335,1.377,4.313,1.922,5.932h-2.57l-1.404-5.652H13.71v5.652H11.228z M13.71,5.952h0.709
			c0.191,0,0.354-0.063,0.491-0.191c0.137-0.127,0.235-0.289,0.297-0.483c0.062-0.195,0.104-0.375,0.129-0.539
			c0.025-0.164,0.038-0.318,0.038-0.464s-0.01-0.295-0.031-0.45c-0.021-0.155-0.057-0.326-0.109-0.515
			c-0.052-0.188-0.139-0.343-0.259-0.463c-0.12-0.12-0.267-0.181-0.44-0.181H13.71V5.952z"/>
		<path fill="#FFFFFF" d="M18.023,9.082V4.957c0-2.9,1.195-4.35,3.586-4.35c2.396,0,3.593,1.45,3.593,4.35V9.02
			c0,0.491-0.037,0.944-0.109,1.36c-0.073,0.416-0.197,0.81-0.372,1.183c-0.175,0.373-0.396,0.69-0.668,0.951
			c-0.271,0.262-0.613,0.467-1.025,0.617c-0.413,0.15-0.886,0.225-1.418,0.225c-0.527,0-0.998-0.073-1.412-0.222
			c-0.414-0.147-0.754-0.348-1.022-0.6s-0.49-0.562-0.665-0.927c-0.175-0.366-0.3-0.756-0.375-1.17
			C18.061,10.025,18.023,9.573,18.023,9.082z M22.721,9.641V4.336c0-1.209-0.371-1.813-1.11-1.813c-0.224,0-0.412,0.056-0.566,0.167
			c-0.155,0.111-0.269,0.264-0.341,0.457C20.63,3.34,20.579,3.531,20.549,3.72c-0.029,0.189-0.044,0.396-0.044,0.617v5.306
			c0,1.204,0.368,1.807,1.104,1.807C22.351,11.448,22.721,10.846,22.721,9.641z"/>
		<path fill="#FFFFFF" d="M25.65,9.082V4.957c0-2.9,1.195-4.35,3.586-4.35c2.396,0,3.593,1.45,3.593,4.35V9.02
			c0,0.491-0.037,0.944-0.109,1.36c-0.073,0.416-0.197,0.81-0.372,1.183c-0.175,0.373-0.396,0.69-0.668,0.951
			c-0.271,0.262-0.613,0.467-1.025,0.617c-0.413,0.15-0.886,0.225-1.418,0.225c-0.527,0-0.998-0.073-1.412-0.222
			c-0.414-0.147-0.754-0.348-1.022-0.6s-0.49-0.562-0.665-0.927c-0.175-0.366-0.3-0.756-0.375-1.17
			C25.688,10.025,25.65,9.573,25.65,9.082z M30.348,9.641V4.336c0-1.209-0.371-1.813-1.11-1.813c-0.224,0-0.412,0.056-0.566,0.167
			c-0.155,0.111-0.269,0.264-0.341,0.457c-0.073,0.193-0.124,0.384-0.154,0.573c-0.029,0.189-0.044,0.396-0.044,0.617v5.306
			c0,1.204,0.368,1.807,1.104,1.807C29.978,11.448,30.348,10.846,30.348,9.641z"/>
		<path fill="#FFFFFF" d="M33.011,9.607l2.517-0.484c0,0.25,0.004,0.471,0.014,0.662c0.009,0.191,0.033,0.398,0.071,0.624
			c0.039,0.225,0.091,0.409,0.157,0.553c0.065,0.144,0.159,0.265,0.279,0.361s0.263,0.146,0.426,0.146
			c0.491,0,0.736-0.313,0.736-0.94c0-0.859-0.484-1.714-1.452-2.564L34.987,7.31c-0.246-0.205-0.441-0.375-0.586-0.511
			c-0.146-0.137-0.317-0.321-0.515-0.552c-0.198-0.232-0.353-0.456-0.464-0.672c-0.111-0.216-0.207-0.476-0.286-0.781
			c-0.08-0.304-0.12-0.627-0.12-0.968c0-0.996,0.316-1.783,0.948-2.363s1.471-0.869,2.516-0.869c0.868,0,1.606,0.31,2.216,0.927
			c0.608,0.618,0.914,1.364,0.914,2.236l-0.007,0.088c0,0.061,0,0.127,0,0.205L37.04,4.404c0-0.05,0.003-0.128,0.01-0.235
			s0.01-0.194,0.01-0.263c0-0.164-0.012-0.32-0.034-0.47c-0.023-0.15-0.061-0.3-0.112-0.45c-0.053-0.15-0.133-0.271-0.242-0.358
			c-0.109-0.089-0.241-0.133-0.396-0.133c-0.273,0-0.478,0.106-0.614,0.32c-0.136,0.214-0.205,0.466-0.205,0.757
			c0,0.254,0.04,0.493,0.12,0.716c0.079,0.223,0.2,0.431,0.361,0.624c0.161,0.193,0.31,0.354,0.446,0.48
			c0.137,0.127,0.318,0.283,0.545,0.467c0.229,0.184,0.39,0.319,0.484,0.406c0.35,0.31,0.646,0.6,0.886,0.869
			c0.24,0.271,0.468,0.576,0.682,0.917c0.213,0.341,0.374,0.709,0.48,1.104c0.106,0.395,0.16,0.823,0.16,1.282
			c0,0.858-0.307,1.562-0.92,2.109c-0.613,0.548-1.359,0.822-2.236,0.822c-0.568,0-1.073-0.105-1.514-0.314
			c-0.441-0.209-0.797-0.492-1.067-0.852s-0.479-0.757-0.624-1.193C33.118,10.575,33.034,10.107,33.011,9.607z"/>
		<path fill="#FFFFFF" d="M39.916,13.118V0.845h5.121V2.55h-2.639v3.341h1.868v1.745h-1.868v3.777h2.639v1.705H39.916z"/>
		<path fill="#FFFFFF" d="M46.833,13.118L44.577,0.845h2.352l1.084,7.439l1.2-7.439h2.318l-2.427,12.273H46.833z"/>
		<path fill="#FFFFFF" d="M51.644,13.118V0.845h5.121V2.55h-2.639v3.341h1.868v1.745h-1.868v3.777h2.639v1.705H51.644z"/>
		<path fill="#FFFFFF" d="M56.953,13.118V0.845h2.482v10.568h2.441v1.705H56.953z"/>
		<path fill="#FFFFFF" d="M62.657,13.118V2.7h-1.8V0.845h6.048V2.7h-1.767v10.418H62.657z"/>
		<path fill="#FFFFFF" d="M69.129,13.118V0.845h2.482v5.032h1.778V0.845h2.496v12.273H73.39V7.643h-1.778v5.475H69.129z"/>
		<path fill="#FFFFFF" d="M76.646,13.118V0.845h2.482v12.273H76.646z"/>
		<path fill="#FFFFFF" d="M79.732,9.279V4.957c0-2.9,1.207-4.35,3.621-4.35c0.509,0,0.962,0.067,1.36,0.201
			c0.398,0.134,0.731,0.319,0.999,0.556c0.268,0.237,0.489,0.527,0.662,0.873c0.172,0.346,0.297,0.721,0.375,1.125
			c0.077,0.405,0.116,0.85,0.116,1.336V5.42h-2.373V4.562c0-0.214-0.006-0.401-0.017-0.562c-0.012-0.162-0.04-0.341-0.085-0.539
			c-0.045-0.198-0.106-0.36-0.184-0.488c-0.077-0.127-0.188-0.233-0.334-0.319c-0.146-0.086-0.318-0.129-0.518-0.129
			c-0.759,0-1.139,0.604-1.139,1.813v5.298c0,1.205,0.379,1.807,1.139,1.807c0.754,0,1.132-0.625,1.132-1.875V8.584H83.08V6.805
			h3.886v6.313h-1.705l-0.312-0.859c-0.209,0.327-0.507,0.593-0.894,0.794c-0.386,0.202-0.784,0.305-1.192,0.305
			c-0.441,0-0.842-0.082-1.203-0.242c-0.361-0.161-0.659-0.375-0.895-0.641c-0.233-0.267-0.431-0.578-0.589-0.938
			c-0.159-0.359-0.272-0.726-0.341-1.101C79.767,10.061,79.732,9.675,79.732,9.279z"/>
		<path fill="#FFFFFF" d="M87.632,13.118V0.845h2.482v5.032h1.779V0.845h2.496v12.273h-2.496V7.643h-1.779v5.475H87.632z"/>
		<path fill="#FFFFFF" d="M96.824,9.607l2.516-0.484c0,0.25,0.004,0.471,0.014,0.662c0.009,0.191,0.033,0.398,0.071,0.624
			c0.039,0.225,0.091,0.409,0.157,0.553c0.065,0.144,0.159,0.265,0.279,0.361c0.12,0.097,0.263,0.146,0.426,0.146
			c0.491,0,0.736-0.313,0.736-0.94c0-0.859-0.484-1.714-1.452-2.564L98.8,7.31c-0.246-0.205-0.441-0.375-0.586-0.511
			c-0.146-0.137-0.317-0.321-0.515-0.552c-0.198-0.232-0.354-0.456-0.464-0.672c-0.111-0.216-0.207-0.476-0.286-0.781
			c-0.08-0.304-0.12-0.627-0.12-0.968c0-0.996,0.316-1.783,0.948-2.363c0.632-0.58,1.471-0.869,2.516-0.869
			c0.868,0,1.606,0.31,2.216,0.927c0.609,0.618,0.914,1.364,0.914,2.236l-0.007,0.088c0,0.061,0,0.127,0,0.205l-2.563,0.354
			c0-0.05,0.003-0.128,0.01-0.235c0.007-0.107,0.01-0.194,0.01-0.263c0-0.164-0.012-0.32-0.034-0.47
			c-0.023-0.15-0.061-0.3-0.112-0.45c-0.053-0.15-0.133-0.271-0.242-0.358c-0.109-0.089-0.241-0.133-0.396-0.133
			c-0.273,0-0.478,0.106-0.614,0.32c-0.136,0.214-0.205,0.466-0.205,0.757c0,0.254,0.04,0.493,0.12,0.716
			c0.079,0.223,0.2,0.431,0.361,0.624c0.161,0.193,0.31,0.354,0.446,0.48c0.137,0.127,0.317,0.283,0.545,0.467
			s0.389,0.319,0.484,0.406c0.35,0.31,0.646,0.6,0.886,0.869c0.24,0.271,0.468,0.576,0.682,0.917
			c0.213,0.341,0.374,0.709,0.48,1.104c0.106,0.395,0.16,0.823,0.16,1.282c0,0.858-0.307,1.562-0.92,2.109
			c-0.613,0.548-1.358,0.822-2.235,0.822c-0.568,0-1.073-0.105-1.515-0.314c-0.44-0.209-0.797-0.492-1.066-0.852
			c-0.271-0.359-0.479-0.757-0.624-1.193C96.931,10.575,96.847,10.107,96.824,9.607z"/>
		<path fill="#FFFFFF" d="M103.571,9.021V4.957c0-2.9,1.187-4.35,3.559-4.35c0.5,0,0.944,0.067,1.333,0.201
			c0.389,0.134,0.715,0.319,0.979,0.556c0.263,0.236,0.479,0.527,0.65,0.873c0.17,0.346,0.293,0.721,0.368,1.125
			c0.075,0.405,0.113,0.85,0.113,1.336v1.057h-2.441V4.623c0-0.223-0.005-0.415-0.014-0.576c-0.009-0.161-0.033-0.345-0.072-0.552
			s-0.091-0.375-0.157-0.504c-0.065-0.129-0.164-0.24-0.293-0.331c-0.129-0.091-0.285-0.136-0.467-0.136
			c-0.718,0-1.077,0.604-1.077,1.813v5.298c0,1.205,0.359,1.807,1.077,1.807c0.213,0,0.393-0.062,0.539-0.184
			s0.25-0.296,0.313-0.521c0.064-0.226,0.107-0.446,0.13-0.662c0.021-0.216,0.034-0.462,0.034-0.74V8.073h2.427v1.036
			c-0.01,0.468-0.049,0.9-0.116,1.295c-0.068,0.396-0.185,0.779-0.349,1.151c-0.163,0.373-0.371,0.688-0.623,0.944
			c-0.252,0.257-0.578,0.464-0.979,0.621c-0.4,0.157-0.859,0.234-1.377,0.234c-0.532,0-1.003-0.075-1.415-0.229
			c-0.412-0.152-0.75-0.357-1.016-0.614c-0.266-0.257-0.485-0.573-0.658-0.948c-0.172-0.375-0.294-0.769-0.365-1.183
			C103.606,9.971,103.571,9.516,103.571,9.021z"/>
		<path fill="#FFFFFF" d="M111.035,13.118V0.845h2.481v5.032h1.779V0.845h2.496v12.273h-2.496V7.643h-1.779v5.475H111.035z"/>
		<path fill="#FFFFFF" d="M118.396,9.082V4.957c0-2.9,1.195-4.35,3.586-4.35c2.396,0,3.594,1.45,3.594,4.35V9.02
			c0,0.491-0.037,0.944-0.109,1.36s-0.197,0.81-0.372,1.183s-0.396,0.69-0.668,0.951c-0.271,0.262-0.612,0.467-1.026,0.617
			c-0.412,0.15-0.886,0.225-1.418,0.225c-0.526,0-0.998-0.073-1.411-0.222c-0.414-0.147-0.755-0.348-1.022-0.6
			c-0.269-0.252-0.49-0.562-0.665-0.927c-0.175-0.366-0.3-0.756-0.375-1.17C118.433,10.025,118.396,9.573,118.396,9.082z
			 M123.093,9.641V4.336c0-1.209-0.371-1.813-1.111-1.813c-0.223,0-0.411,0.056-0.565,0.167c-0.155,0.111-0.269,0.264-0.341,0.457
			c-0.073,0.193-0.124,0.384-0.154,0.573c-0.029,0.189-0.044,0.396-0.044,0.617v5.306c0,1.204,0.368,1.807,1.104,1.807
			C122.723,11.448,123.093,10.846,123.093,9.641z"/>
		<path fill="#FFFFFF" d="M126.022,9.082V4.957c0-2.9,1.194-4.35,3.586-4.35c2.396,0,3.593,1.45,3.593,4.35V9.02
			c0,0.491-0.037,0.944-0.109,1.36c-0.073,0.416-0.196,0.81-0.372,1.183c-0.175,0.373-0.396,0.69-0.668,0.951
			c-0.271,0.262-0.613,0.467-1.025,0.617c-0.413,0.15-0.887,0.225-1.418,0.225c-0.527,0-0.998-0.073-1.412-0.222
			c-0.414-0.147-0.754-0.348-1.022-0.6s-0.489-0.562-0.665-0.927c-0.175-0.366-0.3-0.756-0.375-1.17
			C126.06,10.025,126.022,9.573,126.022,9.082z M130.72,9.641V4.336c0-1.209-0.371-1.813-1.111-1.813
			c-0.223,0-0.411,0.056-0.565,0.167c-0.155,0.111-0.269,0.264-0.341,0.457c-0.073,0.193-0.124,0.384-0.154,0.573
			c-0.029,0.189-0.044,0.396-0.044,0.617v5.306c0,1.204,0.368,1.807,1.104,1.807C130.351,11.448,130.72,10.846,130.72,9.641z"/>
		<path fill="#FFFFFF" d="M133.806,13.118V0.845h2.482v10.568h2.441v1.705H133.806z"/>
		<path fill="#FFFFFF" d="M140.662,13.118l3.764-11.734h0.989l-3.771,11.734H140.662z"/>
		<path fill="#FFFFFF" d="M144.402,13.118l3.764-11.734h0.989l-3.771,11.734H144.402z"/>
		<path fill="#FFFFFF" d="M151.405,13.118V1.384h2.639c0.445,0,0.841,0.061,1.186,0.181c0.347,0.12,0.632,0.284,0.856,0.491
			c0.226,0.207,0.409,0.46,0.552,0.76c0.144,0.3,0.245,0.618,0.308,0.955c0.062,0.337,0.092,0.707,0.092,1.111v4.772
			c0,2.31-0.998,3.464-2.993,3.464H151.405z M152.44,12.286h1.604c1.304,0,1.957-0.8,1.957-2.4V4.65
			c0-1.623-0.652-2.434-1.957-2.434h-1.604V12.286z"/>
		<path fill="#FFFFFF" d="M158.112,13.118V1.384h4.091v0.832h-3.056v4.445h2.183v0.784h-2.183v4.841h3.056v0.832H158.112z"/>
		<path fill="#FFFFFF" d="M162.302,10.289l0.914-0.266c0.036,0.326,0.102,0.629,0.194,0.906s0.219,0.535,0.378,0.774
			c0.159,0.237,0.369,0.426,0.63,0.562c0.261,0.137,0.558,0.204,0.89,0.204c0.532,0,0.943-0.146,1.234-0.442
			c0.291-0.297,0.438-0.715,0.438-1.254c0-0.45-0.134-0.885-0.399-1.304c-0.267-0.418-0.658-0.899-1.176-1.445l-1.834-1.93
			c-0.4-0.422-0.707-0.817-0.921-1.186c-0.213-0.368-0.32-0.754-0.32-1.159c0-0.768,0.252-1.382,0.757-1.841
			s1.152-0.689,1.943-0.689c0.768,0,1.386,0.217,1.854,0.651c0.468,0.434,0.78,1.065,0.935,1.892l0.021,0.109l-0.873,0.273
			l-0.014-0.096c-0.091-0.586-0.302-1.066-0.631-1.438c-0.33-0.372-0.761-0.56-1.292-0.56c-0.519,0-0.932,0.132-1.237,0.396
			c-0.308,0.264-0.46,0.652-0.46,1.166c0,0.309,0.083,0.613,0.249,0.914c0.166,0.3,0.403,0.618,0.712,0.955l1.725,1.875
			c0.045,0.05,0.159,0.174,0.342,0.372c0.182,0.198,0.301,0.328,0.357,0.392c0.057,0.063,0.161,0.186,0.313,0.368
			c0.151,0.182,0.257,0.319,0.313,0.412c0.057,0.093,0.137,0.225,0.242,0.396s0.176,0.319,0.215,0.447s0.076,0.274,0.113,0.442
			c0.036,0.168,0.054,0.334,0.054,0.498c0,0.836-0.258,1.482-0.773,1.938c-0.517,0.455-1.184,0.682-2.001,0.682
			c-0.418,0-0.799-0.08-1.14-0.242c-0.341-0.16-0.628-0.383-0.862-0.664c-0.233-0.282-0.424-0.601-0.572-0.955
			C162.471,11.086,162.366,10.702,162.302,10.289z"/>
		<path fill="#FFFFFF" d="M170.669,13.118V1.384h1.275l2.264,10.132c0.277-1.328,0.646-2.951,1.104-4.872
			c0.459-1.921,0.846-3.674,1.159-5.26h1.275v11.734h-0.92V3.729l-2.168,9.389h-0.9l-2.168-9.382v9.382H170.669z"/>
		<path fill="#FFFFFF" d="M178.821,9.716V4.8c0-0.414,0.031-0.793,0.092-1.139c0.062-0.345,0.165-0.671,0.311-0.978
			c0.146-0.307,0.33-0.566,0.553-0.777c0.222-0.211,0.507-0.378,0.852-0.501c0.346-0.123,0.741-0.185,1.188-0.185
			c0.444,0,0.841,0.062,1.187,0.185c0.345,0.123,0.629,0.29,0.853,0.501c0.223,0.211,0.406,0.47,0.552,0.777s0.249,0.633,0.31,0.978
			c0.062,0.346,0.092,0.725,0.092,1.139v4.916c0,2.392-0.998,3.586-2.992,3.586C179.817,13.302,178.821,12.107,178.821,9.716z
			 M183.771,9.948v-5.38c0-1.677-0.651-2.517-1.957-2.517c-1.305,0-1.957,0.839-1.957,2.517v5.379c0,1.682,0.652,2.521,1.957,2.521
			C183.119,12.469,183.771,11.629,183.771,9.948z"/>
		<path fill="#FFFFFF" d="M185.875,13.118V1.384h1.036v11.734H185.875z"/>
		<path fill="#FFFFFF" d="M188.211,13.118V1.384h0.797l3.716,9.293V1.384h0.879v11.734h-0.776l-3.724-9.095v9.095H188.211z"/>
		<path fill="#FFFFFF" d="M194.897,13.118V1.384h4.091v0.832h-3.056v4.445h2.183v0.784h-2.183v4.841h3.056v0.832H194.897z"/>
		<path fill="#FFFFFF" d="M199.088,10.289l0.914-0.266c0.036,0.326,0.101,0.629,0.194,0.906c0.093,0.277,0.219,0.535,0.378,0.774
			c0.159,0.237,0.369,0.426,0.63,0.562c0.261,0.137,0.558,0.204,0.89,0.204c0.532,0,0.943-0.146,1.234-0.442
			c0.291-0.297,0.437-0.715,0.437-1.254c0-0.45-0.133-0.885-0.398-1.304c-0.266-0.418-0.658-0.899-1.176-1.445l-1.834-1.93
			c-0.4-0.422-0.707-0.817-0.92-1.186c-0.215-0.368-0.321-0.754-0.321-1.159c0-0.768,0.252-1.382,0.757-1.841
			s1.152-0.689,1.943-0.689c0.768,0,1.386,0.217,1.854,0.651c0.468,0.434,0.78,1.065,0.934,1.892l0.021,0.109l-0.873,0.273
			l-0.014-0.096c-0.092-0.586-0.301-1.066-0.631-1.438c-0.33-0.372-0.761-0.56-1.293-0.56c-0.518,0-0.931,0.132-1.236,0.396
			c-0.307,0.264-0.46,0.652-0.46,1.166c0,0.309,0.083,0.613,0.249,0.914c0.166,0.3,0.402,0.618,0.712,0.955l1.725,1.875
			c0.045,0.05,0.159,0.174,0.341,0.372c0.183,0.198,0.302,0.328,0.358,0.392c0.058,0.063,0.161,0.186,0.313,0.368
			c0.151,0.182,0.257,0.319,0.313,0.412c0.058,0.093,0.138,0.225,0.242,0.396s0.176,0.319,0.215,0.447s0.076,0.274,0.113,0.442
			c0.036,0.168,0.054,0.334,0.054,0.498c0,0.836-0.258,1.482-0.773,1.938c-0.517,0.455-1.184,0.682-2.002,0.682
			c-0.418,0-0.798-0.08-1.139-0.242c-0.341-0.16-0.628-0.383-0.861-0.664c-0.234-0.282-0.426-0.601-0.573-0.955
			C199.257,11.086,199.151,10.702,199.088,10.289z"/>
		<path fill="#FFFFFF" d="M205.479,14.864l-0.184-0.375c0.146-0.056,0.271-0.142,0.375-0.259c0.104-0.118,0.18-0.25,0.225-0.396
			s0.077-0.275,0.096-0.393c0.019-0.115,0.027-0.224,0.027-0.323h-0.873v-1.22h1.261c0,0.035,0,0.088,0,0.156
			c0,0.245-0.001,0.428-0.003,0.549s-0.006,0.286-0.01,0.498c-0.005,0.213-0.017,0.371-0.035,0.479
			c-0.018,0.105-0.041,0.238-0.067,0.395c-0.027,0.157-0.063,0.276-0.108,0.358c-0.046,0.082-0.101,0.167-0.164,0.255
			c-0.063,0.089-0.142,0.153-0.231,0.194C205.696,14.823,205.594,14.85,205.479,14.864z"/>
		<path fill="#FFFFFF" d="M209.402,13.118V1.384h1.036v11.734H209.402z"/>
		<path fill="#FFFFFF" d="M212.106,13.118h-1.043l2.317-11.734h1.351l2.317,11.734h-1.05l-0.586-3.056h-2.707L212.106,13.118z
			 M212.829,9.375h2.455l-1.234-6.914L212.829,9.375z"/>
	</g>
</g>
</svg>
