<?xml version="1.0" encoding="utf-8"?>
<!-- Generator: Adobe Illustrator 13.0.2, SVG Export Plug-In . SVG Version: 6.00 Build 14948)  -->
<!DOCTYPE svg PUBLIC "-//W3C//DTD SVG 1.1//EN" "http://www.w3.org/Graphics/SVG/1.1/DTD/svg11.dtd">
<svg version="1.1" id="VIMEO" xmlns="http://www.w3.org/2000/svg" xmlns:xlink="http://www.w3.org/1999/xlink" x="0px" y="0px"
	 width="175px" height="175px" viewBox="0 0 175 175" enable-background="new 0 0 175 175" xml:space="preserve">
<path fill="#636467" d="M162.605,3.302H12.527c-5.5,0-10,4.5-10,10v150.08c0,5.5,4.5,10,10,10h150.078c5.5,0,10-4.5,10-10V13.302
	C172.605,7.802,168.105,3.302,162.605,3.302z M122.816,71.978c-0.312,6.859-5.115,16.244-14.387,28.145
	c-9.596,12.449-17.717,18.664-24.357,18.664c-4.114,0-7.594-3.783-10.438-11.375c-1.899-6.963-3.798-13.93-5.696-20.877
	c-2.111-7.596-4.376-11.391-6.802-11.391c-0.528,0-2.368,1.107-5.534,3.322l-3.32-4.275c3.48-3.047,6.906-6.111,10.284-9.162
	c4.634-4.014,8.115-6.113,10.437-6.334c5.477-0.529,8.856,3.217,10.125,11.225c1.363,8.65,2.316,14.029,2.843,16.139
	c1.583,7.168,3.321,10.746,5.219,10.746c1.474,0,3.687-2.314,6.642-6.949c2.952-4.645,4.53-8.174,4.743-10.604
	c0.424-4.006-1.159-5.998-4.743-5.998c-1.687,0-3.431,0.357-5.221,1.105c3.483-11.285,10.124-16.768,19.932-16.447
	C119.813,58.116,123.236,62.813,122.816,71.978z"/>
</svg>
