<?xml version="1.0" encoding="utf-8"?>
<!-- Generator: Adobe Illustrator 16.0.0, SVG Export Plug-In . SVG Version: 6.00 Build 0)  -->
<!DOCTYPE svg PUBLIC "-//W3C//DTD SVG 1.1//EN" "http://www.w3.org/Graphics/SVG/1.1/DTD/svg11.dtd">
<svg version="1.1" id="Layer_1" xmlns="http://www.w3.org/2000/svg" xmlns:xlink="http://www.w3.org/1999/xlink" x="0px" y="0px"
	 width="53.104px" height="34.91px" viewBox="0 0 53.104 34.91" enable-background="new 0 0 53.104 34.91" xml:space="preserve">
<g id="DIRECTOR_x2C___x201C_MISSION_TUITION_x201D__x2C___x201C_INSIDE_THE_SOUND_x201D___x26___x201C_THE_TRUTH_x201D___x2F__x2F__WEBBIES_AWARD_SHOW_SEGMENTS__x26__BEST">
	<g opacity="0.85">
		<g>
			<circle fill="#7F5221" cx="35.648" cy="17.455" r="17.455"/>
			<g>
				<g>
					<path fill="#F19E1F" d="M28.72,31.314l3.539-4.337l1.955,5.243l1.943-11.777c-1.958,0.055-3.84-0.561-5.365-1.686L28.72,31.314
						z M41.802,18.158c-1.021,0.943-2.282,1.654-3.725,2.023c-0.381,0.098-0.76,0.158-1.14,0.203L39.443,30.9l1.462-5.182
						l3.644,3.961L41.802,18.158z M39.041,18.033l2.121,0.316l0.18-2.137l2.065-0.572l-0.704-2.022l1.654-1.365l-1.47-1.562
						l0.957-1.918l-1.977-0.83l0.093-2.146l-2.144,0.048L39.032,3.85l-1.938,0.911l-1.529-1.503l-1.402,1.625l-2.009-0.756
						l-0.618,2.058l-2.141,0.128l0.271,2.129l-1.902,0.99l1.111,1.832l-1.336,1.681l1.761,1.221l-0.537,2.077l2.107,0.402
						l0.353,2.113l2.089-0.489l1.182,1.788l1.709-1.299l1.807,1.154L39.041,18.033z"/>
				</g>
			</g>
		</g>
		<g>
			<circle fill="#FFFFFF" cx="17.455" cy="17.455" r="17.455"/>
			<path fill="#F19E1F" d="M17.819,29.964h-0.743c-1.309-0.086-2.308-0.248-3.11-0.512c-0.337-1.953-0.693-3.883-1.056-5.812
				l-0.082-0.444c0.761,0.51,1.522,1.02,2.286,1.531c2.175,1.46,4.423,2.967,6.603,4.486C20.479,29.652,19.199,29.901,17.819,29.964
				L17.819,29.964z M12.197,28.796c-2.384-1.123-4.273-2.856-5.616-5.166c0.955-1.496,1.938-2.963,2.917-4.436l0.74-1.105
				C10.905,21.641,11.555,25.212,12.197,28.796L12.197,28.796z M23.504,28.41c-1.537-1.008-3.243-2.158-5.212-3.512
				c-0.078-0.055-0.154-0.107-0.229-0.162c2.811-0.525,5.603-1.07,8.392-1.615l2.368-0.461
				C27.683,25.105,25.895,27.035,23.504,28.41L23.504,28.41z M23.039,22.13c0.611-0.902,1.223-1.811,1.834-2.723
				c1.411-2.1,2.865-4.268,4.297-6.327c0.461,1.223,0.724,2.538,0.795,4.009v0.742c-0.072,1.207-0.233,2.216-0.488,3.061
				c-1.488,0.271-2.957,0.562-4.43,0.847C24.378,21.873,23.709,22.001,23.039,22.13L23.039,22.13z M5.76,21.876
				c-0.47-1.221-0.736-2.555-0.815-4.058v-0.742c0.077-1.215,0.234-2.223,0.49-3.062c1.349-0.254,2.688-0.519,4.025-0.779
				c0.779-0.154,1.559-0.308,2.338-0.456c-0.738,1.107-1.475,2.223-2.209,3.336C8.316,18.041,7.044,19.964,5.76,21.876L5.76,21.876z
				 M24.76,16.641c-0.341-1.865-0.691-3.718-1.045-5.568c-0.31-1.633-0.62-3.267-0.922-4.906c2.372,1.107,4.242,2.85,5.561,5.181
				c-0.515,0.747-1.021,1.503-1.525,2.259C26.158,14.608,25.469,15.641,24.76,16.641L24.76,16.641z M6.091,12.222
				c0.54-1.191,1.302-2.318,2.317-3.431l0.528-0.522c0.918-0.802,1.747-1.396,2.519-1.802c1.179,0.812,2.354,1.613,3.532,2.416
				l1.818,1.24c-1.306,0.254-2.609,0.513-3.916,0.771C10.624,11.344,8.358,11.791,6.091,12.222L6.091,12.222z M22.177,11.68
				c-1.009-0.688-2.024-1.375-3.039-2.061c-1.915-1.294-3.89-2.627-5.812-3.973c1.197-0.408,2.43-0.636,3.764-0.701h0.743
				c1.017,0.069,2.191,0.188,3.166,0.531c0.212,1.078,0.416,2.167,0.619,3.254C21.801,9.715,21.985,10.701,22.177,11.68
				L22.177,11.68z"/>
		</g>
	</g>
</g>
</svg>
