<?xml version="1.0" encoding="utf-8"?>
<!-- Generator: Adobe Illustrator 16.0.0, SVG Export Plug-In . SVG Version: 6.00 Build 0)  -->
<!DOCTYPE svg PUBLIC "-//W3C//DTD SVG 1.1//EN" "http://www.w3.org/Graphics/SVG/1.1/DTD/svg11.dtd">
<svg version="1.1" id="Layer_1" xmlns="http://www.w3.org/2000/svg" xmlns:xlink="http://www.w3.org/1999/xlink" x="0px" y="0px"
	 width="250.186px" height="17.918px" viewBox="0 0 250.186 17.918" enable-background="new 0 0 250.186 17.918"
	 xml:space="preserve">
<g id="WEBSTER_LABEL">
	<g>
		<g>
			<path fill="#FFFFFF" d="M1.841,13.118L0.143,0.845h2.114l0.764,8.127l1.051-8.127h1.82l1.029,8.08l0.798-8.08H9.84L8.121,13.118
				H6L4.97,5.086l-1.009,8.032H1.841z"/>
			<path fill="#FFFFFF" d="M10.711,13.118V0.845h5.121V2.55h-2.639v3.341h1.867v1.745h-1.867v3.777h2.639v1.705H10.711z"/>
			<path fill="#FFFFFF" d="M16.718,13.118V0.845h2.53c0.454,0,0.854,0.024,1.203,0.072c0.348,0.048,0.688,0.141,1.022,0.28
				c0.334,0.139,0.609,0.324,0.825,0.556c0.216,0.231,0.389,0.538,0.52,0.917c0.129,0.379,0.193,0.828,0.193,1.347
				c0,0.641-0.15,1.145-0.454,1.513c-0.302,0.369-0.771,0.659-1.408,0.873c1.459,0.354,2.189,1.386,2.189,3.095
				c0,1.232-0.295,2.145-0.886,2.734c-0.591,0.591-1.494,0.886-2.707,0.886H16.718z M19.187,5.673h0.424
				c0.227,0,0.418-0.043,0.572-0.13c0.154-0.086,0.271-0.212,0.352-0.378s0.135-0.344,0.167-0.535
				c0.031-0.191,0.048-0.416,0.048-0.675c0-0.205-0.016-0.384-0.044-0.539c-0.03-0.155-0.062-0.283-0.1-0.385
				c-0.035-0.104-0.098-0.188-0.184-0.259c-0.086-0.07-0.163-0.123-0.228-0.157c-0.066-0.034-0.166-0.06-0.301-0.075
				c-0.134-0.016-0.241-0.025-0.323-0.027S19.362,2.51,19.188,2.51L19.187,5.673L19.187,5.673z M19.2,11.366h0.231
				c0.323,0,0.584-0.037,0.784-0.112s0.354-0.204,0.457-0.385c0.104-0.182,0.174-0.389,0.208-0.617s0.051-0.537,0.051-0.924
				c0-0.641-0.112-1.139-0.338-1.493c-0.225-0.354-0.607-0.532-1.147-0.532H19.2V11.366z"/>
			<path fill="#FFFFFF" d="M24.069,9.607l2.516-0.484c0,0.25,0.004,0.471,0.014,0.662c0.009,0.191,0.033,0.398,0.071,0.624
				c0.039,0.225,0.091,0.409,0.157,0.553c0.064,0.144,0.159,0.265,0.278,0.361c0.12,0.097,0.264,0.146,0.427,0.146
				c0.49,0,0.735-0.313,0.735-0.94c0-0.859-0.483-1.714-1.452-2.564L26.044,7.31c-0.246-0.205-0.441-0.375-0.586-0.511
				c-0.146-0.137-0.317-0.321-0.515-0.552c-0.198-0.232-0.354-0.456-0.465-0.672c-0.11-0.216-0.207-0.476-0.285-0.781
				c-0.08-0.304-0.12-0.627-0.12-0.968c0-0.996,0.315-1.783,0.947-2.363c0.633-0.58,1.472-0.869,2.517-0.869
				c0.868,0,1.605,0.31,2.216,0.927c0.609,0.618,0.914,1.364,0.914,2.236L30.66,3.845c0,0.061,0,0.127,0,0.205l-2.563,0.354
				c0-0.05,0.003-0.128,0.01-0.235c0.008-0.107,0.011-0.194,0.011-0.263c0-0.164-0.013-0.32-0.034-0.47
				c-0.023-0.15-0.062-0.3-0.112-0.45c-0.053-0.15-0.133-0.271-0.242-0.358c-0.108-0.089-0.24-0.133-0.396-0.133
				c-0.273,0-0.479,0.106-0.614,0.32c-0.136,0.214-0.205,0.466-0.205,0.757c0,0.254,0.04,0.493,0.12,0.716
				c0.079,0.223,0.2,0.431,0.361,0.624c0.161,0.193,0.31,0.354,0.445,0.48c0.138,0.127,0.318,0.283,0.546,0.467
				s0.389,0.319,0.483,0.406c0.351,0.31,0.646,0.6,0.886,0.869c0.24,0.271,0.469,0.576,0.683,0.917
				c0.213,0.341,0.374,0.709,0.479,1.104c0.106,0.395,0.16,0.823,0.16,1.282c0,0.858-0.307,1.562-0.92,2.109
				s-1.359,0.822-2.236,0.822c-0.567,0-1.072-0.105-1.514-0.314s-0.797-0.492-1.067-0.852s-0.479-0.757-0.624-1.193
				C24.175,10.575,24.091,10.107,24.069,9.607z"/>
			<path fill="#FFFFFF" d="M32.837,13.118V2.7h-1.8V0.845h6.048V2.7H35.32v10.418H32.837z"/>
			<path fill="#FFFFFF" d="M37.91,13.118V0.845h5.121V2.55h-2.64v3.341h1.868v1.745h-1.868v3.777h2.64v1.705H37.91z"/>
			<path fill="#FFFFFF" d="M43.917,13.118V0.845h2.7c0.612,0,1.152,0.059,1.619,0.174c0.466,0.116,0.874,0.297,1.224,0.545
				s0.616,0.582,0.797,1.002c0.182,0.42,0.273,0.924,0.273,1.51c0,0.255-0.01,0.482-0.027,0.682c-0.018,0.2-0.062,0.428-0.126,0.686
				c-0.066,0.257-0.156,0.483-0.271,0.682c-0.113,0.198-0.276,0.392-0.49,0.583C49.404,6.9,49.15,7.059,48.861,7.187
				c0.735,2.336,1.377,4.313,1.922,5.932h-2.57l-1.404-5.652h-0.409v5.652L43.917,13.118L43.917,13.118z M46.398,5.952h0.709
				c0.191,0,0.354-0.063,0.491-0.191c0.138-0.127,0.235-0.289,0.297-0.483C47.957,5.082,48,4.902,48.024,4.739
				c0.024-0.163,0.038-0.318,0.038-0.464s-0.01-0.295-0.03-0.45C48.01,3.67,47.974,3.499,47.922,3.31
				c-0.052-0.188-0.139-0.343-0.259-0.463c-0.12-0.12-0.268-0.181-0.44-0.181h-0.825V5.952z"/>
			<path fill="#FFFFFF" d="M54.307,8.557V0.845h2.482v7.637c0,0.436,0.002,0.753,0.007,0.951s0.016,0.438,0.034,0.723
				c0.018,0.285,0.05,0.482,0.095,0.597c0.045,0.113,0.108,0.236,0.188,0.368s0.183,0.218,0.311,0.259
				c0.127,0.041,0.282,0.062,0.463,0.062c0.183,0,0.336-0.021,0.464-0.062c0.127-0.041,0.23-0.126,0.311-0.255
				c0.08-0.13,0.142-0.251,0.188-0.365c0.045-0.113,0.077-0.311,0.097-0.59c0.018-0.28,0.028-0.516,0.033-0.709
				c0.005-0.193,0.008-0.506,0.008-0.938c0-0.019,0-0.032,0-0.041V0.845h2.481v7.711c0,0.392-0.011,0.746-0.034,1.064
				c-0.021,0.317-0.065,0.647-0.129,0.987c-0.062,0.342-0.149,0.643-0.259,0.904s-0.254,0.512-0.436,0.75
				c-0.183,0.238-0.396,0.436-0.646,0.59c-0.248,0.154-0.546,0.276-0.896,0.367c-0.351,0.092-0.743,0.137-1.181,0.137
				c-0.436,0-0.83-0.045-1.179-0.137c-0.35-0.091-0.648-0.213-0.895-0.367c-0.244-0.154-0.459-0.352-0.641-0.59
				s-0.327-0.488-0.437-0.75s-0.197-0.562-0.263-0.904c-0.065-0.34-0.109-0.67-0.133-0.987C54.32,9.302,54.307,8.948,54.307,8.557z"
				/>
			<path fill="#FFFFFF" d="M62.871,13.118V0.838h1.787l2.692,6.423V0.838h2.06v12.28h-1.719l-2.686-6.812v6.812H62.871z"/>
			<path fill="#FFFFFF" d="M70.869,13.118V0.845h2.481v12.273H70.869z"/>
			<path fill="#FFFFFF" d="M76.419,13.118L74.162,0.845h2.352l1.084,7.439l1.2-7.439h2.318l-2.428,12.273H76.419z"/>
			<path fill="#FFFFFF" d="M81.928,13.118V0.845h5.121V2.55H84.41v3.341h1.868v1.745H84.41v3.777h2.639v1.705H81.928z"/>
			<path fill="#FFFFFF" d="M87.935,13.118V0.845h2.7c0.613,0,1.153,0.059,1.619,0.174s0.874,0.297,1.224,0.545
				c0.351,0.248,0.616,0.582,0.797,1.002c0.183,0.42,0.273,0.924,0.273,1.51c0,0.255-0.009,0.482-0.027,0.682
				c-0.018,0.2-0.061,0.428-0.126,0.686c-0.065,0.257-0.155,0.483-0.27,0.682s-0.277,0.392-0.491,0.583s-0.466,0.35-0.757,0.478
				c0.736,2.335,1.377,4.313,1.922,5.932h-2.57l-1.403-5.652h-0.409v5.652H87.935z M90.417,5.952h0.709
				c0.19,0,0.354-0.063,0.491-0.191c0.137-0.127,0.234-0.289,0.297-0.483c0.062-0.195,0.104-0.375,0.129-0.539
				c0.024-0.164,0.037-0.318,0.037-0.463s-0.01-0.295-0.031-0.45C92.03,3.67,91.993,3.499,91.94,3.31
				c-0.052-0.188-0.139-0.343-0.259-0.463c-0.12-0.12-0.267-0.181-0.439-0.181h-0.825L90.417,5.952L90.417,5.952z"/>
			<path fill="#FFFFFF" d="M95.162,9.607l2.516-0.484c0,0.25,0.004,0.471,0.014,0.662s0.033,0.398,0.071,0.624
				c0.039,0.225,0.091,0.409,0.157,0.553c0.065,0.144,0.159,0.265,0.279,0.361s0.263,0.146,0.426,0.146
				c0.491,0,0.736-0.313,0.736-0.94c0-0.859-0.484-1.714-1.452-2.564L97.138,7.31c-0.246-0.205-0.44-0.375-0.586-0.511
				c-0.146-0.137-0.316-0.321-0.515-0.552c-0.198-0.232-0.354-0.456-0.464-0.672c-0.111-0.216-0.207-0.476-0.286-0.781
				c-0.08-0.304-0.12-0.627-0.12-0.968c0-0.996,0.315-1.783,0.948-2.363c0.632-0.58,1.471-0.869,2.516-0.869
				c0.868,0,1.606,0.31,2.216,0.927s0.914,1.364,0.914,2.236l-0.007,0.088c0,0.061,0,0.127,0,0.205l-2.563,0.354
				c0-0.05,0.004-0.128,0.011-0.235s0.01-0.194,0.01-0.263c0-0.164-0.012-0.32-0.034-0.47s-0.061-0.3-0.112-0.45
				c-0.053-0.15-0.133-0.271-0.241-0.358c-0.109-0.089-0.241-0.133-0.396-0.133c-0.272,0-0.478,0.106-0.614,0.32
				c-0.136,0.214-0.205,0.466-0.205,0.757c0,0.254,0.04,0.493,0.12,0.716c0.079,0.223,0.2,0.431,0.361,0.624
				c0.161,0.193,0.31,0.354,0.446,0.48c0.137,0.127,0.317,0.283,0.545,0.467s0.389,0.319,0.483,0.406
				c0.351,0.31,0.646,0.6,0.887,0.869c0.239,0.271,0.468,0.576,0.682,0.917c0.213,0.341,0.374,0.709,0.48,1.104
				c0.105,0.395,0.159,0.823,0.159,1.282c0,0.858-0.307,1.562-0.92,2.109c-0.612,0.548-1.358,0.822-2.235,0.822
				c-0.568,0-1.073-0.105-1.515-0.314c-0.44-0.209-0.797-0.492-1.066-0.852c-0.271-0.359-0.479-0.757-0.624-1.193
				C95.269,10.575,95.185,10.107,95.162,9.607z"/>
			<path fill="#FFFFFF" d="M102.764,13.118V0.845h2.482v12.273H102.764z"/>
			<path fill="#FFFFFF" d="M107.871,13.118V2.7h-1.8V0.845h6.048V2.7h-1.767v10.418H107.871z"/>
			<path fill="#FFFFFF" d="M114.512,13.118V9.062l-2.305-8.216h2.339l1.145,5.395c0.142-0.591,0.354-1.49,0.635-2.697
				s0.49-2.105,0.627-2.697h2.271l-2.312,8.216v4.057L114.512,13.118L114.512,13.118z"/>
			<path fill="#FFFFFF" d="M121.786,13.118l3.764-11.734h0.989l-3.771,11.734H121.786z"/>
			<path fill="#FFFFFF" d="M126.225,13.118l3.765-11.734h0.988l-3.771,11.734H126.225z"/>
			<path fill="#FFFFFF" d="M134.625,13.118V1.384h2.521c0.405,0,0.765,0.057,1.077,0.17c0.314,0.113,0.568,0.265,0.765,0.45
				c0.195,0.187,0.355,0.412,0.48,0.675c0.125,0.263,0.211,0.532,0.259,0.804c0.049,0.273,0.072,0.566,0.072,0.88
				c0,0.486-0.112,0.961-0.337,1.425s-0.535,0.787-0.931,0.968c0.276,0.114,0.518,0.281,0.723,0.501
				c0.205,0.221,0.361,0.467,0.47,0.74c0.109,0.273,0.189,0.544,0.239,0.815s0.075,0.54,0.075,0.808
				c0,0.409-0.021,0.771-0.059,1.084c-0.037,0.313-0.115,0.628-0.231,0.944c-0.116,0.315-0.27,0.576-0.46,0.78
				c-0.191,0.205-0.45,0.371-0.777,0.498s-0.714,0.191-1.159,0.191H134.625z M135.661,6.423h1.664c0.255,0,0.473-0.056,0.654-0.167
				c0.183-0.111,0.323-0.266,0.424-0.464c0.1-0.198,0.172-0.413,0.218-0.644c0.045-0.232,0.067-0.486,0.067-0.764
				c0-1.473-0.559-2.209-1.677-2.209h-1.35L135.661,6.423L135.661,6.423z M135.661,12.327h1.854c0.236,0,0.443-0.049,0.621-0.146
				c0.178-0.097,0.32-0.226,0.43-0.385s0.196-0.358,0.263-0.6c0.065-0.241,0.11-0.486,0.137-0.736
				c0.025-0.25,0.037-0.529,0.037-0.838c0-0.277-0.011-0.525-0.034-0.743c-0.022-0.218-0.067-0.434-0.133-0.648
				c-0.066-0.213-0.152-0.392-0.259-0.535c-0.107-0.144-0.25-0.258-0.431-0.344c-0.18-0.086-0.39-0.13-0.631-0.13h-1.854V12.327z"/>
			<path fill="#FFFFFF" d="M141.313,13.118v-1.22h1.254v1.22H141.313z"/>
			<path fill="#FFFFFF" d="M144.6,13.118h-1.043l2.318-11.734h1.35l2.318,11.734h-1.05l-0.586-3.056H145.2L144.6,13.118z
				 M145.323,9.375h2.455l-1.234-6.914L145.323,9.375z"/>
			<path fill="#FFFFFF" d="M150.647,13.118v-1.22h1.254v1.22H150.647z"/>
			<path fill="#FFFFFF" d="M156.334,13.118V1.384h4.125v0.832h-3.089v4.445h2.427v0.784h-2.427v5.673H156.334z"/>
			<path fill="#FFFFFF" d="M161.345,13.118V1.384h1.036v11.734H161.345z"/>
			<path fill="#FFFFFF" d="M164.379,13.118V1.384h1.036v10.902h3.28v0.832H164.379z"/>
			<path fill="#FFFFFF" d="M169.643,13.118V1.384h1.275l2.264,10.132c0.277-1.328,0.646-2.951,1.104-4.872
				c0.458-1.921,0.845-3.674,1.159-5.26h1.274v11.734h-0.92V3.729l-2.168,9.389h-0.9l-2.168-9.382v9.382H169.643z"/>
			<path fill="#FFFFFF" d="M181.479,13.118V1.384h2.87c0.409,0,0.773,0.056,1.091,0.167c0.318,0.111,0.582,0.262,0.791,0.453
				c0.209,0.191,0.383,0.423,0.52,0.696c0.136,0.271,0.232,0.56,0.29,0.862c0.057,0.302,0.085,0.628,0.085,0.979
				c0,0.359-0.024,0.691-0.072,0.995c-0.048,0.305-0.136,0.607-0.266,0.907c-0.129,0.3-0.295,0.553-0.498,0.76
				c-0.202,0.207-0.469,0.375-0.801,0.504s-0.714,0.194-1.146,0.194h-1.827v5.216L181.479,13.118L181.479,13.118z M182.516,7.07
				l1.95,0.007c0.582,0.005,0.998-0.196,1.248-0.604c0.25-0.407,0.375-1.044,0.375-1.912c0-0.809-0.134-1.402-0.402-1.78
				c-0.268-0.377-0.675-0.566-1.22-0.566h-1.95L182.516,7.07L182.516,7.07z"/>
			<path fill="#FFFFFF" d="M188.325,13.118V1.384h3.129c0.396,0,0.743,0.054,1.043,0.164c0.3,0.109,0.542,0.253,0.727,0.433
				s0.333,0.402,0.446,0.668c0.114,0.266,0.192,0.541,0.235,0.825c0.043,0.284,0.064,0.599,0.064,0.944
				c0,1.496-0.546,2.443-1.637,2.843l1.813,5.857h-1.104l-1.711-5.727h-1.971v5.727H188.325z M189.362,6.559h2.086
				c0.295,0,0.545-0.059,0.75-0.177s0.357-0.287,0.46-0.504c0.102-0.218,0.174-0.446,0.214-0.682
				c0.041-0.236,0.062-0.507,0.062-0.812c0-0.25-0.013-0.475-0.038-0.675c-0.024-0.2-0.069-0.396-0.136-0.586
				c-0.065-0.19-0.153-0.351-0.263-0.48c-0.109-0.129-0.252-0.233-0.43-0.31c-0.177-0.078-0.384-0.116-0.62-0.116h-2.086
				L189.362,6.559L189.362,6.559z"/>
			<path fill="#FFFFFF" d="M195.381,9.716V4.8c0-0.414,0.031-0.793,0.092-1.139c0.062-0.345,0.165-0.671,0.312-0.978
				c0.146-0.307,0.33-0.566,0.552-0.777s0.507-0.378,0.852-0.501c0.347-0.123,0.741-0.185,1.188-0.185
				c0.445,0,0.841,0.062,1.187,0.185c0.346,0.123,0.629,0.29,0.853,0.501c0.223,0.211,0.407,0.47,0.552,0.777
				c0.146,0.307,0.249,0.633,0.31,0.978c0.062,0.346,0.093,0.725,0.093,1.139v4.916c0,2.392-0.998,3.586-2.993,3.586
				C196.379,13.302,195.381,12.107,195.381,9.716z M200.331,9.948v-5.38c0-1.677-0.652-2.517-1.957-2.517s-1.957,0.839-1.957,2.517
				v5.379c0,1.682,0.652,2.521,1.957,2.521S200.331,11.629,200.331,9.948z"/>
			<path fill="#FFFFFF" d="M203.141,13.118V1.384h2.64c0.444,0,0.841,0.061,1.186,0.181c0.346,0.12,0.631,0.284,0.856,0.491
				c0.225,0.207,0.408,0.46,0.552,0.76c0.143,0.3,0.245,0.618,0.307,0.955c0.062,0.337,0.092,0.707,0.092,1.111v4.772
				c0,2.31-0.998,3.464-2.992,3.464H203.141z M204.177,12.286h1.604c1.304,0,1.957-0.8,1.957-2.4V4.65
				c0-1.623-0.652-2.434-1.957-2.434h-1.604V12.286z"/>
			<path fill="#FFFFFF" d="M210.368,10.234V1.384h1.036v9.088c0,0.673,0.151,1.175,0.457,1.503c0.304,0.33,0.817,0.494,1.541,0.494
				c0.682,0,1.168-0.166,1.459-0.498s0.436-0.832,0.436-1.5V1.384h1.03v8.851c0,2.045-0.976,3.067-2.925,3.067
				c-0.469,0-0.881-0.055-1.237-0.164c-0.357-0.108-0.647-0.256-0.873-0.439c-0.227-0.185-0.408-0.409-0.549-0.675
				c-0.142-0.267-0.239-0.543-0.293-0.832C210.395,10.903,210.368,10.584,210.368,10.234z"/>
			<path fill="#FFFFFF" d="M218.045,9.716V4.8c0-0.418,0.027-0.797,0.082-1.139c0.055-0.341,0.151-0.666,0.29-0.975
				s0.316-0.569,0.535-0.781c0.218-0.212,0.497-0.378,0.835-0.501s0.729-0.185,1.176-0.185c1.836,0,2.755,1.193,2.755,3.58v0.479
				h-0.989v-0.71c0-0.377-0.027-0.711-0.085-1.002c-0.057-0.291-0.15-0.553-0.282-0.788c-0.133-0.234-0.315-0.414-0.55-0.539
				c-0.233-0.125-0.517-0.188-0.849-0.188c-0.3,0-0.562,0.042-0.784,0.126c-0.223,0.084-0.403,0.199-0.542,0.345
				s-0.25,0.327-0.334,0.545c-0.084,0.218-0.142,0.446-0.174,0.685s-0.048,0.51-0.048,0.815v5.379c0,0.386,0.026,0.722,0.082,1.006
				c0.055,0.284,0.148,0.545,0.283,0.784c0.134,0.238,0.328,0.421,0.583,0.545c0.255,0.125,0.565,0.188,0.934,0.188
				c0.332,0,0.615-0.062,0.849-0.188c0.234-0.125,0.417-0.307,0.55-0.542c0.132-0.236,0.226-0.5,0.282-0.791
				c0.058-0.291,0.085-0.625,0.085-1.002V9.143h0.989v0.573c0,0.414-0.024,0.791-0.075,1.132c-0.05,0.342-0.14,0.667-0.27,0.979
				c-0.129,0.312-0.296,0.573-0.501,0.784s-0.468,0.379-0.791,0.504s-0.695,0.188-1.118,0.188c-0.455,0-0.854-0.062-1.196-0.188
				c-0.343-0.125-0.623-0.293-0.839-0.504s-0.391-0.474-0.524-0.784c-0.135-0.312-0.229-0.636-0.28-0.976
				C218.072,10.513,218.045,10.134,218.045,9.716z"/>
			<path fill="#FFFFFF" d="M226.342,13.118V2.216h-2.284V1.384h5.625v0.832h-2.304v10.902H226.342z"/>
			<path fill="#FFFFFF" d="M230.427,13.118V1.384h1.036v11.734H230.427z"/>
			<path fill="#FFFFFF" d="M233.243,9.716V4.8c0-0.414,0.03-0.793,0.092-1.139c0.062-0.345,0.165-0.671,0.311-0.978
				c0.146-0.307,0.33-0.566,0.553-0.777c0.222-0.211,0.507-0.378,0.852-0.501c0.346-0.123,0.741-0.185,1.188-0.185
				c0.444,0,0.841,0.062,1.187,0.185c0.345,0.123,0.629,0.29,0.852,0.501c0.224,0.211,0.407,0.47,0.553,0.777
				s0.249,0.633,0.31,0.978c0.062,0.346,0.092,0.725,0.092,1.139v4.916c0,2.392-0.998,3.586-2.992,3.586
				C234.24,13.302,233.243,12.107,233.243,9.716z M238.192,9.948v-5.38c0-1.677-0.651-2.517-1.956-2.517
				c-1.306,0-1.957,0.839-1.957,2.517v5.379c0,1.682,0.651,2.521,1.957,2.521C237.54,12.469,238.192,11.629,238.192,9.948z"/>
			<path fill="#FFFFFF" d="M241.002,13.118V1.384h0.797l3.716,9.293V1.384h0.879v11.734h-0.776l-3.724-9.095v9.095H241.002z"/>
		</g>
	</g>
</g>
</svg>
